<svg id="Lager_1" xmlns="http://www.w3.org/2000/svg" viewBox="0 0 34 34"><style>.st0{fill:#d00c33}</style><path class="st0" d="M1.179 19.4c.917 6.094 5.27 11.06 11.02 12.867V19.4H1.18zM12.2 1.733C6.449 3.54 2.096 8.507 1.179 14.6h11.02V1.733zM17 33h.03c8.008-.016 14.634-5.912 15.79-13.6H17V33zM17 14.6h15.82C31.664 6.908 25.032 1.01 17.02 1H17v13.6z"/><path d="M17 19.4h15.82a16.101 16.101 0 0 0 0-4.8H17V1c-1.672 0-3.285.258-4.8.733V14.6H1.179A16.4 16.4 0 0 0 1 17c0 .816.063 1.617.179 2.4h11.02v12.866c1.516.477 3.128.734 4.8.734V19.4z" fill="#fff"/></svg>
