<svg id="Lager_1" xmlns="http://www.w3.org/2000/svg" viewBox="0 0 34 34"><style>.st0{fill:#005b99}</style><path class="st0" d="M11.4 2.01A16.017 16.017 0 0 0 1.25 14.2H11.4V2.01zM1.25 19.8A16.016 16.016 0 0 0 11.4 31.988v-12.19H1.25zM32.751 14.2C31.426 6.7 24.881 1 17.001 1v13.2h15.75zM32.751 19.8h-15.75V33c7.88 0 14.425-5.698 15.75-13.2z"/><path d="M32.751 19.8c.16-.91.249-1.845.249-2.799 0-.957-.089-1.891-.249-2.801h-15.75V1c-1.972 0-3.858.36-5.601 1.01V14.2H1.25C1.088 15.11 1 16.044 1 17c0 .954.089 1.888.25 2.798H11.4v12.19A15.91 15.91 0 0 0 17 32.999V19.8h15.75z" fill="#fcd116"/></svg>
