<svg xmlns="http://www.w3.org/2000/svg" viewBox="0 0 149.4 57.11"><defs><style>.a,.d{fill:none;}.a,.c,.d{stroke:#231f20;stroke-linecap:round;stroke-linejoin:round;}.b{fill:#231f20;}.c{fill:#fff;}.d{stroke-dasharray:2 4;}</style></defs><title>I-3200-super-switch-installation</title><polyline class="a" points="0.5 37.091 24.9 37.091 124.499 37.091 148.9 37.091"/><line class="a" x1="88.293" y1="8.274" x2="134.628" y2="8.274"/><line class="a" x1="14.812" y1="8.274" x2="60.293" y2="8.274"/><path class="b" d="M376.616,432.928a31.74,31.74,0,0,0-9.262,6.138l1.864-6.138-1.864-6.138A31.74,31.74,0,0,0,376.616,432.928Z" transform="translate(-235.448 -424.653)"/><path class="b" d="M243.72,432.928a31.747,31.747,0,0,0,9.262-6.138l-1.864,6.138,1.864,6.138A31.727,31.727,0,0,0,243.72,432.928Z" transform="translate(-235.448 -424.653)"/><line class="a" x1="88.293" y1="24.195" x2="117.276" y2="24.195"/><line class="a" x1="32.632" y1="24.195" x2="60.293" y2="24.195"/><path class="b" d="M359.265,448.849A31.706,31.706,0,0,0,350,454.987l1.864-6.138L350,442.711A31.706,31.706,0,0,0,359.265,448.849Z" transform="translate(-235.448 -424.653)"/><path class="b" d="M261.54,448.849a31.76,31.76,0,0,0,9.262-6.138l-1.864,6.138,1.864,6.138A31.72,31.72,0,0,0,261.54,448.849Z" transform="translate(-235.448 -424.653)"/><polyline class="a" points="16.484 47.353 24.155 55.038 46.836 55.038"/><path class="b" d="M247.307,467.383a31.74,31.74,0,0,0,10.889,2.209l-5.657,3.022-3.023,5.659A31.708,31.708,0,0,0,247.307,467.383Z" transform="translate(-235.448 -424.653)"/><polyline class="a" points="133.273 47.353 125.601 55.038 102.92 55.038"/><path class="b" d="M373.346,467.383a31.745,31.745,0,0,1-10.89,2.209l5.657,3.022,3.024,5.659A31.661,31.661,0,0,1,373.346,467.383Z" transform="translate(-235.448 -424.653)"/><line class="a" x1="7.7" y1="29.892" x2="7.7" y2="44.292"/><rect class="c" x="24.9" y="34.091" width="99.6" height="6"/><line class="a" x1="124.499" y1="16.778" x2="124.499" y2="31.322"/><line class="a" x1="24.9" y1="31.322" x2="24.9" y2="16.778"/><circle class="a" cx="7.81" cy="37.066" r="4.607"/><line class="a" x1="141.7" y1="29.892" x2="141.7" y2="44.292"/><line class="a" x1="7.7" y1="0.5" x2="7.7" y2="27.011"/><line class="a" x1="141.7" y1="0.5" x2="141.7" y2="27.011"/><circle class="a" cx="141.81" cy="37.066" r="4.607"/><path class="b" d="M301.014,430.29H301l-1.017.549-.153-.6,1.278-.683h.675V435.4h-.765Z" transform="translate(-235.448 -424.653)"/><path class="b" d="M306,432.676v.585h-2.224v-.585Z" transform="translate(-235.448 -424.653)"/><path class="b" d="M310.167,430.218h-2.232l-.225,1.5a3,3,0,0,1,.477-.036,2.472,2.472,0,0,1,1.26.314,1.67,1.67,0,0,1,.837,1.5,2.03,2.03,0,0,1-2.179,2,2.878,2.878,0,0,1-1.458-.359l.2-.6a2.624,2.624,0,0,0,1.252.324,1.291,1.291,0,0,0,1.386-1.269c-.008-.756-.513-1.3-1.683-1.3a6.105,6.105,0,0,0-.811.062l.378-2.808h2.8Z" transform="translate(-235.448 -424.653)"/><path class="b" d="M310.877,435.764l2.512-6.528H314l-2.521,6.528Z" transform="translate(-235.448 -424.653)"/><path class="b" d="M314.306,433.918a1.67,1.67,0,0,1,1.162-1.566l-.01-.028a1.449,1.449,0,0,1-.927-1.314,1.64,1.64,0,0,1,1.81-1.558,1.511,1.511,0,0,1,1.7,1.441,1.488,1.488,0,0,1-.963,1.369v.026a1.623,1.623,0,0,1,1.179,1.513,1.8,1.8,0,0,1-1.989,1.7C315.044,435.5,314.306,434.773,314.306,433.918Zm3.151-.036c0-.711-.5-1.054-1.287-1.278a1.271,1.271,0,0,0-1.054,1.206,1.082,1.082,0,0,0,1.17,1.116A1.059,1.059,0,0,0,317.457,433.882Zm-2.179-2.926c0,.585.442.9,1.117,1.08a1.154,1.154,0,0,0,.891-1.062.909.909,0,0,0-.99-.954A.931.931,0,0,0,315.278,430.956Z" transform="translate(-235.448 -424.653)"/><path class="b" d="M319.832,429.236l-.153,2.161h-.487l-.143-2.161Zm1.342,0-.153,2.161h-.478l-.152-2.161Z" transform="translate(-235.448 -424.653)"/><path class="b" d="M301.014,446.29H301l-1.017.549-.153-.6,1.278-.683h.675V451.4h-.765Z" transform="translate(-235.448 -424.653)"/><path class="b" d="M306,448.676v.585h-2.224v-.585Z" transform="translate(-235.448 -424.653)"/><path class="b" d="M308.394,446.29h-.018l-1.018.549-.152-.6,1.278-.683h.675V451.4h-.765Z" transform="translate(-235.448 -424.653)"/><path class="b" d="M310.877,451.764l2.512-6.528H314l-2.521,6.528Z" transform="translate(-235.448 -424.653)"/><path class="b" d="M314.306,449.918a1.67,1.67,0,0,1,1.162-1.566l-.01-.028a1.449,1.449,0,0,1-.927-1.314,1.64,1.64,0,0,1,1.81-1.558,1.511,1.511,0,0,1,1.7,1.441,1.488,1.488,0,0,1-.963,1.369v.026a1.623,1.623,0,0,1,1.179,1.513,1.8,1.8,0,0,1-1.989,1.7C315.044,451.5,314.306,450.773,314.306,449.918Zm3.151-.036c0-.711-.5-1.054-1.287-1.278a1.271,1.271,0,0,0-1.054,1.206,1.082,1.082,0,0,0,1.17,1.116A1.059,1.059,0,0,0,317.457,449.882Zm-2.179-2.926c0,.585.442.9,1.117,1.08a1.154,1.154,0,0,0,.891-1.062.909.909,0,0,0-.99-.954A.931.931,0,0,0,315.278,446.956Z" transform="translate(-235.448 -424.653)"/><path class="b" d="M319.832,445.236l-.153,2.161h-.487l-.143-2.161Zm1.342,0-.153,2.161h-.478l-.152-2.161Z" transform="translate(-235.448 -424.653)"/><path class="b" d="M286.793,476.29h-.018l-1.017.549-.153-.6,1.279-.683h.675V481.4h-.766Z" transform="translate(-235.448 -424.653)"/><path class="b" d="M289.276,481.764l2.512-6.528h.612l-2.52,6.528Z" transform="translate(-235.448 -424.653)"/><path class="b" d="M292.705,479.918a1.67,1.67,0,0,1,1.162-1.566l-.01-.028a1.447,1.447,0,0,1-.926-1.314,1.639,1.639,0,0,1,1.809-1.558,1.511,1.511,0,0,1,1.7,1.441,1.489,1.489,0,0,1-.962,1.369v.026a1.623,1.623,0,0,1,1.178,1.513,1.8,1.8,0,0,1-1.989,1.7C293.443,481.5,292.705,480.773,292.705,479.918Zm3.151-.036c0-.711-.5-1.054-1.287-1.278a1.271,1.271,0,0,0-1.053,1.206,1.081,1.081,0,0,0,1.17,1.116A1.059,1.059,0,0,0,295.856,479.882Zm-2.178-2.926c0,.585.441.9,1.116,1.08a1.154,1.154,0,0,0,.892-1.062.91.91,0,0,0-.991-.954A.93.93,0,0,0,293.678,476.956Z" transform="translate(-235.448 -424.653)"/><path class="b" d="M298.231,475.236l-.152,2.161h-.486l-.145-2.161Zm1.342,0-.153,2.161h-.477l-.153-2.161Z" transform="translate(-235.448 -424.653)"/><path class="b" d="M306.351,475.012v5.266c0,.387.008.828.036,1.125h-.712l-.036-.756h-.018a1.611,1.611,0,0,1-1.485.855,1.986,1.986,0,0,1-1.864-2.214,2.084,2.084,0,0,1,1.954-2.341,1.456,1.456,0,0,1,1.314.666h.018v-2.6Zm-.793,3.807a1.409,1.409,0,0,0-.036-.333,1.165,1.165,0,0,0-1.143-.918c-.819,0-1.306.72-1.306,1.684,0,.882.433,1.611,1.287,1.611a1.191,1.191,0,0,0,1.162-.945,1.376,1.376,0,0,0,.036-.342Z" transform="translate(-235.448 -424.653)"/><path class="b" d="M308.546,475.821a.491.491,0,0,1-.982,0,.483.483,0,0,1,.5-.5A.471.471,0,0,1,308.546,475.821Zm-.883,5.582v-4.357h.792V481.4Z" transform="translate(-235.448 -424.653)"/><path class="b" d="M312.182,481.4l-.063-.549h-.027a1.622,1.622,0,0,1-1.332.648,1.241,1.241,0,0,1-1.333-1.251c0-1.054.936-1.63,2.62-1.62v-.091a.9.9,0,0,0-.99-1.008,2.174,2.174,0,0,0-1.135.324l-.18-.522a2.71,2.71,0,0,1,1.432-.387c1.332,0,1.656.909,1.656,1.782v1.63a6.238,6.238,0,0,0,.072,1.044Zm-.117-2.223c-.864-.018-1.845.134-1.845.981a.7.7,0,0,0,.747.756,1.084,1.084,0,0,0,1.053-.729.832.832,0,0,0,.045-.252Z" transform="translate(-235.448 -424.653)"/><path class="b" d="M314.107,478.226c0-.451-.008-.82-.036-1.18h.694l.036.7h.026a1.5,1.5,0,0,1,1.368-.8,1.288,1.288,0,0,1,1.234.873h.018a1.784,1.784,0,0,1,.487-.567,1.482,1.482,0,0,1,.962-.306c.577,0,1.432.378,1.432,1.891V481.4h-.774v-2.466c0-.837-.306-1.342-.946-1.342a1.028,1.028,0,0,0-.936.72,1.311,1.311,0,0,0-.063.4V481.4h-.774v-2.61c0-.693-.306-1.2-.909-1.2a1.178,1.178,0,0,0-1.044,1.179V481.4h-.775Z" transform="translate(-235.448 -424.653)"/><path class="b" d="M322.054,479.369a1.4,1.4,0,0,0,1.5,1.512,2.864,2.864,0,0,0,1.206-.225l.135.568a3.533,3.533,0,0,1-1.45.269,2.023,2.023,0,0,1-2.142-2.2,2.115,2.115,0,0,1,2.044-2.35,1.846,1.846,0,0,1,1.8,2.053,2.987,2.987,0,0,1-.027.369Zm2.323-.567a1.128,1.128,0,0,0-1.1-1.287,1.313,1.313,0,0,0-1.215,1.287Z" transform="translate(-235.448 -424.653)"/><path class="b" d="M327.076,475.8v1.251h1.135v.6h-1.135V480c0,.54.153.846.595.846a1.762,1.762,0,0,0,.459-.054l.036.6a1.965,1.965,0,0,1-.7.107,1.1,1.1,0,0,1-.856-.333,1.619,1.619,0,0,1-.305-1.134v-2.377h-.676v-.6h.676V476Z" transform="translate(-235.448 -424.653)"/><path class="b" d="M329.488,479.369a1.4,1.4,0,0,0,1.494,1.512,2.866,2.866,0,0,0,1.207-.225l.135.568a3.535,3.535,0,0,1-1.449.269,2.023,2.023,0,0,1-2.143-2.2,2.115,2.115,0,0,1,2.043-2.35,1.846,1.846,0,0,1,1.8,2.053,2.8,2.8,0,0,1-.027.369Zm2.323-.567a1.128,1.128,0,0,0-1.1-1.287A1.313,1.313,0,0,0,329.5,478.8Z" transform="translate(-235.448 -424.653)"/><path class="b" d="M333.556,478.405c0-.512-.009-.954-.036-1.359h.693l.027.855h.036a1.308,1.308,0,0,1,1.206-.954.851.851,0,0,1,.225.027v.748a1.088,1.088,0,0,0-1.332.99,2.207,2.207,0,0,0-.036.369V481.4h-.783Z" transform="translate(-235.448 -424.653)"/><line class="d" x1="24.9" y1="37.091" x2="124.499" y2="37.091"/></svg>