<svg xmlns="http://www.w3.org/2000/svg" viewBox="0 0 113.961 106.871"><defs><style>.a{fill:#bcbec0;}.a,.b,.c,.e{stroke:#231f20;}.b,.g{fill:#fff;}.c,.d{fill:#231f20;}.e,.f{fill:none;}.f{stroke:#fff;stroke-width:1.2px;}</style></defs><title>I-3200-super-switch-typical-tone-pot-wiring</title><polygon class="a" points="63.772 51.67 27.423 51.395 27.423 73.895 63.772 74.17 63.772 51.67"/><ellipse class="b" cx="45.299" cy="41.395" rx="23.75" ry="25"/><path class="b" d="M241.365,353.76a4.278,4.278,0,1,0-4.278,4.278A4.278,4.278,0,0,0,241.365,353.76Z" transform="translate(-205.359 -279.811)"/><path class="c" d="M255.186,353.76a4.278,4.278,0,1,0-4.278,4.278A4.278,4.278,0,0,0,255.186,353.76Z" transform="translate(-205.359 -279.811)"/><path class="c" d="M269.007,353.76a4.278,4.278,0,1,0-4.278,4.278A4.279,4.279,0,0,0,269.007,353.76Z" transform="translate(-205.359 -279.811)"/><path class="c" d="M243.043,309.47a4.278,4.278,0,1,0-4.277,4.278A4.278,4.278,0,0,0,243.043,309.47Z" transform="translate(-205.359 -279.811)"/><path class="d" d="M248.6,318.328h-5.424v-3.816h15.437v3.816h-5.483V334.6H248.6Z" transform="translate(-205.359 -279.811)"/><line class="e" x1="33.043" y1="29.847" x2="16.228" y2="83.049"/><polyline class="e" points="65.02 87.914 59.02 87.914 59.02 77.26"/><polyline class="d" points="81.604 27.359 86.559 36.264 91.513 27.359 81.604 27.359"/><line class="f" x1="80.358" y1="29.756" x2="92.85" y2="29.756"/><line class="f" x1="80.136" y1="32.615" x2="92.627" y2="32.615"/><polyline class="d" points="64.198 92.87 73.102 87.916 64.198 82.962 64.198 92.87"/><polyline class="e" points="33.835 29.105 86.43 21.56 86.43 27.685"/><circle class="c" cx="221.449" cy="364.651" r="7.581" transform="translate(-283.215 -219.178) rotate(-13.282)"/><line class="c" x1="44.896" y1="75.055" x2="18.158" y2="86.908"/><path class="d" d="M281.17,364.989h-1.845v-.666h4.491v.666h-1.854v5.4h-.792Z" transform="translate(-205.359 -279.811)"/><path class="d" d="M285.679,369.894c-.765,0-1.3-.72-1.3-1.674,0-.828.4-1.692,1.332-1.692s1.305.927,1.305,1.665c0,.99-.567,1.7-1.323,1.7Zm-.009.594a2.135,2.135,0,0,0,2.16-2.322,2.06,2.06,0,0,0-2.1-2.232,2.132,2.132,0,0,0-2.16,2.313,2.076,2.076,0,0,0,2.088,2.241Z" transform="translate(-205.359 -279.811)"/><path class="d" d="M291.529,367.86a2.151,2.151,0,0,1,.045-.324,1.265,1.265,0,0,1,1.206-.972c.837,0,1.287.747,1.287,1.62,0,1-.486,1.683-1.323,1.683a1.212,1.212,0,0,1-1.179-.927,1.278,1.278,0,0,1-.036-.324Zm-.792,4.311h.792V369.8h.018a1.517,1.517,0,0,0,1.341.684,2.066,2.066,0,0,0,1.98-2.34,1.974,1.974,0,0,0-1.854-2.214,1.681,1.681,0,0,0-1.539.846h-.018l-.045-.747H290.7c.027.414.036.864.036,1.422Z" transform="translate(-205.359 -279.811)"/><path class="d" d="M297.658,369.894c-.765,0-1.306-.72-1.306-1.674,0-.828.406-1.692,1.333-1.692s1.305.927,1.305,1.665c0,.99-.567,1.7-1.323,1.7Zm-.009.594a2.135,2.135,0,0,0,2.16-2.322,2.06,2.06,0,0,0-2.1-2.232,2.132,2.132,0,0,0-2.16,2.313,2.076,2.076,0,0,0,2.088,2.241Z" transform="translate(-205.359 -279.811)"/><path class="d" d="M300.7,369.588a2.237,2.237,0,0,0,1.053.306c.567,0,.837-.279.837-.648s-.225-.585-.8-.8c-.792-.288-1.161-.711-1.161-1.233a1.349,1.349,0,0,1,1.5-1.278,2.022,2.022,0,0,1,1.062.27l-.189.567a1.786,1.786,0,0,0-.891-.252c-.469,0-.72.27-.72.594,0,.369.251.531.819.747.747.279,1.143.657,1.143,1.314,0,.774-.6,1.314-1.62,1.314a2.483,2.483,0,0,1-1.224-.306Z" transform="translate(-205.359 -279.811)"/><path class="d" d="M304.372,370.389v-4.356h.792v4.356Zm.377-5.157a.509.509,0,0,1,.019-1.017.486.486,0,0,1,.5.5.5.5,0,0,1-.512.513Z" transform="translate(-205.359 -279.811)"/><path class="d" d="M307.432,364.989v1.044h1.133v.6h-1.133v2.349c0,.54.153.846.593.846a1.479,1.479,0,0,0,.459-.054l.036.6a2.154,2.154,0,0,1-.7.108,1.126,1.126,0,0,1-.854-.333,1.7,1.7,0,0,1-.306-1.143v-2.376h-.676v-.6h.676v-.8Z" transform="translate(-205.359 -279.811)"/><path class="d" d="M309.844,365.232a.5.5,0,0,0,.512-.513.487.487,0,0,0-.5-.5.509.509,0,0,0-.017,1.017Zm.405,5.157v-4.356h-.792v4.356Z" transform="translate(-205.359 -279.811)"/><path class="d" d="M311.868,366.033l.856,2.439c.143.405.26.765.35,1.125h.028c.1-.36.224-.72.369-1.125l.845-2.439h.828l-1.709,4.356h-.756l-1.657-4.356Z" transform="translate(-205.359 -279.811)"/><path class="d" d="M316.252,367.779a1.3,1.3,0,0,1,1.215-1.287,1.131,1.131,0,0,1,1.089,1.287Zm3.042.576a2.147,2.147,0,0,0,.026-.378,1.838,1.838,0,0,0-1.791-2.052,2.125,2.125,0,0,0-2.052,2.358,2.032,2.032,0,0,0,2.142,2.2,3.545,3.545,0,0,0,1.458-.279l-.143-.558a3.009,3.009,0,0,1-1.207.216,1.389,1.389,0,0,1-1.485-1.512Z" transform="translate(-205.359 -279.811)"/><path class="d" d="M282.866,322.122a5.484,5.484,0,0,1-1.872.333,2.849,2.849,0,0,1-3.114-3.06,3.037,3.037,0,0,1,3.285-3.132,3.8,3.8,0,0,1,1.521.279l-.2.639a3,3,0,0,0-1.341-.262,2.269,2.269,0,0,0-2.439,2.439,2.219,2.219,0,0,0,2.34,2.449,2.571,2.571,0,0,0,1.044-.162v-1.81h-1.224v-.629h2Z" transform="translate(-205.359 -279.811)"/><path class="d" d="M284.054,319.4c0-.514-.009-.955-.036-1.359h.693l.036.855h.027a1.316,1.316,0,0,1,1.215-.954.836.836,0,0,1,.216.026v.739a2.336,2.336,0,0,0-.279-.018,1.109,1.109,0,0,0-1.062,1.007,2.509,2.509,0,0,0-.027.378v2.323h-.792Z" transform="translate(-205.359 -279.811)"/><path class="d" d="M288.726,321.9c-.765,0-1.305-.72-1.305-1.674,0-.828.405-1.692,1.332-1.692s1.305.927,1.305,1.665c0,.99-.567,1.7-1.323,1.7Zm-.009.594a2.135,2.135,0,0,0,2.16-2.322,2.06,2.06,0,0,0-2.1-2.232,2.132,2.132,0,0,0-2.16,2.313,2.076,2.076,0,0,0,2.088,2.241Z" transform="translate(-205.359 -279.811)"/><path class="d" d="M295.521,321.2c0,.45.009.846.036,1.188h-.7l-.045-.711h-.018a1.627,1.627,0,0,1-1.44.81c-.684,0-1.5-.387-1.5-1.908v-2.547h.792v2.4c0,.828.261,1.395.972,1.395a1.141,1.141,0,0,0,1.044-.729,1.086,1.086,0,0,0,.072-.405v-2.664h.792Z" transform="translate(-205.359 -279.811)"/><path class="d" d="M296.835,319.214c0-.459-.009-.818-.036-1.178h.7l.045.711h.018a1.613,1.613,0,0,1,1.44-.81c.6,0,1.539.359,1.539,1.854v2.6h-.792V319.88c0-.7-.261-1.3-1.008-1.3a1.143,1.143,0,0,0-1.062.81,1.178,1.178,0,0,0-.054.369v2.628h-.792Z" transform="translate(-205.359 -279.811)"/><path class="d" d="M304.8,320.565a1.381,1.381,0,0,1-.036.342,1.2,1.2,0,0,1-1.162.945c-.845,0-1.286-.729-1.286-1.621,0-.954.486-1.673,1.305-1.673a1.166,1.166,0,0,1,1.143.909,1.473,1.473,0,0,1,.036.342Zm0-4.563v2.592h-.018a1.448,1.448,0,0,0-1.314-.657,2.083,2.083,0,0,0-1.953,2.339,1.993,1.993,0,0,0,1.872,2.215,1.6,1.6,0,0,0,1.476-.855h.018l.036.756h.711c-.027-.3-.036-.738-.036-1.125V316Z" transform="translate(-205.359 -279.811)"/><path class="d" d="M206.372,380.314a.411.411,0,0,1-.406-.441.418.418,0,0,1,.42-.442.409.409,0,0,1,.413.442.414.414,0,0,1-.42.441Z" transform="translate(-205.359 -279.811)"/><path class="d" d="M208.836,379.837c-.567,0-.931-.713-.917-1.9,0-1.141.364-1.855.924-1.855.644,0,.924.735.924,1.855,0,1.163-.3,1.9-.924,1.9Zm-.014.477c.994,0,1.574-.854,1.574-2.4,0-1.449-.552-2.3-1.5-2.3-.924,0-1.589.833-1.589,2.366.014,1.506.623,2.339,1.512,2.339Z" transform="translate(-205.359 -279.811)"/><path class="d" d="M210.956,380.236v-.378l.483-.469c1.163-1.106,1.695-1.694,1.695-2.38a.807.807,0,0,0-.9-.889,1.558,1.558,0,0,0-.967.385l-.195-.434a2.026,2.026,0,0,1,1.288-.462,1.278,1.278,0,0,1,1.385,1.323c0,.841-.608,1.519-1.567,2.444l-.357.335v.014h2.037v.511Z" transform="translate(-205.359 -279.811)"/><path class="d" d="M216.018,379.837c-.567,0-.932-.713-.917-1.9,0-1.141.363-1.855.923-1.855.644,0,.925.735.925,1.855,0,1.163-.3,1.9-.925,1.9Zm-.015.477c1,0,1.576-.854,1.576-2.4,0-1.449-.554-2.3-1.5-2.3-.925,0-1.59.833-1.59,2.366.014,1.506.623,2.339,1.513,2.339Z" transform="translate(-205.359 -279.811)"/><path class="d" d="M221.247,378.123v.447h-1.729v-.447Z" transform="translate(-205.359 -279.811)"/><path class="d" d="M223.71,380.314a.411.411,0,0,1-.406-.441.418.418,0,0,1,.42-.442.409.409,0,0,1,.413.442.414.414,0,0,1-.42.441Z" transform="translate(-205.359 -279.811)"/><path class="d" d="M226.041,376.26h-.014l-.791.428-.119-.47.994-.531h.525v4.549h-.595Z" transform="translate(-205.359 -279.811)"/><path class="d" d="M229.765,379.837c-.567,0-.931-.713-.917-1.9,0-1.141.364-1.855.924-1.855.644,0,.924.735.924,1.855,0,1.163-.3,1.9-.924,1.9Zm-.014.477c.994,0,1.575-.854,1.575-2.4,0-1.449-.553-2.3-1.5-2.3-.924,0-1.589.833-1.589,2.366.014,1.506.623,2.339,1.512,2.339Z" transform="translate(-205.359 -279.811)"/><path class="d" d="M233.356,379.837c-.567,0-.931-.713-.917-1.9,0-1.141.364-1.855.924-1.855.644,0,.924.735.924,1.855,0,1.163-.3,1.9-.924,1.9Zm-.014.477c.994,0,1.575-.854,1.575-2.4,0-1.449-.553-2.3-1.5-2.3-.924,0-1.589.833-1.589,2.366.014,1.506.623,2.339,1.512,2.339Z" transform="translate(-205.359 -279.811)"/><path class="d" d="M207,281.332h-1.639V280.18h4.662v1.152h-1.655v4.914H207Z" transform="translate(-205.359 -279.811)"/><path class="d" d="M211.246,281.845l.657,2.16c.072.261.162.585.216.819h.027c.063-.234.135-.567.2-.819l.54-2.16h1.467l-1.026,2.9a6.7,6.7,0,0,1-1.548,2.88,2.4,2.4,0,0,1-1.323.6l-.288-1.152a2.185,2.185,0,0,0,.594-.234,1.575,1.575,0,0,0,.567-.549.382.382,0,0,0,.072-.2.587.587,0,0,0-.054-.225l-1.62-4.023Z" transform="translate(-205.359 -279.811)"/><path class="d" d="M216.3,283.753a1.058,1.058,0,0,1,.027-.243.859.859,0,0,1,.819-.693c.612,0,.927.531.927,1.233,0,.747-.351,1.242-.945,1.242a.828.828,0,0,1-.8-.648,1.424,1.424,0,0,1-.027-.288Zm-1.368,4.275H216.3v-2.187h.018a1.367,1.367,0,0,0,1.143.5,2.1,2.1,0,0,0,2-2.358,1.994,1.994,0,0,0-1.827-2.241,1.711,1.711,0,0,0-1.467.711h-.018l-.063-.612h-1.188c.018.414.036.9.036,1.476Z" transform="translate(-205.359 -279.811)"/><path class="d" d="M220.993,281.269a.761.761,0,1,0-.009,0Zm.684,4.977v-4.4h-1.368v4.4Z" transform="translate(-205.359 -279.811)"/><path class="d" d="M226.078,286.138a3.139,3.139,0,0,1-1.225.207,2.142,2.142,0,0,1-2.331-2.259,2.3,2.3,0,0,1,2.52-2.34,3.175,3.175,0,0,1,1.045.171l-.216,1.017a1.877,1.877,0,0,0-.766-.135,1.138,1.138,0,0,0-1.178,1.233,1.152,1.152,0,0,0,1.206,1.242,1.929,1.929,0,0,0,.782-.144Z" transform="translate(-205.359 -279.811)"/><path class="d" d="M229.209,284.644a.981.981,0,0,1-.027.234.756.756,0,0,1-.711.5.491.491,0,0,1-.54-.522c0-.522.558-.693,1.278-.693Zm1.323-1a1.7,1.7,0,0,0-1.926-1.9,3.622,3.622,0,0,0-1.711.4l.253.873a2.571,2.571,0,0,1,1.215-.324c.675,0,.8.333.8.567v.054c-1.557,0-2.583.54-2.583,1.683a1.349,1.349,0,0,0,1.422,1.35,1.586,1.586,0,0,0,1.26-.54h.027l.081.441H230.6a5.8,5.8,0,0,1-.071-1.062Z" transform="translate(-205.359 -279.811)"/><path class="d" d="M231.621,279.856h1.368v6.39h-1.368Z" transform="translate(-205.359 -279.811)"/><path class="d" d="M237.435,280.648v1.2h.98v1.008h-.98v1.6c0,.531.134.774.54.774a1.673,1.673,0,0,0,.4-.036l.01,1.035a2.882,2.882,0,0,1-.883.117,1.459,1.459,0,0,1-1.034-.378,1.823,1.823,0,0,1-.378-1.305v-1.809h-.585v-1.008h.585v-.828Z" transform="translate(-205.359 -279.811)"/><path class="d" d="M241.206,285.364c-.576,0-.891-.567-.891-1.314,0-.657.252-1.323.9-1.323.621,0,.873.666.873,1.314,0,.792-.333,1.323-.873,1.323Zm-.008.981a2.2,2.2,0,0,0,2.313-2.34,2.141,2.141,0,0,0-2.242-2.259,2.2,2.2,0,0,0-2.357,2.331,2.155,2.155,0,0,0,2.276,2.268Z" transform="translate(-205.359 -279.811)"/><path class="d" d="M244.356,283.249c0-.549-.018-1.008-.036-1.4h1.188l.063.612h.028a1.579,1.579,0,0,1,1.358-.711c.9,0,1.576.6,1.576,1.9v2.6h-1.368v-2.439c0-.567-.2-.954-.693-.954a.754.754,0,0,0-.7.513.987.987,0,0,0-.044.342v2.538h-1.369Z" transform="translate(-205.359 -279.811)"/><path class="d" d="M250.674,283.537a.906.906,0,0,1,.855-.891.8.8,0,0,1,.765.891Zm2.845.945a3.512,3.512,0,0,0,.044-.549,1.952,1.952,0,0,0-1.961-2.2,2.211,2.211,0,0,0-2.224,2.349,2.114,2.114,0,0,0,2.349,2.25,4.157,4.157,0,0,0,1.593-.279l-.179-.927a3.631,3.631,0,0,1-1.216.189c-.638,0-1.2-.27-1.241-.846Z" transform="translate(-205.359 -279.811)"/><path class="d" d="M257.568,283.753a1.117,1.117,0,0,1,.027-.243.86.86,0,0,1,.82-.693c.611,0,.926.531.926,1.233,0,.747-.351,1.242-.945,1.242a.828.828,0,0,1-.8-.648,1.5,1.5,0,0,1-.027-.288Zm-1.368,4.275h1.368v-2.187h.018a1.368,1.368,0,0,0,1.143.5,2.1,2.1,0,0,0,2-2.358,1.994,1.994,0,0,0-1.827-2.241,1.707,1.707,0,0,0-1.466.711h-.019l-.063-.612h-1.187c.018.414.035.9.035,1.476Z" transform="translate(-205.359 -279.811)"/><path class="d" d="M263.652,285.364c-.576,0-.891-.567-.891-1.314,0-.657.252-1.323.9-1.323.621,0,.873.666.873,1.314,0,.792-.333,1.323-.873,1.323Zm-.009.981a2.2,2.2,0,0,0,2.313-2.34,2.14,2.14,0,0,0-2.241-2.259,2.2,2.2,0,0,0-2.358,2.331,2.156,2.156,0,0,0,2.277,2.268Z" transform="translate(-205.359 -279.811)"/><path class="d" d="M268.331,280.648v1.2h.981v1.008h-.981v1.6c0,.531.136.774.541.774a1.688,1.688,0,0,0,.4-.036l.009,1.035a2.879,2.879,0,0,1-.882.117,1.462,1.462,0,0,1-1.035-.378,1.823,1.823,0,0,1-.378-1.305v-1.809h-.585v-1.008h.585v-.828Z" transform="translate(-205.359 -279.811)"/><path class="d" d="M272.868,281.845l.359,1.809c.082.45.171.936.244,1.44h.027c.081-.5.215-1,.314-1.431l.469-1.818h1.079l.442,1.755c.126.5.242.99.323,1.494h.019c.062-.5.152-1,.261-1.5l.368-1.746h1.342l-1.35,4.4h-1.278l-.414-1.539a12.811,12.811,0,0,1-.288-1.377h-.018a11.923,11.923,0,0,1-.279,1.368l-.442,1.548H272.76l-1.287-4.4Z" transform="translate(-205.359 -279.811)"/><path class="d" d="M278.753,286.246v-4.4h1.369v4.4Zm.675-4.977a.78.78,0,1,1,.009,0Z" transform="translate(-205.359 -279.811)"/><path class="d" d="M281.228,283.294c0-.648-.009-1.071-.036-1.449h1.17l.054.819h.036a1.282,1.282,0,0,1,1.188-.918,1.362,1.362,0,0,1,.288.027v1.287a2.247,2.247,0,0,0-.378-.036.872.872,0,0,0-.936.693,1.547,1.547,0,0,0-.027.306v2.223h-1.368Z" transform="translate(-205.359 -279.811)"/><path class="d" d="M284.622,286.246v-4.4h1.368v4.4Zm.675-4.977a.78.78,0,1,1,.009,0Z" transform="translate(-205.359 -279.811)"/><path class="d" d="M287.087,283.249c0-.549-.018-1.008-.035-1.4h1.188l.063.612h.027a1.58,1.58,0,0,1,1.358-.711c.9,0,1.576.6,1.576,1.9v2.6H289.9v-2.439c0-.567-.2-.954-.692-.954a.754.754,0,0,0-.7.513.987.987,0,0,0-.044.342v2.538h-1.369Z" transform="translate(-205.359 -279.811)"/><path class="d" d="M295.161,284.284a1.292,1.292,0,0,1-.045.369.749.749,0,0,1-.729.549c-.568,0-.891-.513-.891-1.17,0-.8.4-1.251.9-1.251a.751.751,0,0,1,.739.6,1.27,1.27,0,0,1,.027.252Zm1.367-1.125c0-.657.018-1.026.036-1.314h-1.188l-.045.522h-.018a1.327,1.327,0,0,0-1.206-.621,2.1,2.1,0,0,0-2,2.322,1.934,1.934,0,0,0,1.864,2.142,1.425,1.425,0,0,0,1.188-.567h.018v.279a1.046,1.046,0,0,1-1.143,1.161,2.684,2.684,0,0,1-1.279-.333l-.27,1.044a3.522,3.522,0,0,0,1.584.333,2.674,2.674,0,0,0,1.782-.54,2.5,2.5,0,0,0,.675-1.98Z" transform="translate(-205.359 -279.811)"/><path class="d" d="M235.4,355.115a3.1,3.1,0,0,0,1.359.36c.711,0,1.07-.343,1.07-.774,0-.585-.575-.846-1.169-.846h-.558v-.981h.531c.459,0,1.034-.181,1.034-.675,0-.351-.278-.613-.863-.613a2.6,2.6,0,0,0-1.215.352l-.279-.99a3.638,3.638,0,0,1,1.809-.442c1.241,0,1.934.658,1.934,1.458a1.4,1.4,0,0,1-1.071,1.36v.017a1.457,1.457,0,0,1,1.269,1.432c0,1.025-.908,1.782-2.393,1.782a3.563,3.563,0,0,1-1.737-.406Z" transform="translate(-205.359 -279.811)"/><path class="g" d="M248.892,356.456v-.829l.747-.674c1.287-1.152,1.907-1.809,1.917-2.493,0-.478-.28-.855-.954-.855a2.167,2.167,0,0,0-1.251.477l-.387-.973a3.209,3.209,0,0,1,1.908-.6,1.814,1.814,0,0,1,2.051,1.837,3.6,3.6,0,0,1-1.556,2.519l-.54.451v.018h2.213v1.125Z" transform="translate(-205.359 -279.811)"/><path class="g" d="M264.351,351.82h-.019l-1.115.532-.225-1.026,1.556-.72h1.125v5.85h-1.322Z" transform="translate(-205.359 -279.811)"/><path class="d" d="M209.689,384.533c-.034-.658-.076-1.456-.076-2.037H209.6c-.168.546-.357,1.141-.595,1.792l-.833,2.289h-.463l-.77-2.247c-.223-.672-.405-1.274-.538-1.834h-.014c-.014.588-.049,1.372-.091,2.086l-.126,2.023h-.581l.328-4.718h.778l.8,2.282c.2.581.351,1.1.477,1.589h.014c.126-.476.294-.994.5-1.589l.839-2.282h.778l.294,4.718h-.6Z" transform="translate(-205.359 -279.811)"/><path class="d" d="M211.411,386.605v-3.388h.616v3.388Zm.294-4.011a.4.4,0,0,1,.014-.791.379.379,0,0,1,.392.392.386.386,0,0,1-.4.4Z" transform="translate(-205.359 -279.811)"/><path class="d" d="M215.464,386.486a2.382,2.382,0,0,1-.973.2,1.612,1.612,0,0,1-1.687-1.736,1.727,1.727,0,0,1,1.82-1.806,1.94,1.94,0,0,1,.854.182l-.14.469a1.508,1.508,0,0,0-.714-.161,1.178,1.178,0,0,0-1.2,1.288,1.162,1.162,0,0,0,1.176,1.267,1.763,1.763,0,0,0,.756-.161Z" transform="translate(-205.359 -279.811)"/><path class="d" d="M216.192,384.274c0-.4-.007-.742-.028-1.057h.539l.028.665h.021a1.025,1.025,0,0,1,.945-.742.65.65,0,0,1,.168.021v.574a2,2,0,0,0-.217-.014.863.863,0,0,0-.826.784,1.936,1.936,0,0,0-.021.294v1.806h-.616Z" transform="translate(-205.359 -279.811)"/><path class="d" d="M219.826,386.22c-.595,0-1.015-.56-1.015-1.3,0-.644.315-1.316,1.036-1.316s1.015.721,1.015,1.3c0,.77-.441,1.323-1.029,1.323Zm-.007.462a1.66,1.66,0,0,0,1.68-1.806,1.6,1.6,0,0,0-1.631-1.736,1.658,1.658,0,0,0-1.68,1.8,1.615,1.615,0,0,0,1.624,1.743Z" transform="translate(-205.359 -279.811)"/><path class="d" d="M222.332,386.605v-2.919h-.469v-.469h.469v-.161a1.6,1.6,0,0,1,.4-1.183,1.174,1.174,0,0,1,.819-.315,1.4,1.4,0,0,1,.525.1l-.077.476a.956.956,0,0,0-.4-.077c-.518,0-.658.462-.658.98v.182h.819v.469h-.812v2.919Z" transform="translate(-205.359 -279.811)"/><path class="d" d="M226.105,385.464a.632.632,0,0,1-.028.2.855.855,0,0,1-.833.567.54.54,0,0,1-.574-.588c0-.658.763-.777,1.435-.763Zm.6-.938c0-.679-.252-1.386-1.295-1.386a2.194,2.194,0,0,0-1.12.294l.14.413a1.633,1.633,0,0,1,.889-.252.7.7,0,0,1,.77.784v.07c-1.309-.007-2.037.441-2.037,1.26a.965.965,0,0,0,1.036.973,1.252,1.252,0,0,0,1.036-.5h.021l.056.427h.553a5.685,5.685,0,0,1-.049-.812Z" transform="translate(-205.359 -279.811)"/><path class="d" d="M227.694,386.605h.616V384.8a1.936,1.936,0,0,1,.021-.294.863.863,0,0,1,.826-.784,2,2,0,0,1,.217.014v-.574a.65.65,0,0,0-.168-.021,1.025,1.025,0,0,0-.945.742h-.021l-.028-.665h-.539c.021.315.028.658.028,1.057Z" transform="translate(-205.359 -279.811)"/><path class="d" d="M231.727,385.464a.632.632,0,0,1-.028.2.855.855,0,0,1-.833.567.54.54,0,0,1-.574-.588c0-.658.763-.777,1.435-.763Zm.6-.938c0-.679-.252-1.386-1.3-1.386a2.194,2.194,0,0,0-1.12.294l.14.413a1.633,1.633,0,0,1,.889-.252.7.7,0,0,1,.77.784v.07c-1.309-.007-2.037.441-2.037,1.26a.965.965,0,0,0,1.036.973,1.252,1.252,0,0,0,1.036-.5h.021l.056.427h.553a5.685,5.685,0,0,1-.049-.812Z" transform="translate(-205.359 -279.811)"/><path class="d" d="M235.626,385.184a1.07,1.07,0,0,1-.028.266.933.933,0,0,1-.9.735c-.658,0-1-.567-1-1.26,0-.742.378-1.3,1.015-1.3a.907.907,0,0,1,.889.707,1.146,1.146,0,0,1,.028.266Zm0-3.549v2.016h-.014a1.127,1.127,0,0,0-1.022-.511,1.621,1.621,0,0,0-1.519,1.82,1.549,1.549,0,0,0,1.456,1.722,1.242,1.242,0,0,0,1.148-.665h.014l.028.588h.553c-.021-.231-.028-.574-.028-.875v-4.1Z" transform="translate(-205.359 -279.811)"/></svg>