<svg xmlns="http://www.w3.org/2000/svg" viewBox="0 0 107.316 91.354"><defs><style>.a{fill:#bcbec0;}.a,.b,.c,.e{stroke:#231f20;}.b,.g{fill:#fff;}.c,.d{fill:#231f20;}.e,.f{fill:none;}.f{stroke:#fff;stroke-width:1.2px;}</style></defs><title>I-3200-super-switch-variation-2</title><rect class="a" x="27.477" y="51.394" width="36.625" height="22.5"/><ellipse class="b" cx="45.353" cy="41.394" rx="23.75" ry="25"/><path class="c" d="M350.582,351.554a4.278,4.278,0,1,0-4.277,4.278A4.278,4.278,0,0,0,350.582,351.554Z" transform="translate(-314.522 -277.606)"/><circle class="c" cx="360.125" cy="351.554" r="4.277" transform="translate(-315.504 -276.597) rotate(-0.16)"/><path class="c" d="M378.224,351.554a4.278,4.278,0,1,0-4.279,4.278A4.278,4.278,0,0,0,378.224,351.554Z" transform="translate(-314.522 -277.606)"/><path class="c" d="M378.724,323.8a4.278,4.278,0,1,0-4.279,4.278A4.278,4.278,0,0,0,378.724,323.8Z" transform="translate(-314.522 -277.606)"/><path class="d" d="M357.2,329.673l-6.436-20.09h4.976l2.444,8.495c.685,2.414,1.311,4.679,1.788,7.183h.089c.507-2.414,1.132-4.8,1.818-7.094l2.563-8.584h4.827l-6.764,20.09Z" transform="translate(-314.522 -277.606)"/><polyline class="e" points="62.728 46.144 74.853 56.144 74.853 73.894 61.978 73.894"/><polyline class="e" points="10.603 65.269 10.603 86.427 28.478 86.427 44.439 75.065"/><polyline class="e" points="32.978 77.269 38.978 86.394 63.978 86.394"/><polyline class="d" points="87.652 51.444 92.606 60.349 97.561 51.444 87.652 51.444"/><line class="f" x1="86.406" y1="53.841" x2="98.897" y2="53.841"/><line class="f" x1="86.184" y1="56.7" x2="98.675" y2="56.7"/><polyline class="d" points="5.652 60.694 10.606 69.599 15.561 60.694 5.652 60.694"/><polyline class="d" points="63.154 91.351 72.059 86.396 63.154 81.442 63.154 91.351"/><polyline class="e" points="60.353 45.644 92.478 45.644 92.478 51.769"/><path class="d" d="M316.8,328.9v6.066h-.792V328.9Z" transform="translate(-314.522 -277.606)"/><path class="d" d="M318.142,331.787c0-.459-.009-.819-.036-1.179h.7l.044.711h.019a1.613,1.613,0,0,1,1.439-.81c.6,0,1.54.36,1.54,1.854v2.6h-.792v-2.511c0-.7-.261-1.3-1.008-1.3a1.143,1.143,0,0,0-1.062.81,1.178,1.178,0,0,0-.054.369v2.628h-.792Z" transform="translate(-314.522 -277.606)"/><path class="d" d="M323.929,332.435a2.151,2.151,0,0,1,.045-.324,1.265,1.265,0,0,1,1.206-.972c.837,0,1.287.747,1.287,1.62,0,1-.487,1.683-1.323,1.683a1.212,1.212,0,0,1-1.179-.927,1.234,1.234,0,0,1-.036-.324Zm-.792,4.311h.792v-2.367h.018a1.517,1.517,0,0,0,1.341.684,2.066,2.066,0,0,0,1.98-2.34,1.974,1.974,0,0,0-1.854-2.214,1.68,1.68,0,0,0-1.539.846h-.019l-.045-.747h-.71c.027.414.036.864.036,1.422Z" transform="translate(-314.522 -277.606)"/><path class="d" d="M331.9,333.776c0,.45.01.846.036,1.188h-.7l-.045-.711h-.017a1.627,1.627,0,0,1-1.441.81c-.683,0-1.5-.387-1.5-1.908v-2.547h.792v2.4c0,.828.262,1.395.973,1.395a1.141,1.141,0,0,0,1.044-.729,1.087,1.087,0,0,0,.071-.405v-2.664h.792Z" transform="translate(-314.522 -277.606)"/><path class="d" d="M334.171,329.564v1.044h1.134v.6h-1.134v2.349c0,.54.153.846.594.846a1.488,1.488,0,0,0,.459-.054l.036.6a2.169,2.169,0,0,1-.7.108,1.128,1.128,0,0,1-.855-.333,1.7,1.7,0,0,1-.307-1.143v-2.376h-.674v-.6h.674v-.8Z" transform="translate(-314.522 -277.606)"/><path class="d" d="M399.077,345.9a5.477,5.477,0,0,1-1.871.333,2.848,2.848,0,0,1-3.114-3.06,3.038,3.038,0,0,1,3.285-3.132,3.8,3.8,0,0,1,1.52.279l-.2.639a3.007,3.007,0,0,0-1.341-.261,2.268,2.268,0,0,0-2.438,2.439,2.219,2.219,0,0,0,2.34,2.448,2.557,2.557,0,0,0,1.044-.162v-1.809H397.08v-.63h2Z" transform="translate(-314.522 -277.606)"/><path class="d" d="M400.256,346.169h.792v-2.322a2.489,2.489,0,0,1,.027-.378,1.111,1.111,0,0,1,1.062-1.008,2.566,2.566,0,0,1,.279.018v-.738a.835.835,0,0,0-.216-.027,1.318,1.318,0,0,0-1.215.954h-.027l-.036-.855h-.693c.027.405.036.846.036,1.359Z" transform="translate(-314.522 -277.606)"/><path class="d" d="M404.937,345.674c-.765,0-1.3-.72-1.3-1.674,0-.828.4-1.692,1.332-1.692s1.3.927,1.3,1.665c0,.99-.567,1.7-1.323,1.7Zm-.008.594a2.134,2.134,0,0,0,2.159-2.322,2.06,2.06,0,0,0-2.1-2.232,2.132,2.132,0,0,0-2.16,2.313,2.076,2.076,0,0,0,2.088,2.241Z" transform="translate(-314.522 -277.606)"/><path class="d" d="M411.732,344.981c0,.45.009.846.037,1.188h-.7l-.045-.711H411a1.626,1.626,0,0,1-1.44.81c-.684,0-1.5-.387-1.5-1.908v-2.547h.792v2.4c0,.828.261,1.395.972,1.395a1.138,1.138,0,0,0,1.044-.729,1.086,1.086,0,0,0,.072-.405v-2.664h.792Z" transform="translate(-314.522 -277.606)"/><path class="d" d="M413.046,342.992c0-.459-.009-.819-.035-1.179h.7l.045.711h.018a1.613,1.613,0,0,1,1.44-.81c.6,0,1.539.36,1.539,1.854v2.6h-.792v-2.511c0-.7-.261-1.3-1.008-1.3a1.165,1.165,0,0,0-1.116,1.179v2.628h-.792Z" transform="translate(-314.522 -277.606)"/><path class="d" d="M421.011,344.342a1.426,1.426,0,0,1-.035.342,1.2,1.2,0,0,1-1.162.945c-.846,0-1.287-.729-1.287-1.62,0-.954.487-1.674,1.305-1.674a1.168,1.168,0,0,1,1.144.909,1.528,1.528,0,0,1,.035.342Zm0-4.563v2.592h-.018a1.447,1.447,0,0,0-1.313-.657,2.083,2.083,0,0,0-1.953,2.34,1.992,1.992,0,0,0,1.872,2.214,1.6,1.6,0,0,0,1.475-.855h.018l.036.756h.711c-.027-.3-.036-.738-.036-1.125v-5.265Z" transform="translate(-314.522 -277.606)"/><path class="d" d="M391.943,366.638c-1.233,0-1.935-1.179-1.935-2.457,0-1.314.648-2.529,1.953-2.529s1.935,1.26,1.935,2.466c0,1.377-.7,2.52-1.944,2.52Zm-.018.639c1.539,0,2.808-1.116,2.808-3.195A2.764,2.764,0,0,0,392,361.013a2.875,2.875,0,0,0-2.808,3.186,2.776,2.776,0,0,0,2.727,3.078Z" transform="translate(-314.522 -277.606)"/><path class="d" d="M399.368,365.99c0,.45.009.846.036,1.188h-.7l-.045-.711h-.017a1.629,1.629,0,0,1-1.441.81c-.683,0-1.5-.387-1.5-1.908v-2.547h.792v2.4c0,.828.261,1.395.972,1.395a1.139,1.139,0,0,0,1.044-.729,1.086,1.086,0,0,0,.072-.405v-2.664h.792Z" transform="translate(-314.522 -277.606)"/><path class="d" d="M400.862,362.021v.8h-.675v.6h.675V365.8a1.7,1.7,0,0,0,.306,1.143,1.13,1.13,0,0,0,.855.333,2.171,2.171,0,0,0,.7-.108l-.037-.6a1.479,1.479,0,0,1-.459.054c-.441,0-.594-.306-.594-.846v-2.349h1.134v-.6h-1.134v-1.044Z" transform="translate(-314.522 -277.606)"/><path class="d" d="M404.453,364.649a2.151,2.151,0,0,1,.045-.324,1.265,1.265,0,0,1,1.206-.972c.837,0,1.287.747,1.287,1.62,0,1-.486,1.683-1.323,1.683a1.212,1.212,0,0,1-1.179-.927,1.278,1.278,0,0,1-.036-.324Zm-.792,4.311h.792v-2.367h.018a1.517,1.517,0,0,0,1.341.684,2.066,2.066,0,0,0,1.98-2.34,1.974,1.974,0,0,0-1.854-2.214,1.681,1.681,0,0,0-1.539.846h-.018l-.045-.747h-.711c.027.414.036.864.036,1.422Z" transform="translate(-314.522 -277.606)"/><path class="d" d="M412.427,365.99c0,.45.008.846.036,1.188h-.7l-.045-.711H411.7a1.627,1.627,0,0,1-1.44.81c-.684,0-1.5-.387-1.5-1.908v-2.547h.792v2.4c0,.828.261,1.395.972,1.395a1.137,1.137,0,0,0,1.043-.729,1.066,1.066,0,0,0,.073-.405v-2.664h.792Z" transform="translate(-314.522 -277.606)"/><path class="d" d="M413.921,362.021v.8h-.675v.6h.675V365.8a1.7,1.7,0,0,0,.306,1.143,1.13,1.13,0,0,0,.855.333,2.159,2.159,0,0,0,.7-.108l-.036-.6a1.479,1.479,0,0,1-.459.054c-.441,0-.594-.306-.594-.846v-2.349h1.134v-.6H414.7v-1.044Z" transform="translate(-314.522 -277.606)"/><path class="d" d="M316.467,284.041l-1.945-6.066h1.5l.739,2.565c.207.729.395,1.413.54,2.169h.026c.153-.729.343-1.45.55-2.143l.773-2.591h1.458l-2.043,6.066Z" transform="translate(-314.522 -277.606)"/><path class="d" d="M322.245,283.159c-.576,0-.891-.568-.891-1.314,0-.657.252-1.323.9-1.323.621,0,.873.666.873,1.313,0,.792-.333,1.324-.873,1.324Zm-.009.981a2.205,2.205,0,0,0,2.314-2.341,2.14,2.14,0,0,0-2.241-2.258,2.2,2.2,0,0,0-2.359,2.331,2.156,2.156,0,0,0,2.277,2.268Z" transform="translate(-314.522 -277.606)"/><path class="d" d="M325.4,277.65h1.369v6.391H325.4Z" transform="translate(-314.522 -277.606)"/><path class="d" d="M332.01,282.627c0,.577.018,1.044.036,1.414h-1.188l-.063-.622h-.026a1.568,1.568,0,0,1-1.377.721c-.9,0-1.549-.558-1.549-1.917V279.64h1.368v2.366c0,.64.207,1.027.693,1.027a.762.762,0,0,0,.739-.775V279.64h1.367Z" transform="translate(-314.522 -277.606)"/><path class="d" d="M333.108,281.044c0-.549-.018-1.008-.036-1.4h1.161l.054.6h.027a1.523,1.523,0,0,1,1.332-.7,1.245,1.245,0,0,1,1.206.755h.018a1.927,1.927,0,0,1,.576-.54,1.686,1.686,0,0,1,.837-.215c.846,0,1.486.593,1.486,1.908v2.592h-1.333v-2.386c0-.638-.207-1.007-.648-1.007a.68.68,0,0,0-.639.477,1.416,1.416,0,0,0-.045.341v2.575h-1.332v-2.466c0-.55-.2-.927-.639-.927a.7.7,0,0,0-.639.485.932.932,0,0,0-.054.351v2.557h-1.332Z" transform="translate(-314.522 -277.606)"/><path class="d" d="M341.892,281.332a.906.906,0,0,1,.855-.892.8.8,0,0,1,.765.892Zm2.844.944a3.47,3.47,0,0,0,.045-.548,1.953,1.953,0,0,0-1.962-2.2,2.21,2.21,0,0,0-2.223,2.349,2.114,2.114,0,0,0,2.349,2.25,4.161,4.161,0,0,0,1.593-.278l-.18-.928a3.625,3.625,0,0,1-1.215.189c-.639,0-1.2-.269-1.242-.845Z" transform="translate(-314.522 -277.606)"/><path class="d" d="M348.786,281.547a1.108,1.108,0,0,1,.026-.242.861.861,0,0,1,.82-.694c.612,0,.927.532.927,1.234,0,.746-.351,1.241-.945,1.241a.829.829,0,0,1-.8-.647,1.514,1.514,0,0,1-.026-.289Zm-1.368,4.276h1.368v-2.187h.018a1.37,1.37,0,0,0,1.143.5,2.1,2.1,0,0,0,2-2.358,1.993,1.993,0,0,0-1.827-2.241,1.709,1.709,0,0,0-1.467.711h-.018l-.063-.612h-1.188c.018.414.036.9.036,1.476Z" transform="translate(-314.522 -277.606)"/><path class="d" d="M354.869,283.159c-.576,0-.891-.568-.891-1.314,0-.657.252-1.323.9-1.323.621,0,.873.666.873,1.313,0,.792-.333,1.324-.873,1.324Zm-.009.981a2.2,2.2,0,0,0,2.313-2.341,2.139,2.139,0,0,0-2.24-2.258,2.2,2.2,0,0,0-2.359,2.331,2.156,2.156,0,0,0,2.278,2.268Z" transform="translate(-314.522 -277.606)"/><path class="d" d="M359.549,278.442v1.2h.981v1.008h-.981v1.6c0,.53.136.773.54.773a1.633,1.633,0,0,0,.405-.036l.009,1.036a2.911,2.911,0,0,1-.882.117,1.468,1.468,0,0,1-1.035-.378,1.823,1.823,0,0,1-.378-1.305v-1.809h-.585V279.64h.585v-.828Z" transform="translate(-314.522 -277.606)"/><path class="d" d="M365.111,277.821a7.728,7.728,0,0,0,0,7.273h-.954a6.352,6.352,0,0,1-1.026-3.628,6.442,6.442,0,0,1,1.026-3.645Z" transform="translate(-314.522 -277.606)"/><path class="d" d="M366.983,279.64l.594,2.043c.108.368.18.719.252,1.07h.027c.072-.359.144-.692.243-1.07l.567-2.043h1.44l-1.638,4.4H367.1l-1.6-4.4Z" transform="translate(-314.522 -277.606)"/><path class="d" d="M372.925,282.439a.966.966,0,0,1-.028.233.755.755,0,0,1-.711.5.493.493,0,0,1-.54-.523c0-.522.558-.693,1.279-.693Zm1.322-1a1.7,1.7,0,0,0-1.926-1.9,3.614,3.614,0,0,0-1.71.4l.252.873a2.574,2.574,0,0,1,1.215-.325c.675,0,.8.333.8.568v.053c-1.557,0-2.582.541-2.582,1.684a1.348,1.348,0,0,0,1.422,1.35,1.585,1.585,0,0,0,1.259-.54h.028l.08.441h1.233a5.8,5.8,0,0,1-.072-1.062Z" transform="translate(-314.522 -277.606)"/><path class="d" d="M375.346,281.088c0-.648-.01-1.07-.036-1.448h1.169l.054.819h.036a1.282,1.282,0,0,1,1.189-.918,1.357,1.357,0,0,1,.287.026v1.288a2.13,2.13,0,0,0-.378-.037.872.872,0,0,0-.936.694,1.623,1.623,0,0,0-.027.305v2.224h-1.368Z" transform="translate(-314.522 -277.606)"/><path class="d" d="M378.738,284.041v-4.4h1.368v4.4Zm.676-4.977a.779.779,0,1,1,.009,0Z" transform="translate(-314.522 -277.606)"/><path class="d" d="M384.867,282.979a5.8,5.8,0,0,0,.072,1.062h-1.232l-.081-.441H383.6a1.588,1.588,0,0,1-1.26.54,1.348,1.348,0,0,1-1.422-1.35c0-1.143,1.025-1.684,2.583-1.684v-.053c0-.235-.126-.568-.8-.568a2.578,2.578,0,0,0-1.215.325l-.252-.873a3.617,3.617,0,0,1,1.71-.4,1.7,1.7,0,0,1,1.926,1.9Zm-1.322-1.018c-.721,0-1.278.171-1.278.693a.492.492,0,0,0,.54.523.756.756,0,0,0,.711-.5,1.019,1.019,0,0,0,.027-.233Z" transform="translate(-314.522 -277.606)"/><path class="d" d="M387.416,278.442v1.2h.981v1.008h-.981v1.6c0,.53.136.773.54.773a1.633,1.633,0,0,0,.4-.036l.009,1.036a2.911,2.911,0,0,1-.882.117,1.468,1.468,0,0,1-1.035-.378,1.823,1.823,0,0,1-.378-1.305v-1.809h-.585V279.64h.585v-.828Z" transform="translate(-314.522 -277.606)"/><path class="d" d="M389.189,284.041v-4.4h1.369v4.4Zm.675-4.977a.78.78,0,1,1,.009,0Z" transform="translate(-314.522 -277.606)"/><path class="d" d="M393.68,284.14a2.156,2.156,0,0,1-2.277-2.268,2.2,2.2,0,0,1,2.358-2.331A2.139,2.139,0,0,1,396,281.8a2.2,2.2,0,0,1-2.313,2.341Zm.027-.981c.54,0,.873-.532.873-1.324,0-.647-.252-1.313-.873-1.313-.648,0-.9.666-.9,1.323,0,.746.315,1.314.891,1.314Z" transform="translate(-314.522 -277.606)"/><path class="d" d="M396.848,281.044c0-.549-.018-1.008-.036-1.4H398l.063.612h.027a1.578,1.578,0,0,1,1.359-.711c.9,0,1.575.6,1.575,1.9v2.6h-1.368V281.6c0-.567-.2-.954-.693-.954a.751.751,0,0,0-.7.513.983.983,0,0,0-.045.341v2.539h-1.368Z" transform="translate(-314.522 -277.606)"/><path class="d" d="M403.778,284.041v-.829l.747-.674c1.286-1.152,1.908-1.809,1.917-2.494,0-.477-.279-.854-.954-.854a2.167,2.167,0,0,0-1.251.477l-.387-.973a3.209,3.209,0,0,1,1.908-.6,1.814,1.814,0,0,1,2.052,1.837,3.6,3.6,0,0,1-1.557,2.519l-.54.451v.018h2.214v1.125Z" transform="translate(-314.522 -277.606)"/><path class="d" d="M408.7,285.094a7.728,7.728,0,0,0,0-7.273h.954a6.321,6.321,0,0,1,1.026,3.637,6.459,6.459,0,0,1-1.026,3.636Z" transform="translate(-314.522 -277.606)"/><path class="g" d="M344.621,352.909a3.1,3.1,0,0,0,1.358.36c.711,0,1.072-.342,1.072-.774,0-.585-.576-.846-1.17-.846h-.559v-.981h.531c.459,0,1.036-.18,1.036-.675,0-.351-.28-.612-.865-.612a2.6,2.6,0,0,0-1.214.351l-.279-.99a3.636,3.636,0,0,1,1.809-.441c1.241,0,1.934.657,1.934,1.458a1.394,1.394,0,0,1-1.071,1.359v.018a1.456,1.456,0,0,1,1.269,1.431c0,1.026-.909,1.782-2.394,1.782a3.56,3.56,0,0,1-1.736-.4Z" transform="translate(-314.522 -277.606)"/><path class="g" d="M358.108,354.25v-.828l.747-.675c1.288-1.152,1.909-1.809,1.917-2.493,0-.477-.279-.855-.954-.855a2.176,2.176,0,0,0-1.251.477l-.386-.972a3.207,3.207,0,0,1,1.908-.6,1.813,1.813,0,0,1,2.051,1.836,3.6,3.6,0,0,1-1.557,2.52l-.54.45v.018h2.214v1.125Z" transform="translate(-314.522 -277.606)"/><path class="g" d="M373.567,349.615h-.017l-1.116.531-.225-1.026,1.557-.72h1.124v5.85h-1.323Z" transform="translate(-314.522 -277.606)"/></svg>