<svg xmlns="http://www.w3.org/2000/svg" viewBox="0 0 226.9 87.035"><defs><style>.a{fill:none;stroke-width:8px;}.a,.b{stroke:#d1d3d4;stroke-linecap:round;}.a,.b,.d{stroke-linejoin:round;}.b{fill:#d1d3d4;}.b,.d{stroke-width:5px;}.c,.d,.e,.h{fill:#fff;}.d{stroke:#fff;}.e,.f,.h{stroke:#231f20;}.f,.g{fill:#231f20;}.h{stroke-width:0.5px;}</style></defs><title>terminal-map-position-3</title><rect class="a" x="43.779" y="37.517" width="138.582" height="25.115"/><rect class="b" x="30.96" y="61.557" width="163.811" height="22.978"/><path class="c" d="M224.479,406.805a4.235,4.235,0,1,1-4.234-4.236A4.234,4.234,0,0,1,224.479,406.805Z" transform="translate(-184.51 -333.1)"/><path class="c" d="M379.053,406.805a4.235,4.235,0,1,1-4.235-4.236A4.235,4.235,0,0,1,379.053,406.805Z" transform="translate(-184.51 -333.1)"/><rect class="d" x="51.024" y="72.402" width="125.819" height="2.604"/><path class="e" d="M350.435,388.515" transform="translate(-184.51 -333.1)"/><path class="e" d="M241.315,388.515" transform="translate(-184.51 -333.1)"/><rect class="f" x="39.966" y="22.678" width="8.06" height="13.817"/><rect class="e" x="51.864" y="22.678" width="8.06" height="13.817"/><rect class="e" x="63.762" y="22.678" width="8.061" height="13.817"/><rect class="f" x="75.66" y="22.678" width="8.061" height="13.817"/><rect class="e" x="87.559" y="22.678" width="8.06" height="13.817"/><rect class="e" x="99.457" y="22.678" width="8.06" height="13.817"/><rect class="e" x="118.355" y="22.678" width="8.061" height="13.817"/><rect class="e" x="130.255" y="22.678" width="8.059" height="13.817"/><rect class="f" x="142.152" y="22.678" width="8.059" height="13.817"/><rect class="e" x="154.05" y="22.678" width="8.06" height="13.817"/><rect class="f" x="39.966" y="47.518" width="8.06" height="13.817"/><rect class="e" x="51.864" y="47.518" width="8.06" height="13.817"/><rect class="e" x="63.762" y="47.518" width="8.061" height="13.817"/><rect class="f" x="75.66" y="47.518" width="8.061" height="13.817"/><rect class="e" x="87.559" y="47.518" width="8.06" height="13.817"/><rect class="e" x="99.457" y="47.518" width="8.06" height="13.817"/><rect class="e" x="118.355" y="47.518" width="8.061" height="13.817"/><rect class="e" x="130.255" y="47.518" width="8.059" height="13.817"/><rect class="f" x="142.152" y="47.518" width="8.059" height="13.817"/><rect class="e" x="154.05" y="47.518" width="8.06" height="13.817"/><rect class="e" x="165.976" y="22.678" width="8.06" height="13.817"/><rect class="e" x="165.976" y="47.518" width="8.06" height="13.817"/><rect class="f" x="177.901" y="22.678" width="8.059" height="13.817"/><rect class="f" x="177.901" y="47.518" width="8.059" height="13.817"/><path class="g" d="M228.184,351.773c-.81,0-1.33-1.02-1.31-2.709,0-1.631.52-2.651,1.32-2.651.92,0,1.32,1.05,1.32,2.651,0,1.659-.43,2.709-1.32,2.709Zm-.02.68c1.42,0,2.25-1.22,2.25-3.43,0-2.07-.79-3.29-2.15-3.29-1.32,0-2.27,1.19-2.27,3.38.02,2.15.89,3.34,2.16,3.34Z" transform="translate(-184.51 -333.1)"/><path class="g" d="M241.914,346.584h-2.48l-.25,1.649a3.46,3.46,0,0,1,.529-.04,2.71,2.71,0,0,1,1.4.351,1.849,1.849,0,0,1,.93,1.689,2.254,2.254,0,0,1-2.42,2.22,3.218,3.218,0,0,1-1.62-.4l.221-.67a2.906,2.906,0,0,0,1.4.36,1.427,1.427,0,0,0,1.53-1.42c0-.86-.57-1.45-1.86-1.45a5.435,5.435,0,0,0-.91.07l.421-3.1h3.11Z" transform="translate(-184.51 -333.1)"/><path class="g" d="M250.573,349.893v-.02l1.59-2.21c.18-.31.34-.59.54-.97h.03q-.03.51-.03,1.02v2.18Zm2.96,2.45v-1.77h.91v-.68h-.91v-4.05h-.95l-2.9,4.16v.57h3.02v1.77Z" transform="translate(-184.51 -333.1)"/><path class="g" d="M262.143,351.343a3.028,3.028,0,0,0,1.44.4c1.12,0,1.48-.71,1.47-1.26-.01-.91-.83-1.3-1.68-1.3h-.49v-.66h.49c.64,0,1.45-.33,1.45-1.1,0-.52-.33-.98-1.14-.98a2.387,2.387,0,0,0-1.3.43l-.24-.64a3.154,3.154,0,0,1,1.71-.5c1.28,0,1.86.76,1.86,1.55a1.629,1.629,0,0,1-1.2,1.54v.02a1.675,1.675,0,0,1,1.45,1.66c0,1.041-.82,1.95-2.37,1.95a3.3,3.3,0,0,1-1.69-.44Z" transform="translate(-184.51 -333.1)"/><path class="g" d="M273.883,352.343v-.54l.69-.67c1.66-1.58,2.42-2.42,2.42-3.4a1.152,1.152,0,0,0-1.28-1.27,2.214,2.214,0,0,0-1.38.55l-.28-.62a2.886,2.886,0,0,1,1.84-.66,1.826,1.826,0,0,1,1.98,1.89c0,1.2-.87,2.171-2.24,3.49l-.51.48v.02h2.91v.73Z" transform="translate(-184.51 -333.1)"/><path class="g" d="M287.743,346.663h-.02l-1.13.61-.171-.67,1.421-.76h.75v6.5h-.85Z" transform="translate(-184.51 -333.1)"/><path class="g" d="M308.662,346.584h-2.48l-.25,1.649a3.475,3.475,0,0,1,.53-.04,2.71,2.71,0,0,1,1.4.351,1.849,1.849,0,0,1,.931,1.689,2.256,2.256,0,0,1-2.421,2.22,3.212,3.212,0,0,1-1.62-.4l.22-.67a2.91,2.91,0,0,0,1.4.36,1.428,1.428,0,0,0,1.53-1.42c0-.86-.57-1.45-1.86-1.45a5.426,5.426,0,0,0-.91.07l.42-3.1h3.11Z" transform="translate(-184.51 -333.1)"/><path class="g" d="M317.322,349.893v-.02l1.59-2.21c.18-.31.34-.59.54-.97h.03q-.03.51-.03,1.02v2.18Zm2.96,2.45v-1.77h.91v-.68h-.91v-4.05h-.95l-2.9,4.16v.57h3.02v1.77Z" transform="translate(-184.51 -333.1)"/><path class="g" d="M328.892,351.343a3.028,3.028,0,0,0,1.44.4c1.12,0,1.479-.71,1.47-1.26-.01-.91-.83-1.3-1.68-1.3h-.49v-.66h.49c.64,0,1.45-.33,1.45-1.1,0-.52-.33-.98-1.14-.98a2.387,2.387,0,0,0-1.3.43l-.24-.64a3.152,3.152,0,0,1,1.71-.5c1.28,0,1.86.76,1.86,1.55a1.629,1.629,0,0,1-1.2,1.54v.02a1.676,1.676,0,0,1,1.45,1.66c0,1.041-.82,1.95-2.37,1.95a3.308,3.308,0,0,1-1.691-.44Z" transform="translate(-184.51 -333.1)"/><path class="g" d="M340.632,352.343v-.54l.689-.67c1.66-1.58,2.42-2.42,2.42-3.4a1.151,1.151,0,0,0-1.279-1.27,2.211,2.211,0,0,0-1.38.55l-.28-.62a2.884,2.884,0,0,1,1.84-.66,1.826,1.826,0,0,1,1.979,1.89c0,1.2-.869,2.171-2.239,3.49l-.511.48v.02h2.91v.73Z" transform="translate(-184.51 -333.1)"/><path class="g" d="M354.491,346.663h-.019l-1.13.61-.171-.67,1.421-.76h.75v6.5h-.851Z" transform="translate(-184.51 -333.1)"/><path class="g" d="M366.631,351.773c-.81,0-1.33-1.02-1.31-2.709,0-1.631.52-2.651,1.32-2.651.92,0,1.32,1.05,1.32,2.651,0,1.659-.43,2.709-1.32,2.709Zm-.02.68c1.42,0,2.25-1.22,2.25-3.43,0-2.07-.79-3.29-2.15-3.29-1.32,0-2.27,1.19-2.27,3.38.02,2.15.89,3.34,2.161,3.34Z" transform="translate(-184.51 -333.1)"/><path class="g" d="M185.38,359.22a4.381,4.381,0,0,1,.82-.07c.96,0,1.59.43,1.59,1.33s-.63,1.43-1.69,1.43a2.971,2.971,0,0,1-.72-.07Zm-.87,6.03h.87v-2.7a3,3,0,0,0,.7.06,2.793,2.793,0,0,0,2.06-.74,1.949,1.949,0,0,0,.53-1.44,1.819,1.819,0,0,0-.6-1.41,2.769,2.769,0,0,0-1.89-.56,8.964,8.964,0,0,0-1.67.14Z" transform="translate(-184.51 -333.1)"/><path class="g" d="M191.541,364.7c-.85,0-1.45-.8-1.45-1.86,0-.92.45-1.88,1.48-1.88s1.45,1.03,1.45,1.85c0,1.1-.63,1.89-1.47,1.89Zm-.01.66a2.372,2.372,0,0,0,2.4-2.58,2.289,2.289,0,0,0-2.33-2.48,2.369,2.369,0,0,0-2.4,2.57,2.307,2.307,0,0,0,2.32,2.49Z" transform="translate(-184.51 -333.1)"/><path class="g" d="M195.041,358.15h.88v7.1h-.88Z" transform="translate(-184.51 -333.1)"/><path class="g" d="M197.891,362.35a1.451,1.451,0,0,1,1.35-1.43,1.256,1.256,0,0,1,1.21,1.43Zm3.38.64a2.264,2.264,0,0,0,.03-.42,2.043,2.043,0,0,0-1.99-2.28,2.36,2.36,0,0,0-2.28,2.62,2.258,2.258,0,0,0,2.38,2.44,3.943,3.943,0,0,0,1.62-.31l-.16-.62a3.337,3.337,0,0,1-1.34.24,1.543,1.543,0,0,1-1.65-1.68Z" transform="translate(-184.51 -333.1)"/><path class="g" d="M205.661,362.7l.19-1.45h1.04l-.19,1.45Zm-.34,2.55.25-1.96h1.04l-.26,1.96h.6l.259-1.96h.951v-.59h-.86l.179-1.45h.911v-.59h-.82l.25-1.91h-.591l-.25,1.91h-1.049l.259-1.91H205.6l-.26,1.91h-.95v.59h.87l-.19,1.45h-.92v.59h.829l-.259,1.96Z" transform="translate(-184.51 -333.1)"/><path class="g" d="M211.11,359.57h-.019l-1.131.61-.17-.67,1.42-.76h.75v6.5h-.85Z" transform="translate(-184.51 -333.1)"/><path class="g" d="M185.38,384.22a4.381,4.381,0,0,1,.82-.07c.96,0,1.59.43,1.59,1.33s-.63,1.43-1.69,1.43a2.971,2.971,0,0,1-.72-.07Zm-.87,6.03h.87v-2.7a3,3,0,0,0,.7.06,2.793,2.793,0,0,0,2.06-.74,1.949,1.949,0,0,0,.53-1.44,1.819,1.819,0,0,0-.6-1.41,2.769,2.769,0,0,0-1.89-.56,8.964,8.964,0,0,0-1.67.14Z" transform="translate(-184.51 -333.1)"/><path class="g" d="M191.541,389.7c-.85,0-1.45-.8-1.45-1.86,0-.92.45-1.88,1.48-1.88s1.45,1.03,1.45,1.85c0,1.1-.63,1.89-1.47,1.89Zm-.01.66a2.372,2.372,0,0,0,2.4-2.58,2.289,2.289,0,0,0-2.33-2.48,2.369,2.369,0,0,0-2.4,2.57,2.307,2.307,0,0,0,2.32,2.49Z" transform="translate(-184.51 -333.1)"/><path class="g" d="M195.041,383.15h.88v7.1h-.88Z" transform="translate(-184.51 -333.1)"/><path class="g" d="M197.891,387.35a1.451,1.451,0,0,1,1.35-1.43,1.256,1.256,0,0,1,1.21,1.43Zm3.38.64a2.264,2.264,0,0,0,.03-.42,2.043,2.043,0,0,0-1.99-2.28,2.36,2.36,0,0,0-2.28,2.62,2.258,2.258,0,0,0,2.38,2.44,3.943,3.943,0,0,0,1.62-.31l-.16-.62a3.337,3.337,0,0,1-1.34.24,1.543,1.543,0,0,1-1.65-1.68Z" transform="translate(-184.51 -333.1)"/><path class="g" d="M205.661,387.7l.19-1.45h1.04l-.19,1.45Zm-.34,2.55.25-1.96h1.04l-.26,1.96h.6l.259-1.96h.951v-.59h-.86l.179-1.45h.911v-.59h-.82l.25-1.91h-.591l-.25,1.91h-1.049l.259-1.91H205.6l-.26,1.91h-.95v.59h.87l-.19,1.45h-.92v.59h.829l-.259,1.96Z" transform="translate(-184.51 -333.1)"/><path class="g" d="M209.411,389.25a3.024,3.024,0,0,0,1.44.4c1.12,0,1.48-.71,1.47-1.26-.011-.91-.83-1.3-1.68-1.3h-.491v-.66h.491c.64,0,1.45-.33,1.45-1.1,0-.52-.33-.98-1.14-.98a2.394,2.394,0,0,0-1.3.43l-.239-.64a3.152,3.152,0,0,1,1.71-.5c1.279,0,1.859.76,1.859,1.55a1.628,1.628,0,0,1-1.2,1.54v.02a1.674,1.674,0,0,1,1.449,1.66c0,1.04-.819,1.95-2.37,1.95a3.307,3.307,0,0,1-1.69-.44Z" transform="translate(-184.51 -333.1)"/><path class="g" d="M383.13,359.22a4.381,4.381,0,0,1,.82-.07c.96,0,1.59.43,1.59,1.33s-.63,1.43-1.69,1.43a2.971,2.971,0,0,1-.72-.07Zm-.87,6.03h.87v-2.7a3,3,0,0,0,.7.06,2.793,2.793,0,0,0,2.06-.74,1.949,1.949,0,0,0,.53-1.44,1.819,1.819,0,0,0-.6-1.41,2.769,2.769,0,0,0-1.89-.56,8.964,8.964,0,0,0-1.67.14Z" transform="translate(-184.51 -333.1)"/><path class="g" d="M389.291,364.7c-.85,0-1.45-.8-1.45-1.86,0-.92.45-1.88,1.48-1.88s1.449,1.03,1.449,1.85c0,1.1-.629,1.89-1.469,1.89Zm-.01.66a2.372,2.372,0,0,0,2.4-2.58,2.289,2.289,0,0,0-2.33-2.48,2.368,2.368,0,0,0-2.4,2.57,2.306,2.306,0,0,0,2.319,2.49Z" transform="translate(-184.51 -333.1)"/><path class="g" d="M392.791,358.15h.88v7.1h-.88Z" transform="translate(-184.51 -333.1)"/><path class="g" d="M395.641,362.35a1.451,1.451,0,0,1,1.35-1.43,1.256,1.256,0,0,1,1.21,1.43Zm3.379.64a2.166,2.166,0,0,0,.031-.42,2.043,2.043,0,0,0-1.991-2.28,2.36,2.36,0,0,0-2.279,2.62,2.258,2.258,0,0,0,2.38,2.44,3.943,3.943,0,0,0,1.62-.31l-.16-.62a3.337,3.337,0,0,1-1.34.24,1.542,1.542,0,0,1-1.65-1.68Z" transform="translate(-184.51 -333.1)"/><path class="g" d="M403.411,362.7l.19-1.45h1.04l-.191,1.45Zm-.341,2.55.25-1.96h1.04l-.259,1.96h.6l.261-1.96h.95v-.59h-.86l.179-1.45h.911v-.59h-.821l.25-1.91h-.59l-.25,1.91h-1.049l.259-1.91h-.589l-.26,1.91h-.95v.59h.87l-.191,1.45h-.92v.59h.83l-.259,1.96Z" transform="translate(-184.51 -333.1)"/><path class="g" d="M406.95,365.25v-.54l.691-.67c1.66-1.58,2.419-2.42,2.419-3.4a1.151,1.151,0,0,0-1.28-1.27,2.214,2.214,0,0,0-1.38.55l-.279-.62a2.884,2.884,0,0,1,1.84-.66,1.825,1.825,0,0,1,1.979,1.89c0,1.2-.87,2.17-2.24,3.49l-.51.48v.02H411.1v.73Z" transform="translate(-184.51 -333.1)"/><path class="g" d="M383.13,384.22a4.381,4.381,0,0,1,.82-.07c.96,0,1.59.43,1.59,1.33s-.63,1.43-1.69,1.43a2.971,2.971,0,0,1-.72-.07Zm-.87,6.03h.87v-2.7a3,3,0,0,0,.7.06,2.793,2.793,0,0,0,2.06-.74,1.949,1.949,0,0,0,.53-1.44,1.819,1.819,0,0,0-.6-1.41,2.769,2.769,0,0,0-1.89-.56,8.964,8.964,0,0,0-1.67.14Z" transform="translate(-184.51 -333.1)"/><path class="g" d="M389.291,389.7c-.85,0-1.45-.8-1.45-1.86,0-.92.45-1.88,1.48-1.88s1.449,1.03,1.449,1.85c0,1.1-.629,1.89-1.469,1.89Zm-.01.66a2.372,2.372,0,0,0,2.4-2.58,2.289,2.289,0,0,0-2.33-2.48,2.368,2.368,0,0,0-2.4,2.57,2.306,2.306,0,0,0,2.319,2.49Z" transform="translate(-184.51 -333.1)"/><path class="g" d="M392.791,383.15h.88v7.1h-.88Z" transform="translate(-184.51 -333.1)"/><path class="g" d="M395.641,387.35a1.451,1.451,0,0,1,1.35-1.43,1.256,1.256,0,0,1,1.21,1.43Zm3.379.64a2.166,2.166,0,0,0,.031-.42,2.043,2.043,0,0,0-1.991-2.28,2.36,2.36,0,0,0-2.279,2.62,2.258,2.258,0,0,0,2.38,2.44,3.943,3.943,0,0,0,1.62-.31l-.16-.62a3.337,3.337,0,0,1-1.34.24,1.542,1.542,0,0,1-1.65-1.68Z" transform="translate(-184.51 -333.1)"/><path class="g" d="M403.411,387.7l.19-1.45h1.04l-.191,1.45Zm-.341,2.55.25-1.96h1.04l-.259,1.96h.6l.261-1.96h.95v-.59h-.86l.179-1.45h.911v-.59h-.821l.25-1.91h-.59l-.25,1.91h-1.049l.259-1.91h-.589l-.26,1.91h-.95v.59h.87l-.191,1.45h-.92v.59h.83l-.259,1.96Z" transform="translate(-184.51 -333.1)"/><path class="g" d="M407.541,387.8v-.02l1.59-2.21c.179-.31.34-.59.54-.97h.029q-.029.51-.029,1.02v2.18Zm2.96,2.45v-1.77h.909v-.68H410.5v-4.05h-.95l-2.9,4.16v.57h3.021v1.77Z" transform="translate(-184.51 -333.1)"/><path class="g" d="M273.17,334.67a2.762,2.762,0,0,1,.63-.05c.77,0,1.19.37,1.19.99,0,.68-.5,1.09-1.31,1.09a2.33,2.33,0,0,1-.51-.04Zm-1.51,5.58h1.51v-2.42a2.616,2.616,0,0,0,.52.04,3.2,3.2,0,0,0,2.2-.71,2.117,2.117,0,0,0,.61-1.6,1.928,1.928,0,0,0-.71-1.55,3.2,3.2,0,0,0-2.07-.55,12.476,12.476,0,0,0-2.06.14Z" transform="translate(-184.51 -333.1)"/><path class="g" d="M279.441,339.27c-.64,0-.99-.63-.99-1.46,0-.73.28-1.47,1-1.47.69,0,.97.74.97,1.46,0,.88-.37,1.47-.97,1.47Zm-.01,1.09a2.448,2.448,0,0,0,2.57-2.6,2.378,2.378,0,0,0-2.49-2.51,2.444,2.444,0,0,0-2.62,2.59,2.4,2.4,0,0,0,2.53,2.52Z" transform="translate(-184.51 -333.1)"/><path class="g" d="M282.931,338.93a2.971,2.971,0,0,0,1.31.36c.46,0,.65-.15.65-.4s-.15-.38-.71-.57c-1.02-.33-1.41-.89-1.4-1.46,0-.92.78-1.61,1.99-1.61a3.214,3.214,0,0,1,1.37.29l-.26,1.04a2.6,2.6,0,0,0-1.06-.27c-.37,0-.58.15-.58.39s.19.36.79.57c.93.31,1.31.79,1.32,1.5,0,.92-.71,1.59-2.11,1.59a3.454,3.454,0,0,1-1.58-.35Z" transform="translate(-184.51 -333.1)"/><path class="g" d="M287.281,340.25v-4.89h1.52v4.89Zm.75-5.53a.867.867,0,1,1,.01,0Z" transform="translate(-184.51 -333.1)"/><path class="g" d="M291.721,334.03v1.33h1.089v1.12h-1.089v1.78c0,.59.15.86.6.86a1.855,1.855,0,0,0,.449-.04l.011,1.15a3.2,3.2,0,0,1-.98.13,1.625,1.625,0,0,1-1.151-.42,2.031,2.031,0,0,1-.42-1.45v-2.01h-.649v-1.12h.649v-.92Z" transform="translate(-184.51 -333.1)"/><path class="g" d="M293.69,340.25v-4.89h1.52v4.89Zm.75-5.53a.866.866,0,1,1,.011,0Z" transform="translate(-184.51 -333.1)"/><path class="g" d="M298.7,339.27c-.64,0-.99-.63-.99-1.46,0-.73.28-1.47,1-1.47.69,0,.97.74.97,1.46,0,.88-.37,1.47-.97,1.47Zm-.01,1.09a2.448,2.448,0,0,0,2.57-2.6,2.378,2.378,0,0,0-2.49-2.51,2.444,2.444,0,0,0-2.62,2.59,2.4,2.4,0,0,0,2.53,2.52Z" transform="translate(-184.51 -333.1)"/><path class="g" d="M302.2,336.92c0-.61-.02-1.12-.04-1.56h1.32l.07.68h.031a1.753,1.753,0,0,1,1.509-.79c1,0,1.75.67,1.75,2.11v2.89h-1.52v-2.71c0-.63-.219-1.06-.77-1.06a.835.835,0,0,0-.78.57,1.1,1.1,0,0,0-.05.38v2.82H302.2Z" transform="translate(-184.51 -333.1)"/><path class="g" d="M310.16,338.76a3.449,3.449,0,0,0,1.51.4c.79,0,1.19-.38,1.19-.86,0-.65-.639-.94-1.3-.94h-.62v-1.09h.59c.51,0,1.151-.2,1.151-.75,0-.39-.311-.68-.96-.68a2.885,2.885,0,0,0-1.351.39l-.31-1.1a4.047,4.047,0,0,1,2.01-.49c1.38,0,2.151.73,2.151,1.62a1.55,1.55,0,0,1-1.191,1.51v.02a1.617,1.617,0,0,1,1.41,1.59c0,1.14-1.009,1.98-2.66,1.98a3.953,3.953,0,0,1-1.929-.45Z" transform="translate(-184.51 -333.1)"/><path class="h" d="M227.5,366.75V373a1,1,0,0,0,1,1h36a1,1,0,0,0,1-1v-6.216a1,1,0,0,0-2,0V372h-34v-5.25a1,1,0,0,0-2,0Z" transform="translate(-184.51 -333.1)"/><path class="h" d="M227.5,391.5v6.25a1,1,0,0,0,1,1h36a1,1,0,0,0,1-1v-6.216a1,1,0,0,0-2,0v5.216h-34V391.5a1,1,0,0,0-2,0Z" transform="translate(-184.51 -333.1)"/><path class="h" d="M330.25,391.5v6.25a1,1,0,0,0,1,1h35a1,1,0,0,0,1-1v-6.216a1,1,0,0,0-2,0v5.216h-33V391.5a1,1,0,0,0-2,0Z" transform="translate(-184.51 -333.1)"/><path class="h" d="M330.25,366.75V373a1,1,0,0,0,1,1h35a1,1,0,0,0,1-1v-6.216a1,1,0,0,0-2,0V372h-33v-5.25a1,1,0,0,0-2,0Z" transform="translate(-184.51 -333.1)"/></svg>