<svg xmlns="http://www.w3.org/2000/svg" viewBox="0 0 241.804 103.885"><defs><style>.a{fill:none;stroke-linecap:round;stroke-linejoin:round;}.a,.b{stroke:#231f20;}.b,.d{fill:#231f20;}.c{fill:#fff;}</style></defs><title>I-3200-super-switch-coil</title><line class="a" x1="86.034" y1="4.205" x2="86.034" y2="103.176"/><path class="a" d="M341.5,230.964" transform="translate(-254.535 -226.76)"/><path class="a" d="M341.5,329.936" transform="translate(-254.535 -226.76)"/><path class="a" d="M394.66,329.936" transform="translate(-254.535 -226.76)"/><path class="a" d="M394.66,230.964" transform="translate(-254.535 -226.76)"/><line class="a" x1="137.322" y1="103.176" x2="137.322" y2="4.205"/><path class="a" d="M447.817,329.936" transform="translate(-254.535 -226.76)"/><path class="a" d="M447.817,230.964" transform="translate(-254.535 -226.76)"/><line class="a" x1="189.547" y1="103.176" x2="189.547" y2="4.205"/><rect class="b" x="0.5" y="0.5" width="240.804" height="20.553"/><rect class="a" x="1.434" y="21.053" width="239.87" height="20.555"/><rect class="a" x="1.434" y="41.607" width="239.87" height="20.554"/><rect class="a" x="1.434" y="62.162" width="239.87" height="20.553"/><rect class="a" x="1.434" y="82.83" width="239.87" height="20.555"/><rect class="b" x="0.5" y="17.005" width="33.311" height="86.362"/><path class="c" d="M298.867,240.775a3.746,3.746,0,0,1-1.446.244,2.7,2.7,0,0,1-2.968-2.85,2.883,2.883,0,0,1,3.094-3,3.351,3.351,0,0,1,1.395.252l-.269,1.009a2.7,2.7,0,0,0-1.076-.21,1.868,1.868,0,0,0,.009,3.733,3.061,3.061,0,0,0,1.076-.184Z" transform="translate(-254.535 -226.76)"/><path class="c" d="M300.632,240.927l-1.345-5.667h1.37l.429,2.329c.126.681.244,1.413.336,1.993h.017c.093-.623.227-1.3.37-2.01l.479-2.312h1.362l.454,2.388c.126.664.219,1.269.3,1.9h.016c.084-.631.211-1.3.328-1.976l.463-2.312h1.3l-1.463,5.667h-1.387l-.48-2.439c-.109-.571-.2-1.1-.269-1.749H302.9c-.1.639-.194,1.178-.328,1.749l-.538,2.439Z" transform="translate(-254.535 -226.76)"/><path class="c" d="M309.081,238.3v.849h-2.2V238.3Z" transform="translate(-254.535 -226.76)"/><path class="c" d="M309.888,240.927V235.26h1.5l1.177,2.076a18.1,18.1,0,0,1,.925,1.943h.016a23.594,23.594,0,0,1-.1-2.371V235.26h1.178v5.667h-1.346l-1.21-2.186a19.875,19.875,0,0,1-.984-2h-.033c.042.757.058,1.556.058,2.481v1.707Z" transform="translate(-254.535 -226.76)"/><path class="c" d="M351.075,240.775a3.746,3.746,0,0,1-1.446.244,2.7,2.7,0,0,1-2.967-2.85,2.882,2.882,0,0,1,3.093-3,3.356,3.356,0,0,1,1.4.252l-.269,1.009a2.7,2.7,0,0,0-1.076-.21,1.868,1.868,0,0,0,.008,3.733,3.067,3.067,0,0,0,1.077-.184Z" transform="translate(-254.535 -226.76)"/><path class="c" d="M352.841,240.927,351.5,235.26h1.37l.428,2.329c.127.681.245,1.413.337,1.993h.016c.093-.623.227-1.3.371-2.01l.479-2.312h1.361l.454,2.388c.126.664.219,1.269.3,1.9h.017c.084-.631.21-1.3.328-1.976l.462-2.312h1.3l-1.462,5.667h-1.388l-.479-2.439c-.109-.571-.2-1.1-.269-1.749h-.017c-.1.639-.193,1.178-.327,1.749l-.538,2.439Z" transform="translate(-254.535 -226.76)"/><path class="c" d="M361.289,238.3v.849h-2.2V238.3Z" transform="translate(-254.535 -226.76)"/><path class="c" d="M362.138,239.615a3.237,3.237,0,0,0,1.421.353c.588,0,.9-.243.9-.622,0-.344-.269-.555-.95-.79-.941-.337-1.563-.858-1.563-1.69,0-.968.815-1.7,2.143-1.7a3.315,3.315,0,0,1,1.447.286l-.287,1.026a2.649,2.649,0,0,0-1.176-.269c-.555,0-.824.26-.824.546,0,.362.311.521,1.051.808,1,.37,1.463.891,1.463,1.7,0,.95-.723,1.757-2.279,1.757a3.694,3.694,0,0,1-1.606-.353Z" transform="translate(-254.535 -226.76)"/><path class="c" d="M454.863,240.775a3.746,3.746,0,0,1-1.446.244,2.7,2.7,0,0,1-2.968-2.85,2.883,2.883,0,0,1,3.094-3,3.347,3.347,0,0,1,1.395.252l-.268,1.009a2.706,2.706,0,0,0-1.076-.21,1.868,1.868,0,0,0,.008,3.733,3.057,3.057,0,0,0,1.076-.184Z" transform="translate(-254.535 -226.76)"/><path class="c" d="M459.606,240.775a3.746,3.746,0,0,1-1.446.244,2.7,2.7,0,0,1-2.968-2.85,2.883,2.883,0,0,1,3.094-3,3.356,3.356,0,0,1,1.4.252l-.269,1.009a2.706,2.706,0,0,0-1.076-.21,1.868,1.868,0,0,0,.009,3.733,3.055,3.055,0,0,0,1.075-.184Z" transform="translate(-254.535 -226.76)"/><path class="c" d="M461.371,240.927l-1.345-5.667h1.37l.429,2.329c.126.681.244,1.413.337,1.993h.017c.092-.623.226-1.3.37-2.01l.478-2.312h1.363l.454,2.388c.126.664.218,1.269.3,1.9h.017c.084-.631.21-1.3.328-1.976l.462-2.312h1.3l-1.463,5.667h-1.387l-.479-2.439c-.109-.571-.2-1.1-.269-1.749h-.016c-.1.639-.194,1.178-.329,1.749l-.538,2.439Z" transform="translate(-254.535 -226.76)"/><path class="c" d="M469.82,238.3v.849h-2.2V238.3Z" transform="translate(-254.535 -226.76)"/><path class="c" d="M470.669,239.615a3.233,3.233,0,0,0,1.421.353c.589,0,.9-.243.9-.622,0-.344-.268-.555-.95-.79-.941-.337-1.563-.858-1.563-1.69,0-.968.815-1.7,2.143-1.7a3.307,3.307,0,0,1,1.446.286l-.286,1.026a2.654,2.654,0,0,0-1.177-.269c-.554,0-.823.26-.823.546,0,.362.311.521,1.051.808,1,.37,1.462.891,1.462,1.7,0,.95-.723,1.757-2.277,1.757a3.692,3.692,0,0,1-1.607-.353Z" transform="translate(-254.535 -226.76)"/><path class="c" d="M264.484,322.807a3.779,3.779,0,0,1-1.446.243,2.7,2.7,0,0,1-2.968-2.851,2.883,2.883,0,0,1,3.094-3,3.33,3.33,0,0,1,1.4.253l-.269,1.009a2.7,2.7,0,0,0-1.076-.21,1.868,1.868,0,0,0,.008,3.733,3.047,3.047,0,0,0,1.076-.185Z" transform="translate(-254.535 -226.76)"/><path class="c" d="M269.227,322.807a3.779,3.779,0,0,1-1.446.243,2.7,2.7,0,0,1-2.968-2.851,2.883,2.883,0,0,1,3.094-3,3.327,3.327,0,0,1,1.4.253l-.268,1.009a2.712,2.712,0,0,0-1.077-.21,1.868,1.868,0,0,0,.009,3.733,3.045,3.045,0,0,0,1.075-.185Z" transform="translate(-254.535 -226.76)"/><path class="c" d="M270.992,322.957l-1.345-5.666h1.37l.429,2.328c.126.682.244,1.413.337,1.993h.016c.093-.622.227-1.3.37-2.009l.479-2.312h1.362l.454,2.387c.126.664.219,1.269.3,1.9h.017c.084-.631.21-1.295.328-1.975l.462-2.312h1.3l-1.462,5.666h-1.387l-.48-2.437c-.108-.573-.2-1.1-.268-1.75h-.017c-.1.639-.193,1.177-.328,1.75l-.538,2.437Z" transform="translate(-254.535 -226.76)"/><path class="c" d="M279.441,320.326v.849h-2.2v-.849Z" transform="translate(-254.535 -226.76)"/><path class="c" d="M280.29,321.647a3.257,3.257,0,0,0,1.42.352c.589,0,.9-.243.9-.622,0-.345-.269-.555-.95-.791-.942-.336-1.564-.857-1.564-1.689,0-.967.816-1.7,2.144-1.7a3.309,3.309,0,0,1,1.446.287l-.286,1.026a2.638,2.638,0,0,0-1.177-.27c-.555,0-.823.261-.823.547,0,.361.31.522,1.051.807,1,.371,1.462.891,1.462,1.7,0,.949-.723,1.757-2.278,1.757a3.7,3.7,0,0,1-1.606-.353Z" transform="translate(-254.535 -226.76)"/><path class="c" d="M264.474,261.329a3.746,3.746,0,0,1-1.446.244,2.7,2.7,0,0,1-2.968-2.85,2.883,2.883,0,0,1,3.094-3,3.351,3.351,0,0,1,1.395.252l-.269,1.009a2.7,2.7,0,0,0-1.075-.21,1.868,1.868,0,0,0,.008,3.733,3.037,3.037,0,0,0,1.076-.185Z" transform="translate(-254.535 -226.76)"/><path class="c" d="M266.239,261.481l-1.345-5.667h1.37l.429,2.329c.126.681.244,1.412.336,1.992h.017c.093-.622.227-1.3.37-2.009l.479-2.312h1.362l.454,2.387c.126.665.219,1.27.3,1.9h.016c.085-.631.211-1.295.328-1.976l.463-2.312h1.3l-1.462,5.667h-1.387l-.479-2.439c-.11-.571-.2-1.1-.269-1.748h-.017c-.1.638-.194,1.177-.328,1.748l-.538,2.439Z" transform="translate(-254.535 -226.76)"/><path class="c" d="M274.687,258.849v.849h-2.2v-.849Z" transform="translate(-254.535 -226.76)"/><path class="c" d="M275.5,261.481v-5.667h1.5l1.177,2.076a17.923,17.923,0,0,1,.925,1.943h.016a23.6,23.6,0,0,1-.1-2.372v-1.647h1.176v5.667H278.84l-1.21-2.187a19.841,19.841,0,0,1-.984-2h-.033c.042.756.058,1.555.058,2.48v1.707Z" transform="translate(-254.535 -226.76)"/><path class="d" d="M292.133,255.814v5.667h-.74v-5.667Z" transform="translate(-254.535 -226.76)"/><path class="d" d="M293.386,258.513c0-.429-.009-.765-.034-1.1h.656l.042.664h.016a1.51,1.51,0,0,1,1.346-.757c.563,0,1.437.337,1.437,1.733v2.43h-.74v-2.346c0-.656-.243-1.211-.941-1.211a1.066,1.066,0,0,0-.992.757,1.086,1.086,0,0,0-.051.344v2.456h-.739Z" transform="translate(-254.535 -226.76)"/><path class="d" d="M297.69,258.941v.539h2.076v-.539Z" transform="translate(-254.535 -226.76)"/><path class="d" d="M301.372,259.118a1.983,1.983,0,0,1,.042-.3,1.181,1.181,0,0,1,1.126-.908c.782,0,1.2.7,1.2,1.513,0,.934-.454,1.573-1.236,1.573a1.133,1.133,0,0,1-1.1-.866,1.209,1.209,0,0,1-.033-.3Zm-.74,4.028h.74v-2.212h.017a1.414,1.414,0,0,0,1.252.639,1.931,1.931,0,0,0,1.85-2.186,1.845,1.845,0,0,0-1.732-2.069,1.573,1.573,0,0,0-1.438.791h-.016l-.042-.7H300.6c.024.387.033.807.033,1.329Z" transform="translate(-254.535 -226.76)"/><path class="d" d="M305.415,255.511h.74v2.539h.017a1.323,1.323,0,0,1,.53-.521,1.434,1.434,0,0,1,.756-.211c.546,0,1.421.337,1.421,1.741v2.422h-.74v-2.338c0-.664-.244-1.211-.941-1.211a1.071,1.071,0,0,0-.992.74.9.9,0,0,0-.051.353v2.456h-.74Z" transform="translate(-254.535 -226.76)"/><path class="d" d="M312.225,260.11a.77.77,0,0,1-.034.236,1.028,1.028,0,0,1-1,.68.648.648,0,0,1-.689-.706c0-.79.916-.933,1.724-.916Zm.723-1.127c0-.815-.3-1.665-1.555-1.665a2.629,2.629,0,0,0-1.346.354l.168.5a1.965,1.965,0,0,1,1.068-.3.836.836,0,0,1,.925.942v.084c-1.572-.009-2.446.529-2.446,1.513a1.159,1.159,0,0,0,1.244,1.169,1.5,1.5,0,0,0,1.244-.6h.025l.067.513h.664a6.859,6.859,0,0,1-.058-.976Z" transform="translate(-254.535 -226.76)"/><path class="d" d="M314.032,260.732a2.082,2.082,0,0,0,.984.286c.529,0,.781-.261.781-.6s-.21-.547-.748-.748c-.739-.269-1.084-.665-1.084-1.152a1.26,1.26,0,0,1,1.4-1.195,1.888,1.888,0,0,1,.992.253l-.177.53a1.66,1.66,0,0,0-.832-.236c-.437,0-.673.252-.673.555,0,.345.236.5.765.7.7.26,1.068.614,1.068,1.228,0,.723-.563,1.227-1.513,1.227a2.315,2.315,0,0,1-1.144-.286Z" transform="translate(-254.535 -226.76)"/><path class="d" d="M317.891,259.042a1.219,1.219,0,0,1,1.134-1.2,1.056,1.056,0,0,1,1.018,1.2Zm2.841.539a1.911,1.911,0,0,0,.025-.354,1.717,1.717,0,0,0-1.673-1.917,1.984,1.984,0,0,0-1.916,2.2,1.9,1.9,0,0,0,2,2.052,3.308,3.308,0,0,0,1.362-.261l-.134-.521a2.814,2.814,0,0,1-1.127.2,1.3,1.3,0,0,1-1.387-1.412Z" transform="translate(-254.535 -226.76)"/><path class="d" d="M345.847,260.976c-1.152,0-1.808-1.1-1.808-2.3,0-1.228.605-2.363,1.824-2.363s1.808,1.177,1.808,2.3c0,1.286-.656,2.354-1.816,2.354Zm-.017.6c1.437,0,2.623-1.043,2.623-2.985a2.582,2.582,0,0,0-2.556-2.867,2.686,2.686,0,0,0-2.623,2.976,2.593,2.593,0,0,0,2.547,2.876Z" transform="translate(-254.535 -226.76)"/><path class="d" d="M352.782,260.371c0,.42.008.79.033,1.11h-.655l-.042-.665H352.1a1.518,1.518,0,0,1-1.345.757c-.639,0-1.4-.362-1.4-1.782v-2.38h.74v2.245c0,.774.243,1.3.907,1.3a1.064,1.064,0,0,0,.976-.682,1.014,1.014,0,0,0,.067-.378v-2.489h.74Z" transform="translate(-254.535 -226.76)"/><path class="d" d="M354.9,256.436v.975h1.059v.564H354.9v2.194c0,.5.143.791.555.791a1.4,1.4,0,0,0,.429-.051l.033.563a1.991,1.991,0,0,1-.655.1,1.054,1.054,0,0,1-.8-.311,1.6,1.6,0,0,1-.286-1.068v-2.219h-.63v-.564h.63v-.748Z" transform="translate(-254.535 -226.76)"/><path class="d" d="M356.43,258.941v.539h2.077v-.539Z" transform="translate(-254.535 -226.76)"/><path class="d" d="M361.045,261.018c-.714,0-1.218-.672-1.218-1.564,0-.773.378-1.58,1.244-1.58s1.219.866,1.219,1.555c0,.925-.53,1.589-1.236,1.589Zm-.008.555a1.994,1.994,0,0,0,2.018-2.169,1.925,1.925,0,0,0-1.959-2.086,1.992,1.992,0,0,0-2.018,2.162,1.939,1.939,0,0,0,1.951,2.093Z" transform="translate(-254.535 -226.76)"/><path class="d" d="M364.055,261.481v-3.506h-.563v-.564h.563v-.193a1.921,1.921,0,0,1,.479-1.421,1.406,1.406,0,0,1,.984-.378,1.675,1.675,0,0,1,.63.117l-.092.572a1.14,1.14,0,0,0-.479-.093c-.622,0-.79.555-.79,1.177v.219h.983v.564H364.8v3.506Z" transform="translate(-254.535 -226.76)"/><path class="d" d="M368.157,258.941v.539h-2.076v-.539Z" transform="translate(-254.535 -226.76)"/><path class="d" d="M369.763,259.118a1.983,1.983,0,0,1,.042-.3,1.182,1.182,0,0,1,1.127-.908c.781,0,1.2.7,1.2,1.513,0,.934-.454,1.573-1.236,1.573a1.132,1.132,0,0,1-1.1-.866,1.164,1.164,0,0,1-.034-.3Zm-.74,4.028h.74v-2.212h.017a1.414,1.414,0,0,0,1.252.639,1.931,1.931,0,0,0,1.85-2.186,1.845,1.845,0,0,0-1.732-2.069,1.574,1.574,0,0,0-1.438.791H369.7l-.042-.7h-.664c.025.387.033.807.033,1.329Z" transform="translate(-254.535 -226.76)"/><path class="d" d="M373.807,255.511h.739v2.539h.017a1.323,1.323,0,0,1,.53-.521,1.435,1.435,0,0,1,.757-.211c.546,0,1.42.337,1.42,1.741v2.422h-.74v-2.338c0-.664-.243-1.211-.941-1.211a1.071,1.071,0,0,0-.992.74.9.9,0,0,0-.051.353v2.456h-.739Z" transform="translate(-254.535 -226.76)"/><path class="d" d="M380.616,260.11a.77.77,0,0,1-.034.236,1.027,1.027,0,0,1-1,.68.648.648,0,0,1-.689-.706c0-.79.916-.933,1.723-.916Zm.723-1.127c0-.815-.3-1.665-1.555-1.665a2.632,2.632,0,0,0-1.346.354l.168.5a1.97,1.97,0,0,1,1.068-.3.836.836,0,0,1,.925.942v.084c-1.572-.009-2.446.529-2.446,1.513a1.159,1.159,0,0,0,1.244,1.169,1.5,1.5,0,0,0,1.244-.6h.025l.067.513h.664a6.859,6.859,0,0,1-.058-.976Z" transform="translate(-254.535 -226.76)"/><path class="d" d="M382.423,260.732a2.086,2.086,0,0,0,.984.286c.529,0,.781-.261.781-.6s-.21-.547-.748-.748c-.739-.269-1.084-.665-1.084-1.152a1.26,1.26,0,0,1,1.4-1.195,1.888,1.888,0,0,1,.992.253l-.177.53a1.657,1.657,0,0,0-.832-.236c-.437,0-.672.252-.672.555,0,.345.235.5.764.7.7.26,1.068.614,1.068,1.228,0,.723-.563,1.227-1.513,1.227a2.308,2.308,0,0,1-1.143-.286Z" transform="translate(-254.535 -226.76)"/><path class="d" d="M386.282,259.042a1.219,1.219,0,0,1,1.135-1.2,1.056,1.056,0,0,1,1.017,1.2Zm2.841.539a1.911,1.911,0,0,0,.025-.354,1.717,1.717,0,0,0-1.672-1.917,1.984,1.984,0,0,0-1.917,2.2,1.9,1.9,0,0,0,2,2.052,3.3,3.3,0,0,0,1.361-.261l-.134-.521a2.812,2.812,0,0,1-1.126.2,1.3,1.3,0,0,1-1.388-1.412Z" transform="translate(-254.535 -226.76)"/><path class="d" d="M397.521,260.976c-1.151,0-1.807-1.1-1.807-2.3,0-1.228.605-2.363,1.824-2.363s1.808,1.177,1.808,2.3c0,1.286-.657,2.354-1.817,2.354Zm-.016.6c1.437,0,2.622-1.043,2.622-2.985a2.581,2.581,0,0,0-2.555-2.867,2.686,2.686,0,0,0-2.623,2.976,2.593,2.593,0,0,0,2.547,2.876Z" transform="translate(-254.535 -226.76)"/><path class="d" d="M404.457,260.371c0,.42.008.79.033,1.11h-.655l-.042-.665h-.017a1.518,1.518,0,0,1-1.345.757c-.639,0-1.4-.362-1.4-1.782v-2.38h.74v2.245c0,.774.244,1.3.908,1.3a1.06,1.06,0,0,0,.974-.682,1.013,1.013,0,0,0,.068-.378v-2.489h.74Z" transform="translate(-254.535 -226.76)"/><path class="d" d="M406.575,256.436v.975h1.06v.564h-1.06v2.194c0,.5.143.791.555.791a1.4,1.4,0,0,0,.429-.051l.034.563a2.01,2.01,0,0,1-.657.1,1.051,1.051,0,0,1-.8-.311,1.589,1.589,0,0,1-.286-1.068v-2.219h-.63v-.564h.63v-.748Z" transform="translate(-254.535 -226.76)"/><path class="d" d="M410.182,258.941v.539h-2.077v-.539Z" transform="translate(-254.535 -226.76)"/><path class="d" d="M412.721,261.018c-.715,0-1.219-.672-1.219-1.564,0-.773.378-1.58,1.244-1.58s1.219.866,1.219,1.555c0,.925-.53,1.589-1.237,1.589Zm-.009.555a1.993,1.993,0,0,0,2.017-2.169,1.925,1.925,0,0,0-1.959-2.086,1.992,1.992,0,0,0-2.017,2.162,1.939,1.939,0,0,0,1.951,2.093Z" transform="translate(-254.535 -226.76)"/><path class="d" d="M415.73,261.481v-3.506h-.563v-.564h.563v-.193a1.921,1.921,0,0,1,.479-1.421,1.4,1.4,0,0,1,.983-.378,1.673,1.673,0,0,1,.631.117l-.093.572a1.132,1.132,0,0,0-.478-.093c-.622,0-.791.555-.791,1.177v.219h.984v.564h-.975v3.506Z" transform="translate(-254.535 -226.76)"/><path class="d" d="M419.832,258.941v.539h-2.076v-.539Z" transform="translate(-254.535 -226.76)"/><path class="d" d="M421.437,259.118a1.989,1.989,0,0,1,.043-.3,1.181,1.181,0,0,1,1.126-.908c.783,0,1.2.7,1.2,1.513,0,.934-.455,1.573-1.236,1.573a1.132,1.132,0,0,1-1.1-.866,1.164,1.164,0,0,1-.035-.3Zm-.739,4.028h.739v-2.212h.018a1.414,1.414,0,0,0,1.252.639,1.931,1.931,0,0,0,1.85-2.186,1.845,1.845,0,0,0-1.732-2.069,1.57,1.57,0,0,0-1.437.791h-.017l-.042-.7h-.664c.024.387.033.807.033,1.329Z" transform="translate(-254.535 -226.76)"/><path class="d" d="M425.481,261.481h.741v-2.456a.9.9,0,0,1,.049-.353,1.074,1.074,0,0,1,.993-.74c.7,0,.941.547.941,1.211v2.338h.74v-2.422c0-1.4-.875-1.741-1.421-1.741a1.434,1.434,0,0,0-.756.211,1.317,1.317,0,0,0-.53.521h-.016v-2.539h-.741Z" transform="translate(-254.535 -226.76)"/><path class="d" d="M432.291,260.11a.77.77,0,0,1-.034.236,1.026,1.026,0,0,1-1,.68.648.648,0,0,1-.69-.706c0-.79.916-.933,1.724-.916Zm.723-1.127c0-.815-.3-1.665-1.555-1.665a2.629,2.629,0,0,0-1.346.354l.168.5a1.968,1.968,0,0,1,1.069-.3.835.835,0,0,1,.924.942v.084c-1.572-.009-2.446.529-2.446,1.513a1.159,1.159,0,0,0,1.244,1.169,1.5,1.5,0,0,0,1.244-.6h.025l.067.513h.664a6.859,6.859,0,0,1-.058-.976Z" transform="translate(-254.535 -226.76)"/><path class="d" d="M434.1,260.732a2.078,2.078,0,0,0,.983.286c.529,0,.781-.261.781-.6s-.21-.547-.748-.748c-.739-.269-1.084-.665-1.084-1.152a1.26,1.26,0,0,1,1.4-1.195,1.888,1.888,0,0,1,.992.253l-.177.53a1.657,1.657,0,0,0-.832-.236c-.438,0-.673.252-.673.555,0,.345.235.5.766.7.7.26,1.067.614,1.067,1.228,0,.723-.563,1.227-1.513,1.227a2.305,2.305,0,0,1-1.143-.286Z" transform="translate(-254.535 -226.76)"/><path class="d" d="M437.957,259.042a1.219,1.219,0,0,1,1.135-1.2,1.056,1.056,0,0,1,1.017,1.2Zm2.841.539a1.911,1.911,0,0,0,.025-.354,1.718,1.718,0,0,0-1.673-1.917,1.985,1.985,0,0,0-1.917,2.2,1.9,1.9,0,0,0,2,2.052,3.313,3.313,0,0,0,1.363-.261l-.135-.521a2.812,2.812,0,0,1-1.126.2,1.3,1.3,0,0,1-1.388-1.412Z" transform="translate(-254.535 -226.76)"/><path class="d" d="M292.271,313.286v5.667h-.739v-5.667Z" transform="translate(-254.535 -226.76)"/><path class="d" d="M293.524,315.985c0-.429-.008-.765-.033-1.1h.655l.042.664h.017a1.505,1.505,0,0,1,1.345-.757c.564,0,1.438.337,1.438,1.732v2.43h-.74v-2.346c0-.655-.244-1.21-.942-1.21a1.067,1.067,0,0,0-.992.756,1.118,1.118,0,0,0-.05.345v2.455h-.74Z" transform="translate(-254.535 -226.76)"/><path class="d" d="M297.829,316.414v.538H299.9v-.538Z" transform="translate(-254.535 -226.76)"/><path class="d" d="M301.51,316.591a2.116,2.116,0,0,1,.042-.3,1.182,1.182,0,0,1,1.127-.908c.781,0,1.2.7,1.2,1.514,0,.933-.454,1.572-1.236,1.572a1.134,1.134,0,0,1-1.1-.866,1.257,1.257,0,0,1-.033-.3Zm-.74,4.027h.74v-2.211h.017a1.416,1.416,0,0,0,1.253.639,1.93,1.93,0,0,0,1.849-2.186,1.845,1.845,0,0,0-1.732-2.069,1.573,1.573,0,0,0-1.438.79h-.016l-.042-.7h-.664c.025.387.033.806.033,1.328Z" transform="translate(-254.535 -226.76)"/><path class="d" d="M305.554,312.983h.739v2.54h.017a1.325,1.325,0,0,1,.53-.522,1.434,1.434,0,0,1,.756-.21c.547,0,1.421.337,1.421,1.741v2.421h-.739v-2.337c0-.664-.244-1.211-.942-1.211a1.071,1.071,0,0,0-.992.741.884.884,0,0,0-.051.352v2.455h-.739Z" transform="translate(-254.535 -226.76)"/><path class="d" d="M312.363,317.583a.763.763,0,0,1-.033.235,1.029,1.029,0,0,1-1,.681.648.648,0,0,1-.689-.706c0-.79.916-.933,1.723-.917Zm.723-1.127c0-.815-.3-1.665-1.555-1.665a2.635,2.635,0,0,0-1.345.354l.168.5a1.955,1.955,0,0,1,1.067-.3.836.836,0,0,1,.925.941v.085c-1.572-.009-2.446.53-2.446,1.513a1.159,1.159,0,0,0,1.244,1.169,1.5,1.5,0,0,0,1.244-.606h.026l.067.513h.664a6.825,6.825,0,0,1-.059-.975Z" transform="translate(-254.535 -226.76)"/><path class="d" d="M314.17,318.205a2.1,2.1,0,0,0,.984.286c.53,0,.782-.261.782-.6s-.21-.547-.748-.748c-.74-.27-1.085-.665-1.085-1.153a1.26,1.26,0,0,1,1.4-1.194,1.876,1.876,0,0,1,.992.253l-.176.529a1.672,1.672,0,0,0-.832-.235c-.438,0-.673.252-.673.555,0,.344.235.5.764.7.7.26,1.069.613,1.069,1.227,0,.724-.564,1.228-1.514,1.228a2.311,2.311,0,0,1-1.143-.286Z" transform="translate(-254.535 -226.76)"/><path class="d" d="M318.029,316.515a1.22,1.22,0,0,1,1.135-1.2,1.055,1.055,0,0,1,1.017,1.2Zm2.842.539a2,2,0,0,0,.025-.354,1.718,1.718,0,0,0-1.673-1.918,1.985,1.985,0,0,0-1.917,2.2,1.9,1.9,0,0,0,2,2.053,3.278,3.278,0,0,0,1.361-.262l-.133-.521a2.818,2.818,0,0,1-1.127.2,1.3,1.3,0,0,1-1.387-1.413Z" transform="translate(-254.535 -226.76)"/><path class="c" d="M264.474,281.883a3.746,3.746,0,0,1-1.446.244,2.7,2.7,0,0,1-2.968-2.851,2.882,2.882,0,0,1,3.094-3,3.334,3.334,0,0,1,1.395.252l-.269,1.009a2.7,2.7,0,0,0-1.075-.21,1.868,1.868,0,0,0,.008,3.733,3.059,3.059,0,0,0,1.076-.185Z" transform="translate(-254.535 -226.76)"/><path class="c" d="M266.239,282.035l-1.345-5.668h1.37l.429,2.329c.126.681.244,1.413.336,1.994h.017c.093-.623.227-1.3.37-2.01l.479-2.313h1.362l.454,2.388c.126.664.219,1.27.3,1.9h.016c.085-.631.211-1.3.328-1.976l.463-2.313h1.3l-1.462,5.668h-1.387L268.8,279.6c-.11-.572-.2-1.1-.269-1.749h-.017c-.1.639-.194,1.177-.328,1.749l-.538,2.439Z" transform="translate(-254.535 -226.76)"/><path class="c" d="M274.687,279.4v.849h-2.2V279.4Z" transform="translate(-254.535 -226.76)"/><path class="c" d="M275.537,280.723a3.243,3.243,0,0,0,1.42.353c.589,0,.9-.244.9-.622,0-.345-.269-.555-.95-.79-.942-.337-1.564-.858-1.564-1.691,0-.967.816-1.7,2.144-1.7a3.31,3.31,0,0,1,1.446.286l-.286,1.025a2.65,2.65,0,0,0-1.177-.269c-.555,0-.824.261-.824.547,0,.362.311.521,1.051.807,1,.37,1.463.892,1.463,1.7,0,.95-.723,1.757-2.278,1.757a3.69,3.69,0,0,1-1.606-.353Z" transform="translate(-254.535 -226.76)"/><path class="d" d="M293.638,281.53c-1.152,0-1.807-1.1-1.807-2.3,0-1.227.6-2.362,1.824-2.362s1.807,1.177,1.807,2.3c0,1.286-.656,2.354-1.816,2.354Zm-.017.6c1.438,0,2.623-1.042,2.623-2.985a2.581,2.581,0,0,0-2.556-2.867,2.686,2.686,0,0,0-2.623,2.977,2.593,2.593,0,0,0,2.548,2.875Z" transform="translate(-254.535 -226.76)"/><path class="d" d="M300.573,280.925c0,.42.008.79.034,1.11h-.656l-.042-.665h-.016a1.523,1.523,0,0,1-1.346.757c-.639,0-1.4-.361-1.4-1.783v-2.379h.739v2.245c0,.773.244,1.3.908,1.3a1.062,1.062,0,0,0,.975-.681,1.014,1.014,0,0,0,.067-.378v-2.489h.74Z" transform="translate(-254.535 -226.76)"/><path class="d" d="M302.692,276.99v.975h1.059v.563h-1.059v2.195c0,.5.142.79.555.79a1.369,1.369,0,0,0,.428-.05l.034.563a2,2,0,0,1-.656.1,1.054,1.054,0,0,1-.8-.311,1.588,1.588,0,0,1-.286-1.068v-2.22h-.631v-.563h.631v-.748Z" transform="translate(-254.535 -226.76)"/><path class="d" d="M304.222,279.5v.538H306.3V279.5Z" transform="translate(-254.535 -226.76)"/><path class="d" d="M308.837,281.572c-.714,0-1.219-.673-1.219-1.564,0-.774.378-1.581,1.244-1.581s1.219.867,1.219,1.556c0,.925-.53,1.589-1.236,1.589Zm-.008.555a1.994,1.994,0,0,0,2.017-2.169,1.924,1.924,0,0,0-1.959-2.085,1.99,1.99,0,0,0-2.017,2.16,1.939,1.939,0,0,0,1.95,2.094Z" transform="translate(-254.535 -226.76)"/><path class="d" d="M311.847,282.035v-3.507h-.564v-.563h.564v-.193a1.92,1.92,0,0,1,.479-1.421,1.409,1.409,0,0,1,.983-.379,1.679,1.679,0,0,1,.631.118l-.093.572a1.137,1.137,0,0,0-.479-.093c-.622,0-.79.555-.79,1.177v.219h.983v.563h-.975v3.507Z" transform="translate(-254.535 -226.76)"/><path class="d" d="M315.949,279.5v.538h-2.076V279.5Z" transform="translate(-254.535 -226.76)"/><path class="d" d="M317.555,279.672a1.983,1.983,0,0,1,.042-.3,1.181,1.181,0,0,1,1.126-.908c.782,0,1.2.7,1.2,1.514,0,.933-.454,1.572-1.236,1.572a1.132,1.132,0,0,1-1.1-.866,1.209,1.209,0,0,1-.033-.3Zm-.741,4.027h.741v-2.211h.016a1.416,1.416,0,0,0,1.253.639,1.93,1.93,0,0,0,1.849-2.186,1.844,1.844,0,0,0-1.732-2.068,1.568,1.568,0,0,0-1.437.79h-.017l-.042-.7h-.664c.025.387.033.807.033,1.329Z" transform="translate(-254.535 -226.76)"/><path class="d" d="M321.6,276.065h.74V278.6h.016a1.316,1.316,0,0,1,.53-.521,1.435,1.435,0,0,1,.757-.21c.546,0,1.42.336,1.42,1.74v2.422h-.739V279.7c0-.664-.244-1.211-.942-1.211a1.072,1.072,0,0,0-.992.74.9.9,0,0,0-.05.353v2.456h-.74Z" transform="translate(-254.535 -226.76)"/><path class="d" d="M328.407,280.664a.731.731,0,0,1-.034.235,1.026,1.026,0,0,1-1,.682.648.648,0,0,1-.689-.707c0-.79.916-.933,1.723-.916Zm.723-1.127c0-.815-.3-1.664-1.555-1.664a2.625,2.625,0,0,0-1.345.353l.168.5a1.956,1.956,0,0,1,1.068-.3.836.836,0,0,1,.925.942v.084c-1.573-.008-2.447.53-2.447,1.514a1.159,1.159,0,0,0,1.244,1.168,1.505,1.505,0,0,0,1.245-.605h.024l.068.513h.664a6.849,6.849,0,0,1-.059-.976Z" transform="translate(-254.535 -226.76)"/><path class="d" d="M330.215,281.286a2.081,2.081,0,0,0,.983.286c.53,0,.782-.26.782-.605s-.21-.547-.748-.749c-.74-.269-1.085-.664-1.085-1.152a1.26,1.26,0,0,1,1.4-1.193,1.886,1.886,0,0,1,.992.252l-.176.529a1.672,1.672,0,0,0-.832-.235c-.438,0-.673.252-.673.555,0,.345.235.5.765.7.7.261,1.068.614,1.068,1.227,0,.724-.564,1.228-1.513,1.228a2.323,2.323,0,0,1-1.144-.286Z" transform="translate(-254.535 -226.76)"/><path class="d" d="M334.073,279.6a1.22,1.22,0,0,1,1.135-1.2,1.056,1.056,0,0,1,1.018,1.2Zm2.842.538a1.884,1.884,0,0,0,.025-.353,1.718,1.718,0,0,0-1.673-1.917,1.984,1.984,0,0,0-1.916,2.2,1.9,1.9,0,0,0,2,2.052,3.312,3.312,0,0,0,1.362-.261l-.134-.522a2.794,2.794,0,0,1-1.127.2,1.3,1.3,0,0,1-1.387-1.413Z" transform="translate(-254.535 -226.76)"/><path class="d" d="M344.342,276.367v5.668h-.74v-5.668Z" transform="translate(-254.535 -226.76)"/><path class="d" d="M345.594,279.066c0-.428-.008-.765-.034-1.1h.656l.042.664h.017a1.508,1.508,0,0,1,1.345-.756c.564,0,1.438.336,1.438,1.732v2.43h-.74v-2.346c0-.656-.244-1.211-.942-1.211a1.069,1.069,0,0,0-.992.756,1.122,1.122,0,0,0-.05.345v2.456h-.74Z" transform="translate(-254.535 -226.76)"/><path class="d" d="M351.975,279.5v.538H349.9V279.5Z" transform="translate(-254.535 -226.76)"/><path class="d" d="M353.581,279.672a1.866,1.866,0,0,1,.042-.3,1.181,1.181,0,0,1,1.126-.908c.782,0,1.2.7,1.2,1.514,0,.933-.454,1.572-1.236,1.572a1.132,1.132,0,0,1-1.1-.866,1.209,1.209,0,0,1-.033-.3Zm-.74,4.027h.74v-2.211h.016a1.416,1.416,0,0,0,1.253.639,1.93,1.93,0,0,0,1.849-2.186,1.844,1.844,0,0,0-1.731-2.068,1.569,1.569,0,0,0-1.438.79h-.017l-.042-.7h-.664c.025.387.034.807.034,1.329Z" transform="translate(-254.535 -226.76)"/><path class="d" d="M357.624,276.065h.74V278.6h.016a1.316,1.316,0,0,1,.53-.521,1.437,1.437,0,0,1,.757-.21c.546,0,1.42.336,1.42,1.74v2.422h-.739V279.7c0-.664-.244-1.211-.942-1.211a1.072,1.072,0,0,0-.992.74.9.9,0,0,0-.05.353v2.456h-.74Z" transform="translate(-254.535 -226.76)"/><path class="d" d="M364.433,280.664a.731.731,0,0,1-.034.235,1.026,1.026,0,0,1-1,.682.648.648,0,0,1-.689-.707c0-.79.916-.933,1.723-.916Zm.723-1.127c0-.815-.3-1.664-1.555-1.664a2.625,2.625,0,0,0-1.345.353l.168.5a1.956,1.956,0,0,1,1.068-.3.835.835,0,0,1,.924.942v.084c-1.572-.008-2.446.53-2.446,1.514a1.159,1.159,0,0,0,1.244,1.168,1.5,1.5,0,0,0,1.244-.605h.026l.067.513h.664a6.849,6.849,0,0,1-.059-.976Z" transform="translate(-254.535 -226.76)"/><path class="d" d="M366.241,281.286a2.081,2.081,0,0,0,.983.286c.53,0,.782-.26.782-.605s-.21-.547-.748-.749c-.74-.269-1.085-.664-1.085-1.152a1.26,1.26,0,0,1,1.4-1.193,1.886,1.886,0,0,1,.992.252l-.176.529a1.673,1.673,0,0,0-.833-.235c-.437,0-.672.252-.672.555,0,.345.235.5.765.7.7.261,1.068.614,1.068,1.227,0,.724-.564,1.228-1.514,1.228a2.322,2.322,0,0,1-1.143-.286Z" transform="translate(-254.535 -226.76)"/><path class="d" d="M370.1,279.6a1.219,1.219,0,0,1,1.135-1.2,1.055,1.055,0,0,1,1.017,1.2Zm2.842.538a1.974,1.974,0,0,0,.025-.353,1.718,1.718,0,0,0-1.673-1.917,1.985,1.985,0,0,0-1.917,2.2,1.9,1.9,0,0,0,2,2.052,3.312,3.312,0,0,0,1.362-.261l-.135-.522a2.785,2.785,0,0,1-1.126.2,1.3,1.3,0,0,1-1.387-1.413Z" transform="translate(-254.535 -226.76)"/><path class="d" d="M449.634,281.53c-1.152,0-1.807-1.1-1.807-2.3,0-1.227.605-2.362,1.824-2.362s1.807,1.177,1.807,2.3c0,1.286-.655,2.354-1.815,2.354Zm-.017.6c1.438,0,2.623-1.042,2.623-2.985a2.581,2.581,0,0,0-2.555-2.867,2.687,2.687,0,0,0-2.624,2.977,2.593,2.593,0,0,0,2.548,2.875Z" transform="translate(-254.535 -226.76)"/><path class="d" d="M456.569,280.925c0,.42.009.79.034,1.11h-.656l-.042-.665h-.016a1.52,1.52,0,0,1-1.345.757c-.64,0-1.4-.361-1.4-1.783v-2.379h.74v2.245c0,.773.243,1.3.907,1.3a1.065,1.065,0,0,0,.976-.681,1.014,1.014,0,0,0,.067-.378v-2.489h.739Z" transform="translate(-254.535 -226.76)"/><path class="d" d="M458.688,276.99v.975h1.059v.563h-1.059v2.195c0,.5.143.79.555.79a1.38,1.38,0,0,0,.429-.05l.033.563a2,2,0,0,1-.655.1,1.057,1.057,0,0,1-.8-.311,1.588,1.588,0,0,1-.286-1.068v-2.22h-.63v-.563h.63v-.748Z" transform="translate(-254.535 -226.76)"/><path class="d" d="M462.3,279.5v.538h-2.077V279.5Z" transform="translate(-254.535 -226.76)"/><path class="d" d="M464.833,281.572c-.714,0-1.219-.673-1.219-1.564,0-.774.378-1.581,1.244-1.581s1.219.867,1.219,1.556c0,.925-.529,1.589-1.235,1.589Zm-.008.555a1.994,1.994,0,0,0,2.018-2.169,1.925,1.925,0,0,0-1.959-2.085,1.991,1.991,0,0,0-2.018,2.16,1.939,1.939,0,0,0,1.95,2.094Z" transform="translate(-254.535 -226.76)"/><path class="d" d="M467.843,282.035v-3.507h-.564v-.563h.564v-.193a1.92,1.92,0,0,1,.479-1.421,1.413,1.413,0,0,1,.984-.379,1.677,1.677,0,0,1,.63.118l-.092.572a1.142,1.142,0,0,0-.48-.093c-.622,0-.79.555-.79,1.177v.219h.984v.563h-.975v3.507Z" transform="translate(-254.535 -226.76)"/><path class="d" d="M469.869,279.5v.538h2.076V279.5Z" transform="translate(-254.535 -226.76)"/><path class="d" d="M473.551,279.672a1.983,1.983,0,0,1,.042-.3,1.181,1.181,0,0,1,1.127-.908c.781,0,1.2.7,1.2,1.514,0,.933-.454,1.572-1.237,1.572a1.132,1.132,0,0,1-1.1-.866,1.257,1.257,0,0,1-.033-.3Zm-.741,4.027h.741v-2.211h.016a1.416,1.416,0,0,0,1.253.639,1.931,1.931,0,0,0,1.85-2.186,1.844,1.844,0,0,0-1.733-2.068,1.569,1.569,0,0,0-1.437.79h-.017l-.042-.7h-.664c.026.387.033.807.033,1.329Z" transform="translate(-254.535 -226.76)"/><path class="d" d="M477.6,276.065h.739V278.6h.017a1.31,1.31,0,0,1,.53-.521,1.431,1.431,0,0,1,.756-.21c.547,0,1.421.336,1.421,1.74v2.422h-.74V279.7c0-.664-.244-1.211-.941-1.211a1.07,1.07,0,0,0-.992.74.9.9,0,0,0-.051.353v2.456H477.6Z" transform="translate(-254.535 -226.76)"/><path class="d" d="M484.4,280.664a.759.759,0,0,1-.033.235,1.029,1.029,0,0,1-1,.682.648.648,0,0,1-.688-.707c0-.79.916-.933,1.722-.916Zm.724-1.127c0-.815-.3-1.664-1.556-1.664a2.621,2.621,0,0,0-1.344.353l.167.5a1.959,1.959,0,0,1,1.068-.3.836.836,0,0,1,.925.942v.084c-1.573-.008-2.447.53-2.447,1.514a1.159,1.159,0,0,0,1.245,1.168,1.5,1.5,0,0,0,1.244-.605h.025l.067.513h.664a7.009,7.009,0,0,1-.058-.976Z" transform="translate(-254.535 -226.76)"/><path class="d" d="M486.211,281.286a2.078,2.078,0,0,0,.983.286c.531,0,.783-.26.783-.605s-.21-.547-.749-.749c-.74-.269-1.084-.664-1.084-1.152a1.26,1.26,0,0,1,1.4-1.193,1.889,1.889,0,0,1,.992.252l-.177.529a1.672,1.672,0,0,0-.832-.235c-.437,0-.673.252-.673.555,0,.345.236.5.765.7.7.261,1.068.614,1.068,1.227,0,.724-.563,1.228-1.513,1.228a2.323,2.323,0,0,1-1.144-.286Z" transform="translate(-254.535 -226.76)"/><path class="d" d="M490.061,280.126a1.3,1.3,0,0,0,1.387,1.413,2.794,2.794,0,0,0,1.127-.2l.134.522a3.306,3.306,0,0,1-1.361.261,1.9,1.9,0,0,1-2-2.052,1.984,1.984,0,0,1,1.917-2.2,1.717,1.717,0,0,1,1.672,1.917,1.884,1.884,0,0,1-.025.353Zm2.161-.53a1.056,1.056,0,0,0-1.018-1.2,1.221,1.221,0,0,0-1.135,1.2Z" transform="translate(-254.535 -226.76)"/><path class="d" d="M293.638,302.084c-1.152,0-1.807-1.1-1.807-2.3,0-1.228.6-2.363,1.824-2.363s1.807,1.177,1.807,2.3c0,1.286-.656,2.354-1.816,2.354Zm-.017.6c1.438,0,2.623-1.043,2.623-2.985a2.581,2.581,0,0,0-2.556-2.867,2.686,2.686,0,0,0-2.623,2.976,2.593,2.593,0,0,0,2.548,2.876Z" transform="translate(-254.535 -226.76)"/><path class="d" d="M300.573,301.479c0,.42.008.79.034,1.109h-.656l-.042-.664h-.016a1.523,1.523,0,0,1-1.346.757c-.639,0-1.4-.362-1.4-1.783v-2.379h.739v2.245c0,.774.244,1.3.908,1.3a1.064,1.064,0,0,0,.975-.681,1.018,1.018,0,0,0,.067-.378v-2.489h.74Z" transform="translate(-254.535 -226.76)"/><path class="d" d="M302.692,297.544v.975h1.059v.563h-1.059v2.195c0,.5.142.79.555.79a1.4,1.4,0,0,0,.428-.05l.034.563a2.03,2.03,0,0,1-.656.1,1.054,1.054,0,0,1-.8-.311,1.589,1.589,0,0,1-.286-1.068v-2.22h-.631v-.563h.631v-.748Z" transform="translate(-254.535 -226.76)"/><path class="d" d="M304.222,300.049v.538H306.3v-.538Z" transform="translate(-254.535 -226.76)"/><path class="d" d="M308.837,302.126c-.714,0-1.219-.673-1.219-1.564,0-.773.378-1.581,1.244-1.581s1.219.866,1.219,1.556c0,.925-.53,1.589-1.236,1.589Zm-.008.555a1.994,1.994,0,0,0,2.017-2.169,1.924,1.924,0,0,0-1.959-2.086,1.991,1.991,0,0,0-2.017,2.161,1.939,1.939,0,0,0,1.95,2.094Z" transform="translate(-254.535 -226.76)"/><path class="d" d="M311.847,302.588v-3.506h-.564v-.563h.564v-.194a1.923,1.923,0,0,1,.479-1.421,1.408,1.408,0,0,1,.983-.378,1.679,1.679,0,0,1,.631.118l-.093.571a1.155,1.155,0,0,0-.479-.092c-.622,0-.79.555-.79,1.177v.219h.983v.563h-.975v3.506Z" transform="translate(-254.535 -226.76)"/><path class="d" d="M313.873,300.049v.538h2.076v-.538Z" transform="translate(-254.535 -226.76)"/><path class="d" d="M317.555,300.226a1.983,1.983,0,0,1,.042-.3,1.181,1.181,0,0,1,1.126-.908c.782,0,1.2.7,1.2,1.513,0,.934-.454,1.573-1.236,1.573a1.132,1.132,0,0,1-1.1-.866,1.209,1.209,0,0,1-.033-.3Zm-.741,4.027h.741v-2.211h.016a1.418,1.418,0,0,0,1.253.639,1.93,1.93,0,0,0,1.849-2.186,1.844,1.844,0,0,0-1.732-2.069,1.569,1.569,0,0,0-1.437.791h-.017l-.042-.7h-.664c.025.387.033.807.033,1.328Z" transform="translate(-254.535 -226.76)"/><path class="d" d="M321.6,296.619h.74v2.539h.016a1.316,1.316,0,0,1,.53-.521,1.435,1.435,0,0,1,.757-.211c.546,0,1.42.337,1.42,1.741v2.421h-.739v-2.337c0-.664-.244-1.211-.942-1.211a1.072,1.072,0,0,0-.992.74.9.9,0,0,0-.05.353v2.455h-.74Z" transform="translate(-254.535 -226.76)"/><path class="d" d="M329.13,301.613a6.825,6.825,0,0,0,.059.975h-.664l-.068-.512h-.024a1.505,1.505,0,0,1-1.245.6,1.159,1.159,0,0,1-1.244-1.169c0-.984.874-1.522,2.447-1.513v-.084a.836.836,0,0,0-.925-.942,1.964,1.964,0,0,0-1.068.3l-.168-.5a2.635,2.635,0,0,1,1.345-.353c1.253,0,1.555.849,1.555,1.665Zm-.723-1.1c-.807-.017-1.723.126-1.723.916a.648.648,0,0,0,.689.706,1.026,1.026,0,0,0,1-.681.735.735,0,0,0,.034-.235Z" transform="translate(-254.535 -226.76)"/><path class="d" d="M330.215,301.84a2.081,2.081,0,0,0,.983.286c.53,0,.782-.261.782-.6s-.21-.547-.748-.748c-.74-.27-1.085-.665-1.085-1.153a1.26,1.26,0,0,1,1.4-1.194,1.886,1.886,0,0,1,.992.253l-.176.53a1.66,1.66,0,0,0-.832-.236c-.438,0-.673.252-.673.555,0,.345.235.5.765.7.7.26,1.068.613,1.068,1.227,0,.723-.564,1.228-1.513,1.228a2.323,2.323,0,0,1-1.144-.286Z" transform="translate(-254.535 -226.76)"/><path class="d" d="M334.073,300.15a1.22,1.22,0,0,1,1.135-1.2,1.056,1.056,0,0,1,1.018,1.2Zm2.842.538a1.892,1.892,0,0,0,.025-.353,1.718,1.718,0,0,0-1.673-1.917,1.984,1.984,0,0,0-1.916,2.2,1.9,1.9,0,0,0,2,2.051,3.315,3.315,0,0,0,1.362-.26l-.134-.521a2.817,2.817,0,0,1-1.127.2,1.3,1.3,0,0,1-1.387-1.412Z" transform="translate(-254.535 -226.76)"/><path class="d" d="M396.017,296.921v5.667h-.74v-5.667Z" transform="translate(-254.535 -226.76)"/><path class="d" d="M397.269,299.62c0-.429-.008-.765-.034-1.1h.657l.042.664h.016a1.509,1.509,0,0,1,1.345-.757c.563,0,1.437.337,1.437,1.732v2.43h-.739v-2.345c0-.656-.244-1.211-.941-1.211a1.087,1.087,0,0,0-1.043,1.1v2.455h-.74Z" transform="translate(-254.535 -226.76)"/><path class="d" d="M401.573,300.049v.538h2.076v-.538Z" transform="translate(-254.535 -226.76)"/><path class="d" d="M405.256,300.226a1.866,1.866,0,0,1,.042-.3,1.181,1.181,0,0,1,1.126-.908c.782,0,1.2.7,1.2,1.513,0,.934-.454,1.573-1.235,1.573a1.132,1.132,0,0,1-1.1-.866,1.209,1.209,0,0,1-.033-.3Zm-.74,4.027h.74v-2.211h.016a1.418,1.418,0,0,0,1.252.639,1.93,1.93,0,0,0,1.85-2.186,1.844,1.844,0,0,0-1.731-2.069,1.568,1.568,0,0,0-1.438.791h-.017l-.042-.7h-.664c.025.387.034.807.034,1.328Z" transform="translate(-254.535 -226.76)"/><path class="d" d="M409.3,296.619h.74v2.539h.017a1.308,1.308,0,0,1,.529-.521,1.438,1.438,0,0,1,.757-.211c.546,0,1.421.337,1.421,1.741v2.421h-.741v-2.337c0-.664-.243-1.211-.941-1.211a1.072,1.072,0,0,0-.992.74.9.9,0,0,0-.05.353v2.455h-.74Z" transform="translate(-254.535 -226.76)"/><path class="d" d="M416.108,301.218a.735.735,0,0,1-.034.235,1.026,1.026,0,0,1-1,.681.648.648,0,0,1-.689-.706c0-.79.916-.933,1.723-.916Zm.723-1.127c0-.816-.3-1.665-1.555-1.665a2.638,2.638,0,0,0-1.345.353l.168.5a1.964,1.964,0,0,1,1.068-.3.836.836,0,0,1,.925.942V300c-1.573-.009-2.447.529-2.447,1.513a1.159,1.159,0,0,0,1.245,1.169,1.5,1.5,0,0,0,1.244-.6h.024l.068.512h.664a6.825,6.825,0,0,1-.059-.975Z" transform="translate(-254.535 -226.76)"/><path class="d" d="M417.916,301.84a2.081,2.081,0,0,0,.983.286c.53,0,.782-.261.782-.6s-.21-.547-.748-.748c-.74-.27-1.084-.665-1.084-1.153a1.259,1.259,0,0,1,1.4-1.194,1.888,1.888,0,0,1,.992.253l-.177.53a1.657,1.657,0,0,0-.832-.236c-.437,0-.673.252-.673.555,0,.345.236.5.766.7.7.26,1.067.613,1.067,1.227,0,.723-.563,1.228-1.512,1.228a2.317,2.317,0,0,1-1.144-.286Z" transform="translate(-254.535 -226.76)"/><path class="d" d="M421.774,300.15a1.219,1.219,0,0,1,1.135-1.2,1.056,1.056,0,0,1,1.018,1.2Zm2.841.538a1.8,1.8,0,0,0,.026-.353,1.718,1.718,0,0,0-1.673-1.917,1.984,1.984,0,0,0-1.917,2.2,1.9,1.9,0,0,0,2,2.051,3.315,3.315,0,0,0,1.362-.26l-.135-.521a2.8,2.8,0,0,1-1.126.2,1.3,1.3,0,0,1-1.387-1.412Z" transform="translate(-254.535 -226.76)"/><path class="d" d="M449.634,302.084c-1.152,0-1.807-1.1-1.807-2.3,0-1.228.605-2.363,1.824-2.363s1.807,1.177,1.807,2.3c0,1.286-.655,2.354-1.815,2.354Zm-.017.6c1.438,0,2.623-1.043,2.623-2.985a2.581,2.581,0,0,0-2.555-2.867,2.687,2.687,0,0,0-2.624,2.976,2.593,2.593,0,0,0,2.548,2.876Z" transform="translate(-254.535 -226.76)"/><path class="d" d="M456.569,301.479c0,.42.009.79.034,1.109h-.656l-.042-.664h-.016a1.52,1.52,0,0,1-1.345.757c-.64,0-1.4-.362-1.4-1.783v-2.379h.74v2.245c0,.774.243,1.3.907,1.3a1.066,1.066,0,0,0,.976-.681,1.018,1.018,0,0,0,.067-.378v-2.489h.739Z" transform="translate(-254.535 -226.76)"/><path class="d" d="M458.688,297.544v.975h1.059v.563h-1.059v2.195c0,.5.143.79.555.79a1.412,1.412,0,0,0,.429-.05l.033.563a2.028,2.028,0,0,1-.655.1,1.057,1.057,0,0,1-.8-.311,1.589,1.589,0,0,1-.286-1.068v-2.22h-.63v-.563h.63v-.748Z" transform="translate(-254.535 -226.76)"/><path class="d" d="M462.3,300.049v.538h-2.077v-.538Z" transform="translate(-254.535 -226.76)"/><path class="d" d="M464.833,302.126c-.714,0-1.219-.673-1.219-1.564,0-.773.378-1.581,1.244-1.581s1.219.866,1.219,1.556c0,.925-.529,1.589-1.235,1.589Zm-.008.555a1.994,1.994,0,0,0,2.018-2.169,1.925,1.925,0,0,0-1.959-2.086,1.992,1.992,0,0,0-2.018,2.161,1.939,1.939,0,0,0,1.95,2.094Z" transform="translate(-254.535 -226.76)"/><path class="d" d="M467.843,302.588v-3.506h-.564v-.563h.564v-.194a1.923,1.923,0,0,1,.479-1.421,1.412,1.412,0,0,1,.984-.378,1.677,1.677,0,0,1,.63.118l-.092.571a1.16,1.16,0,0,0-.48-.092c-.622,0-.79.555-.79,1.177v.219h.984v.563h-.975v3.506Z" transform="translate(-254.535 -226.76)"/><path class="d" d="M469.869,300.049v.538h2.076v-.538Z" transform="translate(-254.535 -226.76)"/><path class="d" d="M473.551,300.226a1.983,1.983,0,0,1,.042-.3,1.181,1.181,0,0,1,1.127-.908c.781,0,1.2.7,1.2,1.513,0,.934-.454,1.573-1.237,1.573a1.132,1.132,0,0,1-1.1-.866,1.257,1.257,0,0,1-.033-.3Zm-.741,4.027h.741v-2.211h.016a1.418,1.418,0,0,0,1.253.639,1.931,1.931,0,0,0,1.85-2.186,1.845,1.845,0,0,0-1.733-2.069,1.57,1.57,0,0,0-1.437.791h-.017l-.042-.7h-.664c.026.387.033.807.033,1.328Z" transform="translate(-254.535 -226.76)"/><path class="d" d="M477.6,296.619h.739v2.539h.017a1.31,1.31,0,0,1,.53-.521,1.432,1.432,0,0,1,.756-.211c.547,0,1.421.337,1.421,1.741v2.421h-.74v-2.337c0-.664-.244-1.211-.941-1.211a1.07,1.07,0,0,0-.992.74.9.9,0,0,0-.051.353v2.455H477.6Z" transform="translate(-254.535 -226.76)"/><path class="d" d="M484.4,301.218a.763.763,0,0,1-.033.235,1.028,1.028,0,0,1-1,.681.647.647,0,0,1-.688-.706c0-.79.916-.933,1.722-.916Zm.724-1.127c0-.816-.3-1.665-1.556-1.665a2.631,2.631,0,0,0-1.344.353l.167.5a1.967,1.967,0,0,1,1.068-.3.836.836,0,0,1,.925.942V300c-1.573-.009-2.447.529-2.447,1.513a1.159,1.159,0,0,0,1.245,1.169,1.5,1.5,0,0,0,1.244-.6h.025l.067.512h.664a6.984,6.984,0,0,1-.058-.975Z" transform="translate(-254.535 -226.76)"/><path class="d" d="M486.211,301.84a2.078,2.078,0,0,0,.983.286c.531,0,.783-.261.783-.6s-.21-.547-.749-.748c-.74-.27-1.084-.665-1.084-1.153a1.26,1.26,0,0,1,1.4-1.194,1.888,1.888,0,0,1,.992.253l-.177.53a1.66,1.66,0,0,0-.832-.236c-.437,0-.673.252-.673.555,0,.345.236.5.765.7.7.26,1.068.613,1.068,1.227,0,.723-.563,1.228-1.513,1.228a2.323,2.323,0,0,1-1.144-.286Z" transform="translate(-254.535 -226.76)"/><path class="d" d="M490.061,300.68a1.3,1.3,0,0,0,1.387,1.412,2.817,2.817,0,0,0,1.127-.2l.134.521a3.309,3.309,0,0,1-1.361.26,1.9,1.9,0,0,1-2-2.051,1.984,1.984,0,0,1,1.917-2.2,1.717,1.717,0,0,1,1.672,1.917,1.892,1.892,0,0,1-.025.353Zm2.161-.53a1.056,1.056,0,0,0-1.018-1.2,1.221,1.221,0,0,0-1.135,1.2Z" transform="translate(-254.535 -226.76)"/><path class="d" d="M345.847,322.638c-1.152,0-1.808-1.1-1.808-2.295,0-1.228.605-2.363,1.824-2.363s1.808,1.177,1.808,2.3c0,1.287-.656,2.355-1.816,2.355Zm-.017.6c1.437,0,2.623-1.042,2.623-2.984a2.582,2.582,0,0,0-2.556-2.867,2.686,2.686,0,0,0-2.623,2.976,2.592,2.592,0,0,0,2.547,2.875Z" transform="translate(-254.535 -226.76)"/><path class="d" d="M352.782,322.032c0,.421.008.791.033,1.111h-.655l-.042-.664H352.1a1.52,1.52,0,0,1-1.345.755c-.639,0-1.4-.361-1.4-1.782v-2.38h.74v2.245c0,.775.243,1.3.907,1.3a1.065,1.065,0,0,0,.976-.681,1.018,1.018,0,0,0,.067-.378v-2.49h.74Z" transform="translate(-254.535 -226.76)"/><path class="d" d="M354.9,318.1v.974h1.059v.564H354.9v2.195c0,.5.143.79.555.79a1.337,1.337,0,0,0,.429-.051l.033.564a2,2,0,0,1-.655.1,1.057,1.057,0,0,1-.8-.31,1.6,1.6,0,0,1-.286-1.068v-2.22h-.63v-.564h.63v-.748Z" transform="translate(-254.535 -226.76)"/><path class="d" d="M358.507,320.6v.538H356.43V320.6Z" transform="translate(-254.535 -226.76)"/><path class="d" d="M361.045,322.68c-.714,0-1.218-.673-1.218-1.564,0-.773.378-1.581,1.244-1.581s1.219.866,1.219,1.556c0,.925-.53,1.589-1.236,1.589Zm-.008.554a1.994,1.994,0,0,0,2.018-2.169,1.923,1.923,0,0,0-1.959-2.084,1.991,1.991,0,0,0-2.018,2.161,1.938,1.938,0,0,0,1.951,2.092Z" transform="translate(-254.535 -226.76)"/><path class="d" d="M364.055,323.143v-3.507h-.563v-.564h.563v-.193a1.923,1.923,0,0,1,.479-1.421,1.415,1.415,0,0,1,.984-.378,1.7,1.7,0,0,1,.63.117l-.092.573a1.14,1.14,0,0,0-.479-.093c-.622,0-.79.554-.79,1.178v.217h.983v.564H364.8v3.507Z" transform="translate(-254.535 -226.76)"/><path class="d" d="M368.157,320.6v.538h-2.076V320.6Z" transform="translate(-254.535 -226.76)"/><path class="d" d="M369.763,320.779a2.006,2.006,0,0,1,.042-.3,1.183,1.183,0,0,1,1.127-.909c.781,0,1.2.7,1.2,1.514,0,.934-.454,1.572-1.236,1.572a1.131,1.131,0,0,1-1.1-.865,1.164,1.164,0,0,1-.034-.3Zm-.74,4.029h.74V322.6h.017a1.416,1.416,0,0,0,1.252.638,1.93,1.93,0,0,0,1.85-2.185,1.844,1.844,0,0,0-1.732-2.068,1.571,1.571,0,0,0-1.438.79H369.7l-.042-.7h-.664c.025.388.033.808.033,1.329Z" transform="translate(-254.535 -226.76)"/><path class="d" d="M373.807,317.173h.739v2.539h.017a1.332,1.332,0,0,1,.53-.522,1.443,1.443,0,0,1,.757-.209c.546,0,1.42.335,1.42,1.74v2.422h-.74v-2.338c0-.664-.243-1.211-.941-1.211a1.071,1.071,0,0,0-.992.74.9.9,0,0,0-.051.354v2.455h-.739Z" transform="translate(-254.535 -226.76)"/><path class="d" d="M380.616,321.772a.76.76,0,0,1-.034.235,1.027,1.027,0,0,1-1,.682.648.648,0,0,1-.689-.707c0-.791.916-.933,1.723-.917Zm.723-1.126c0-.817-.3-1.665-1.555-1.665a2.641,2.641,0,0,0-1.346.352l.168.5a1.97,1.97,0,0,1,1.068-.3.837.837,0,0,1,.925.943v.084c-1.572-.009-2.446.529-2.446,1.513a1.159,1.159,0,0,0,1.244,1.168,1.5,1.5,0,0,0,1.244-.6h.025l.067.513h.664a6.849,6.849,0,0,1-.058-.976Z" transform="translate(-254.535 -226.76)"/><path class="d" d="M382.423,322.394a2.1,2.1,0,0,0,.984.286c.529,0,.781-.261.781-.606s-.21-.546-.748-.748c-.739-.269-1.084-.664-1.084-1.152a1.26,1.26,0,0,1,1.4-1.193,1.9,1.9,0,0,1,.992.251l-.177.53a1.667,1.667,0,0,0-.832-.236c-.437,0-.672.253-.672.556,0,.345.235.5.764.7.7.261,1.068.615,1.068,1.228,0,.724-.563,1.227-1.513,1.227a2.319,2.319,0,0,1-1.143-.285Z" transform="translate(-254.535 -226.76)"/><path class="d" d="M386.282,320.7a1.219,1.219,0,0,1,1.135-1.2,1.055,1.055,0,0,1,1.017,1.2Zm2.841.538a1.892,1.892,0,0,0,.025-.353,1.717,1.717,0,0,0-1.672-1.917,1.984,1.984,0,0,0-1.917,2.2,1.9,1.9,0,0,0,2,2.052,3.319,3.319,0,0,0,1.361-.261l-.134-.522a2.789,2.789,0,0,1-1.126.2,1.3,1.3,0,0,1-1.388-1.414Z" transform="translate(-254.535 -226.76)"/><path class="d" d="M397.521,322.638c-1.151,0-1.807-1.1-1.807-2.295,0-1.228.605-2.363,1.824-2.363s1.808,1.177,1.808,2.3c0,1.287-.657,2.355-1.817,2.355Zm-.016.6c1.437,0,2.622-1.042,2.622-2.984a2.581,2.581,0,0,0-2.555-2.867,2.686,2.686,0,0,0-2.623,2.976,2.592,2.592,0,0,0,2.547,2.875Z" transform="translate(-254.535 -226.76)"/><path class="d" d="M404.457,322.032c0,.421.008.791.033,1.111h-.655l-.042-.664h-.017a1.52,1.52,0,0,1-1.345.755c-.639,0-1.4-.361-1.4-1.782v-2.38h.74v2.245c0,.775.244,1.3.908,1.3a1.061,1.061,0,0,0,.974-.681,1.017,1.017,0,0,0,.068-.378v-2.49h.74Z" transform="translate(-254.535 -226.76)"/><path class="d" d="M406.575,318.1v.974h1.06v.564h-1.06v2.195c0,.5.143.79.555.79a1.342,1.342,0,0,0,.429-.051l.034.564a2.014,2.014,0,0,1-.657.1,1.055,1.055,0,0,1-.8-.31,1.591,1.591,0,0,1-.286-1.068v-2.22h-.63v-.564h.63v-.748Z" transform="translate(-254.535 -226.76)"/><path class="d" d="M408.105,320.6v.538h2.077V320.6Z" transform="translate(-254.535 -226.76)"/><path class="d" d="M412.721,322.68c-.715,0-1.219-.673-1.219-1.564,0-.773.378-1.581,1.244-1.581s1.219.866,1.219,1.556c0,.925-.53,1.589-1.237,1.589Zm-.009.554a1.993,1.993,0,0,0,2.017-2.169,1.923,1.923,0,0,0-1.959-2.084,1.991,1.991,0,0,0-2.017,2.161,1.938,1.938,0,0,0,1.951,2.092Z" transform="translate(-254.535 -226.76)"/><path class="d" d="M416.47,323.143v-3.507h.975v-.564h-.984v-.217c0-.624.169-1.178.791-1.178a1.132,1.132,0,0,1,.478.093l.093-.573a1.693,1.693,0,0,0-.631-.117,1.412,1.412,0,0,0-.983.378,1.923,1.923,0,0,0-.479,1.421v.193h-.563v.564h.563v3.507Z" transform="translate(-254.535 -226.76)"/><path class="d" d="M417.756,320.6v.538h2.076V320.6Z" transform="translate(-254.535 -226.76)"/><path class="d" d="M421.437,320.779a2.012,2.012,0,0,1,.043-.3,1.182,1.182,0,0,1,1.126-.909c.783,0,1.2.7,1.2,1.514,0,.934-.455,1.572-1.236,1.572a1.131,1.131,0,0,1-1.1-.865,1.164,1.164,0,0,1-.035-.3Zm-.739,4.029h.739V322.6h.018a1.416,1.416,0,0,0,1.252.638,1.93,1.93,0,0,0,1.85-2.185,1.844,1.844,0,0,0-1.732-2.068,1.567,1.567,0,0,0-1.437.79h-.017l-.042-.7h-.664c.024.388.033.808.033,1.329Z" transform="translate(-254.535 -226.76)"/><path class="d" d="M425.481,323.143h.741v-2.455a.9.9,0,0,1,.049-.354,1.074,1.074,0,0,1,.993-.74c.7,0,.941.547.941,1.211v2.338h.74v-2.422c0-1.405-.875-1.74-1.421-1.74a1.442,1.442,0,0,0-.756.209,1.325,1.325,0,0,0-.53.522h-.016v-2.539h-.741Z" transform="translate(-254.535 -226.76)"/><path class="d" d="M432.291,321.772a.76.76,0,0,1-.034.235,1.026,1.026,0,0,1-1,.682.649.649,0,0,1-.69-.707c0-.791.916-.933,1.724-.917Zm.723-1.126c0-.817-.3-1.665-1.555-1.665a2.638,2.638,0,0,0-1.346.352l.168.5a1.968,1.968,0,0,1,1.069-.3.837.837,0,0,1,.924.943v.084c-1.572-.009-2.446.529-2.446,1.513a1.159,1.159,0,0,0,1.244,1.168,1.5,1.5,0,0,0,1.244-.6h.025l.067.513h.664a6.849,6.849,0,0,1-.058-.976Z" transform="translate(-254.535 -226.76)"/><path class="d" d="M434.1,322.394a2.089,2.089,0,0,0,.983.286c.529,0,.781-.261.781-.606s-.21-.546-.748-.748c-.739-.269-1.084-.664-1.084-1.152a1.26,1.26,0,0,1,1.4-1.193,1.9,1.9,0,0,1,.992.251l-.177.53a1.667,1.667,0,0,0-.832-.236c-.438,0-.673.253-.673.556,0,.345.235.5.766.7.7.261,1.067.615,1.067,1.228,0,.724-.563,1.227-1.513,1.227a2.316,2.316,0,0,1-1.143-.285Z" transform="translate(-254.535 -226.76)"/><path class="d" d="M437.957,320.7a1.219,1.219,0,0,1,1.135-1.2,1.055,1.055,0,0,1,1.017,1.2Zm2.841.538a1.892,1.892,0,0,0,.025-.353,1.718,1.718,0,0,0-1.673-1.917,1.985,1.985,0,0,0-1.917,2.2,1.9,1.9,0,0,0,2,2.052,3.33,3.33,0,0,0,1.363-.261l-.135-.522a2.789,2.789,0,0,1-1.126.2,1.3,1.3,0,0,1-1.388-1.414Z" transform="translate(-254.535 -226.76)"/><path class="d" d="M448.129,317.476v5.667h-.739v-5.667Z" transform="translate(-254.535 -226.76)"/><path class="d" d="M449.382,320.174c0-.429-.008-.765-.033-1.1H450l.042.665h.016a1.508,1.508,0,0,1,1.346-.756c.564,0,1.438.335,1.438,1.731v2.431h-.741V320.8c0-.656-.243-1.211-.941-1.211a1.068,1.068,0,0,0-.992.757,1.113,1.113,0,0,0-.05.345v2.455h-.74Z" transform="translate(-254.535 -226.76)"/><path class="d" d="M453.686,320.6v.538h2.077V320.6Z" transform="translate(-254.535 -226.76)"/><path class="d" d="M457.368,320.779a2.142,2.142,0,0,1,.042-.3,1.183,1.183,0,0,1,1.127-.909c.781,0,1.2.7,1.2,1.514,0,.934-.454,1.572-1.236,1.572a1.132,1.132,0,0,1-1.1-.865,1.257,1.257,0,0,1-.033-.3Zm-.74,4.029h.74V322.6h.017a1.418,1.418,0,0,0,1.253.638,1.929,1.929,0,0,0,1.849-2.185,1.844,1.844,0,0,0-1.732-2.068,1.571,1.571,0,0,0-1.438.79H457.3l-.042-.7H456.6c.025.388.033.808.033,1.329Z" transform="translate(-254.535 -226.76)"/><path class="d" d="M461.412,317.173h.739v2.539h.017a1.332,1.332,0,0,1,.53-.522,1.442,1.442,0,0,1,.756-.209c.547,0,1.421.335,1.421,1.74v2.422h-.739v-2.338c0-.664-.244-1.211-.942-1.211a1.072,1.072,0,0,0-.992.74.9.9,0,0,0-.051.354v2.455h-.739Z" transform="translate(-254.535 -226.76)"/><path class="d" d="M468.221,321.772a.731.731,0,0,1-.034.235,1.028,1.028,0,0,1-1,.682.648.648,0,0,1-.688-.707c0-.791.916-.933,1.723-.917Zm.723-1.126c0-.817-.3-1.665-1.555-1.665a2.635,2.635,0,0,0-1.345.352l.168.5a1.964,1.964,0,0,1,1.067-.3.837.837,0,0,1,.925.943v.084c-1.572-.009-2.446.529-2.446,1.513A1.159,1.159,0,0,0,467,323.234a1.5,1.5,0,0,0,1.244-.6h.025l.068.513H469a6.839,6.839,0,0,1-.059-.976Z" transform="translate(-254.535 -226.76)"/><path class="d" d="M470.028,322.394a2.1,2.1,0,0,0,.984.286c.53,0,.782-.261.782-.606s-.21-.546-.748-.748c-.74-.269-1.085-.664-1.085-1.152a1.26,1.26,0,0,1,1.4-1.193,1.9,1.9,0,0,1,.992.251l-.176.53a1.674,1.674,0,0,0-.832-.236c-.438,0-.673.253-.673.556,0,.345.235.5.764.7.7.261,1.069.615,1.069,1.228,0,.724-.564,1.227-1.514,1.227a2.322,2.322,0,0,1-1.143-.285Z" transform="translate(-254.535 -226.76)"/><path class="d" d="M476.728,321.242a1.876,1.876,0,0,0,.026-.353,1.718,1.718,0,0,0-1.673-1.917,1.984,1.984,0,0,0-1.917,2.2,1.9,1.9,0,0,0,2,2.052,3.319,3.319,0,0,0,1.361-.261l-.133-.522a2.8,2.8,0,0,1-1.127.2,1.3,1.3,0,0,1-1.387-1.414Zm-2.841-.538a1.22,1.22,0,0,1,1.134-1.2,1.055,1.055,0,0,1,1.018,1.2Z" transform="translate(-254.535 -226.76)"/><path class="c" d="M264.367,302.463a3.579,3.579,0,0,1-1.376.232,2.572,2.572,0,0,1-2.825-2.712,2.743,2.743,0,0,1,2.945-2.856,3.15,3.15,0,0,1,1.327.241l-.255.96a2.568,2.568,0,0,0-1.024-.2,1.777,1.777,0,0,0,.007,3.552,2.9,2.9,0,0,0,1.024-.176Z" transform="translate(-254.535 -226.76)"/><path class="c" d="M268.88,302.463a3.574,3.574,0,0,1-1.376.232,2.572,2.572,0,0,1-2.823-2.712,2.743,2.743,0,0,1,2.943-2.856,3.168,3.168,0,0,1,1.329.241l-.257.96a2.568,2.568,0,0,0-1.024-.2,1.777,1.777,0,0,0,.009,3.552,2.908,2.908,0,0,0,1.024-.176Z" transform="translate(-254.535 -226.76)"/><path class="c" d="M270.56,302.607l-1.28-5.392h1.3l.408,2.217c.12.648.233,1.343.32,1.9h.016c.088-.593.216-1.241.352-1.912l.456-2.2h1.3l.432,2.272c.12.633.208,1.208.288,1.808h.016c.08-.6.2-1.231.312-1.879l.44-2.2h1.24l-1.391,5.392h-1.321l-.456-2.319c-.1-.544-.192-1.049-.256-1.664h-.016c-.1.607-.184,1.12-.312,1.664l-.512,2.319Z" transform="translate(-254.535 -226.76)"/><path class="c" d="M278.6,300.1v.808h-2.1V300.1Z" transform="translate(-254.535 -226.76)"/><path class="c" d="M279.368,302.607v-5.392h1.424l1.12,1.976a17.019,17.019,0,0,1,.88,1.849h.016a22.248,22.248,0,0,1-.1-2.256v-1.569h1.12v5.392h-1.28l-1.152-2.08a19.192,19.192,0,0,1-.936-1.9h-.032c.04.719.056,1.48.056,2.359v1.624Z" transform="translate(-254.535 -226.76)"/><path class="c" d="M402.11,240.257a3.574,3.574,0,0,1-1.376.232,2.572,2.572,0,0,1-2.824-2.712,2.743,2.743,0,0,1,2.944-2.856,3.175,3.175,0,0,1,1.328.24l-.256.96a2.57,2.57,0,0,0-1.024-.2,1.777,1.777,0,0,0,.008,3.552,2.9,2.9,0,0,0,1.024-.176Z" transform="translate(-254.535 -226.76)"/><path class="c" d="M406.624,240.257a3.579,3.579,0,0,1-1.376.232,2.573,2.573,0,0,1-2.824-2.712,2.742,2.742,0,0,1,2.944-2.856,3.179,3.179,0,0,1,1.328.24l-.257.96a2.565,2.565,0,0,0-1.023-.2,1.777,1.777,0,0,0,.008,3.552,2.9,2.9,0,0,0,1.024-.176Z" transform="translate(-254.535 -226.76)"/><path class="c" d="M408.305,240.4l-1.282-5.392h1.3l.408,2.216c.119.648.233,1.344.321,1.9h.015c.088-.592.216-1.24.352-1.912l.456-2.2h1.3l.431,2.272c.121.632.209,1.208.289,1.808h.016c.08-.6.2-1.232.313-1.88l.439-2.2h1.24l-1.392,5.392h-1.321l-.455-2.32c-.1-.544-.192-1.048-.256-1.664h-.016c-.1.608-.185,1.12-.312,1.664l-.511,2.32Z" transform="translate(-254.535 -226.76)"/><path class="c" d="M416.344,237.9v.808h-2.1V237.9Z" transform="translate(-254.535 -226.76)"/><path class="c" d="M417.111,240.4v-5.392h1.424l1.121,1.976a17,17,0,0,1,.879,1.848h.017a22.236,22.236,0,0,1-.1-2.256v-1.568h1.121V240.4H420.3l-1.152-2.08a19.1,19.1,0,0,1-.936-1.9h-.032c.04.72.056,1.48.056,2.36V240.4Z" transform="translate(-254.535 -226.76)"/><path class="d" d="M292.074,321.212v2.256h2.411v-2.256h.65V326.6h-.65v-2.529h-2.411V326.6h-.651v-5.392Z" transform="translate(-254.535 -226.76)"/><path class="d" d="M299.224,325.548c0,.4.008.752.03,1.056h-.577l-.037-.632h-.015a1.326,1.326,0,0,1-1.182.719c-.562,0-1.236-.343-1.236-1.7v-2.264h.651v2.136c0,.737.215,1.24.8,1.24a.945.945,0,0,0,.857-.647,1.043,1.043,0,0,0,.06-.36v-2.369h.649Z" transform="translate(-254.535 -226.76)"/><path class="d" d="M300.3,323.779c0-.408-.014-.727-.029-1.048h.568l.03.625h.023a1.226,1.226,0,0,1,1.131-.712,1.066,1.066,0,0,1,1.006.776h.015a1.455,1.455,0,0,1,.407-.5,1.134,1.134,0,0,1,.783-.272c.481,0,1.183.336,1.183,1.679V326.6h-.636v-2.193c0-.752-.258-1.191-.777-1.191a.868.868,0,0,0-.776.632,1.4,1.4,0,0,0-.051.351v2.4h-.637v-2.321c0-.624-.251-1.063-.746-1.063a.915.915,0,0,0-.806.7,1.064,1.064,0,0,0-.052.344V326.6H300.3Z" transform="translate(-254.535 -226.76)"/><path class="d" d="M307.98,324.188v.511h-1.827v-.511Z" transform="translate(-254.535 -226.76)"/><path class="d" d="M311.293,326.468a2.354,2.354,0,0,1-1.028.223,1.78,1.78,0,0,1-1.783-1.983,1.951,1.951,0,0,1,2.825-1.856l-.147.536a1.5,1.5,0,0,0-.755-.185,1.307,1.307,0,0,0-1.264,1.473,1.286,1.286,0,0,0,1.242,1.447,1.75,1.75,0,0,0,.8-.183Z" transform="translate(-254.535 -226.76)"/><path class="d" d="M314.583,325.676a7.014,7.014,0,0,0,.052.928h-.584l-.059-.489h-.023a1.29,1.29,0,0,1-1.095.576,1.06,1.06,0,0,1-1.093-1.112c0-.935.768-1.447,2.151-1.439v-.08c0-.321-.081-.905-.812-.9a1.643,1.643,0,0,0-.941.288l-.147-.471a2.177,2.177,0,0,1,1.184-.336c1.1,0,1.367.807,1.367,1.584Zm-.636-1.048c-.709-.017-1.516.119-1.516.872a.594.594,0,0,0,.606.672.912.912,0,0,0,.881-.649.781.781,0,0,0,.029-.223Z" transform="translate(-254.535 -226.76)"/><path class="d" d="M315.626,323.779c0-.408-.007-.727-.03-1.048h.577l.037.632h.015a1.314,1.314,0,0,1,1.183-.719c.5,0,1.264.32,1.264,1.648V326.6h-.65v-2.233c0-.624-.215-1.151-.829-1.151a.954.954,0,0,0-.872.72,1.1,1.1,0,0,0-.044.328V326.6h-.651Z" transform="translate(-254.535 -226.76)"/><path class="d" d="M322.281,326.468a2.358,2.358,0,0,1-1.028.223,1.779,1.779,0,0,1-1.782-1.983,1.951,1.951,0,0,1,2.825-1.856l-.148.536a1.5,1.5,0,0,0-.754-.185,1.308,1.308,0,0,0-1.266,1.473,1.287,1.287,0,0,0,1.244,1.447,1.757,1.757,0,0,0,.8-.183Z" transform="translate(-254.535 -226.76)"/><path class="d" d="M323.37,324.787a1.188,1.188,0,0,0,1.219,1.345,2.315,2.315,0,0,0,.992-.192l.117.5a2.723,2.723,0,0,1-1.2.248,1.745,1.745,0,0,1-1.76-1.953c0-1.175.642-2.095,1.686-2.095,1.168,0,1.472,1.111,1.472,1.824a1.811,1.811,0,0,1-.024.336Zm1.9-.5c.008-.439-.17-1.143-.9-1.143-.665,0-.945.656-1,1.143Z" transform="translate(-254.535 -226.76)"/><path class="d" d="M326.7,320.924h.651v5.68H326.7Z" transform="translate(-254.535 -226.76)"/><path class="d" d="M328.435,326.6v-3.873h.65V326.6Zm.311-4.584a.454.454,0,0,1,.014-.9.417.417,0,0,1,.413.449.425.425,0,0,1-.421.456Z" transform="translate(-254.535 -226.76)"/><path class="d" d="M330.165,323.779c0-.408-.007-.727-.03-1.048h.576l.038.632h.015a1.312,1.312,0,0,1,1.183-.719c.5,0,1.265.32,1.265,1.648V326.6h-.652v-2.233c0-.624-.214-1.151-.827-1.151a.955.955,0,0,0-.873.72,1.137,1.137,0,0,0-.044.328V326.6h-.651Z" transform="translate(-254.535 -226.76)"/><path class="d" d="M336.68,324.947a1.208,1.208,0,0,1-.053.376.947.947,0,0,1-.9.729c-.7,0-1.057-.641-1.057-1.393,0-.9.443-1.471,1.065-1.471a.943.943,0,0,1,.909.752,1.039,1.039,0,0,1,.038.312Zm.65-1.16c0-.472.007-.783.03-1.056h-.577l-.022.577h-.015a1.183,1.183,0,0,0-1.117-.664c-.829,0-1.619.736-1.619,2.047,0,1.081.636,1.9,1.524,1.9a1.248,1.248,0,0,0,1.138-.648h.015v.423c0,.985-.488,1.361-1.153,1.361a1.839,1.839,0,0,1-1.051-.313l-.162.544a2.171,2.171,0,0,0,1.19.32,1.876,1.876,0,0,0,1.309-.463,2.393,2.393,0,0,0,.51-1.777Z" transform="translate(-254.535 -226.76)"/><path class="d" d="M344.224,292.778v5.667h-.74v-5.667Z" transform="translate(-254.535 -226.76)"/><path class="d" d="M345.477,295.478c0-.43-.008-.766-.034-1.1h.656l.042.664h.016a1.507,1.507,0,0,1,1.346-.757c.563,0,1.437.337,1.437,1.733v2.429h-.74V296.1c0-.656-.243-1.211-.941-1.211a1.065,1.065,0,0,0-.992.757,1.078,1.078,0,0,0-.05.344v2.455h-.74Z" transform="translate(-254.535 -226.76)"/><path class="d" d="M349.781,295.906v.538h2.076v-.538Z" transform="translate(-254.535 -226.76)"/><path class="d" d="M353.463,296.083a1.983,1.983,0,0,1,.042-.3,1.182,1.182,0,0,1,1.127-.908c.781,0,1.2.7,1.2,1.514,0,.933-.454,1.572-1.236,1.572a1.133,1.133,0,0,1-1.1-.866,1.257,1.257,0,0,1-.033-.3Zm-.74,4.027h.74V297.9h.016a1.417,1.417,0,0,0,1.253.639,1.93,1.93,0,0,0,1.85-2.185,1.845,1.845,0,0,0-1.732-2.07,1.572,1.572,0,0,0-1.438.79H353.4l-.042-.7h-.664c.026.387.034.807.034,1.328Z" transform="translate(-254.535 -226.76)"/><path class="d" d="M357.507,292.476h.739v2.539h.017a1.319,1.319,0,0,1,.53-.522,1.431,1.431,0,0,1,.756-.21c.547,0,1.421.337,1.421,1.741v2.421h-.74v-2.337c0-.664-.244-1.21-.941-1.21a1.069,1.069,0,0,0-.992.74.884.884,0,0,0-.051.352v2.455h-.739Z" transform="translate(-254.535 -226.76)"/><path class="d" d="M364.315,297.075a.744.744,0,0,1-.033.236,1.028,1.028,0,0,1-1,.68.647.647,0,0,1-.688-.706c0-.79.916-.932,1.722-.917Zm.724-1.127c0-.815-.3-1.665-1.556-1.665a2.634,2.634,0,0,0-1.344.354l.168.5a1.961,1.961,0,0,1,1.067-.3.836.836,0,0,1,.925.942v.084c-1.572-.009-2.447.53-2.447,1.513a1.159,1.159,0,0,0,1.245,1.169,1.5,1.5,0,0,0,1.244-.605h.025l.068.512h.664a6.825,6.825,0,0,1-.059-.975Z" transform="translate(-254.535 -226.76)"/><path class="d" d="M366.123,297.7a2.093,2.093,0,0,0,.983.286c.531,0,.783-.261.783-.605s-.21-.547-.748-.748c-.741-.27-1.085-.665-1.085-1.152a1.26,1.26,0,0,1,1.4-1.195,1.888,1.888,0,0,1,.992.253l-.177.529a1.672,1.672,0,0,0-.832-.235c-.437,0-.673.252-.673.555,0,.345.236.5.765.7.7.26,1.068.613,1.068,1.228,0,.723-.563,1.227-1.513,1.227a2.312,2.312,0,0,1-1.144-.286Z" transform="translate(-254.535 -226.76)"/><path class="d" d="M369.981,296.007a1.221,1.221,0,0,1,1.135-1.2,1.055,1.055,0,0,1,1.018,1.2Zm2.842.539a1.9,1.9,0,0,0,.026-.354,1.718,1.718,0,0,0-1.673-1.918,1.985,1.985,0,0,0-1.917,2.2,1.9,1.9,0,0,0,2,2.052,3.306,3.306,0,0,0,1.361-.261l-.134-.522a2.811,2.811,0,0,1-1.127.2,1.3,1.3,0,0,1-1.386-1.413Z" transform="translate(-254.535 -226.76)"/><path class="d" d="M344.026,300.7v2.256h2.411V300.7h.651V306.1h-.651v-2.529h-2.411V306.1h-.65V300.7Z" transform="translate(-254.535 -226.76)"/><path class="d" d="M351.177,305.04c0,.4.008.752.03,1.056h-.577l-.037-.632h-.015a1.328,1.328,0,0,1-1.183.72c-.561,0-1.235-.344-1.235-1.7v-2.263h.65v2.135c0,.737.215,1.241.8,1.241a.945.945,0,0,0,.858-.648,1.035,1.035,0,0,0,.059-.36v-2.368h.65Z" transform="translate(-254.535 -226.76)"/><path class="d" d="M352.257,303.272c0-.409-.015-.728-.03-1.048h.569l.03.624h.023a1.227,1.227,0,0,1,1.13-.712,1.065,1.065,0,0,1,1.006.776H355a1.463,1.463,0,0,1,.406-.5,1.138,1.138,0,0,1,.783-.272c.482,0,1.184.336,1.184,1.679V306.1h-.637V303.9c0-.752-.258-1.191-.776-1.191a.868.868,0,0,0-.776.632,1.358,1.358,0,0,0-.051.351v2.4H354.5v-2.321c0-.624-.251-1.063-.746-1.063a.919.919,0,0,0-.807.7,1.069,1.069,0,0,0-.051.344V306.1h-.636Z" transform="translate(-254.535 -226.76)"/><path class="d" d="M359.933,303.68v.511h-1.828v-.511Z" transform="translate(-254.535 -226.76)"/><path class="d" d="M363.246,305.96a2.359,2.359,0,0,1-1.028.224,1.78,1.78,0,0,1-1.783-1.984,1.951,1.951,0,0,1,2.825-1.856l-.148.536a1.5,1.5,0,0,0-.755-.185,1.307,1.307,0,0,0-1.263,1.473,1.285,1.285,0,0,0,1.242,1.447,1.741,1.741,0,0,0,.8-.183Z" transform="translate(-254.535 -226.76)"/><path class="d" d="M366.536,305.168a7.014,7.014,0,0,0,.052.928H366l-.06-.489h-.022a1.292,1.292,0,0,1-1.1.577,1.061,1.061,0,0,1-1.094-1.113c0-.935.769-1.447,2.152-1.439v-.08c0-.321-.081-.9-.813-.9a1.639,1.639,0,0,0-.94.288l-.148-.471a2.189,2.189,0,0,1,1.185-.336c1.1,0,1.367.807,1.367,1.584Zm-.637-1.048c-.709-.016-1.515.119-1.515.872a.594.594,0,0,0,.6.672.912.912,0,0,0,.882-.648.791.791,0,0,0,.028-.224Z" transform="translate(-254.535 -226.76)"/><path class="d" d="M367.579,303.272c0-.409-.008-.728-.03-1.048h.577l.037.632h.015a1.31,1.31,0,0,1,1.182-.72c.5,0,1.265.32,1.265,1.648V306.1h-.65v-2.233c0-.624-.215-1.151-.83-1.151a.956.956,0,0,0-.872.72,1.147,1.147,0,0,0-.044.328V306.1h-.65Z" transform="translate(-254.535 -226.76)"/><path class="d" d="M374.233,305.96a2.354,2.354,0,0,1-1.027.224,1.78,1.78,0,0,1-1.782-1.984,1.951,1.951,0,0,1,2.825-1.856l-.148.536a1.5,1.5,0,0,0-.754-.185,1.308,1.308,0,0,0-1.266,1.473,1.286,1.286,0,0,0,1.243,1.447,1.753,1.753,0,0,0,.8-.183Z" transform="translate(-254.535 -226.76)"/><path class="d" d="M375.322,304.279a1.189,1.189,0,0,0,1.22,1.345,2.306,2.306,0,0,0,.991-.192l.117.5a2.718,2.718,0,0,1-1.2.248,1.745,1.745,0,0,1-1.761-1.952c0-1.176.643-2.1,1.687-2.1,1.168,0,1.472,1.111,1.472,1.824a1.811,1.811,0,0,1-.024.336Zm1.9-.5c.007-.439-.17-1.143-.9-1.143-.665,0-.945.656-1,1.143Z" transform="translate(-254.535 -226.76)"/><path class="d" d="M378.656,300.416h.652v5.68h-.652Z" transform="translate(-254.535 -226.76)"/><path class="d" d="M380.388,306.1v-3.872h.65V306.1Zm.31-4.584a.454.454,0,0,1,.015-.9.418.418,0,0,1,.413.449.425.425,0,0,1-.421.456Z" transform="translate(-254.535 -226.76)"/><path class="d" d="M382.117,303.272c0-.409-.007-.728-.029-1.048h.576l.038.632h.015a1.311,1.311,0,0,1,1.182-.72c.5,0,1.266.32,1.266,1.648V306.1h-.652v-2.233c0-.624-.214-1.151-.828-1.151a.957.957,0,0,0-.873.72,1.148,1.148,0,0,0-.043.328V306.1h-.652Z" transform="translate(-254.535 -226.76)"/><path class="d" d="M388.633,304.44a1.237,1.237,0,0,1-.053.375.947.947,0,0,1-.9.729c-.7,0-1.057-.641-1.057-1.393,0-.9.442-1.471,1.064-1.471a.945.945,0,0,1,.91.752,1.039,1.039,0,0,1,.038.312Zm.649-1.161c0-.471.008-.783.03-1.055h-.577l-.021.576H388.7a1.182,1.182,0,0,0-1.116-.664c-.829,0-1.619.736-1.619,2.048a1.69,1.69,0,0,0,1.523,1.9,1.249,1.249,0,0,0,1.139-.648h.015v.424c0,.984-.489,1.36-1.154,1.36a1.844,1.844,0,0,1-1.051-.313l-.162.544a2.175,2.175,0,0,0,1.191.321,1.869,1.869,0,0,0,1.308-.464,2.393,2.393,0,0,0,.51-1.777Z" transform="translate(-254.535 -226.76)"/><path class="d" d="M395.835,271.929V277.6H395.1v-5.667Z" transform="translate(-254.535 -226.76)"/><path class="d" d="M397.088,274.628c0-.43-.008-.766-.033-1.1h.655l.042.664h.017a1.507,1.507,0,0,1,1.345-.756c.564,0,1.438.337,1.438,1.732v2.43h-.741V275.25c0-.655-.243-1.211-.941-1.211a1.068,1.068,0,0,0-.992.757,1.118,1.118,0,0,0-.05.345V277.6h-.74Z" transform="translate(-254.535 -226.76)"/><path class="d" d="M401.393,275.057v.538h2.076v-.538Z" transform="translate(-254.535 -226.76)"/><path class="d" d="M405.074,275.233a2.1,2.1,0,0,1,.042-.3,1.182,1.182,0,0,1,1.127-.908c.781,0,1.2.7,1.2,1.513,0,.934-.454,1.572-1.236,1.572a1.133,1.133,0,0,1-1.1-.866,1.254,1.254,0,0,1-.033-.3Zm-.74,4.028h.74V277.05h.017a1.418,1.418,0,0,0,1.253.639,1.93,1.93,0,0,0,1.849-2.186,1.845,1.845,0,0,0-1.732-2.069,1.573,1.573,0,0,0-1.438.79h-.016l-.042-.7H404.3c.025.387.033.807.033,1.329Z" transform="translate(-254.535 -226.76)"/><path class="d" d="M409.118,271.626h.739v2.539h.017a1.323,1.323,0,0,1,.53-.521,1.434,1.434,0,0,1,.756-.21c.547,0,1.421.337,1.421,1.741V277.6h-.739v-2.337c0-.664-.244-1.211-.942-1.211a1.071,1.071,0,0,0-.992.74.89.89,0,0,0-.051.353V277.6h-.739Z" transform="translate(-254.535 -226.76)"/><path class="d" d="M415.927,276.226a.763.763,0,0,1-.033.235,1.029,1.029,0,0,1-1,.681.648.648,0,0,1-.689-.706c0-.79.916-.933,1.723-.917Zm.723-1.127c0-.816-.3-1.665-1.555-1.665a2.635,2.635,0,0,0-1.345.353l.168.5a1.963,1.963,0,0,1,1.067-.3.836.836,0,0,1,.925.941v.085c-1.572-.01-2.446.529-2.446,1.513a1.16,1.16,0,0,0,1.244,1.169,1.505,1.505,0,0,0,1.244-.606h.025l.068.513h.664a6.839,6.839,0,0,1-.059-.976Z" transform="translate(-254.535 -226.76)"/><path class="d" d="M417.734,276.848a2.109,2.109,0,0,0,.984.286c.53,0,.782-.262.782-.606s-.21-.547-.748-.748c-.74-.269-1.085-.665-1.085-1.152a1.26,1.26,0,0,1,1.4-1.194,1.876,1.876,0,0,1,.992.253l-.176.529a1.661,1.661,0,0,0-.832-.235c-.438,0-.673.251-.673.554,0,.345.235.5.764.7.7.26,1.069.614,1.069,1.228,0,.724-.564,1.228-1.514,1.228a2.311,2.311,0,0,1-1.143-.287Z" transform="translate(-254.535 -226.76)"/><path class="d" d="M421.593,275.157a1.22,1.22,0,0,1,1.134-1.2,1.055,1.055,0,0,1,1.018,1.2Zm2.842.539a2,2,0,0,0,.025-.353,1.718,1.718,0,0,0-1.673-1.918,1.985,1.985,0,0,0-1.917,2.2,1.9,1.9,0,0,0,2,2.053,3.3,3.3,0,0,0,1.361-.262l-.133-.521a2.818,2.818,0,0,1-1.127.2,1.3,1.3,0,0,1-1.387-1.413Z" transform="translate(-254.535 -226.76)"/><path class="d" d="M395.638,279.855v2.255h2.411v-2.255h.65v5.391h-.65v-2.528h-2.411v2.528h-.651v-5.391Z" transform="translate(-254.535 -226.76)"/><path class="d" d="M402.788,284.19c0,.4.008.752.03,1.056h-.577l-.037-.632h-.015a1.325,1.325,0,0,1-1.182.72c-.562,0-1.236-.344-1.236-1.7v-2.264h.651v2.136c0,.736.215,1.24.8,1.24a.945.945,0,0,0,.857-.647,1.044,1.044,0,0,0,.06-.361v-2.368h.649Z" transform="translate(-254.535 -226.76)"/><path class="d" d="M403.868,282.422c0-.408-.015-.728-.029-1.048h.568l.03.624h.023a1.227,1.227,0,0,1,1.131-.712,1.066,1.066,0,0,1,1.006.777h.015a1.455,1.455,0,0,1,.407-.5,1.135,1.135,0,0,1,.783-.273c.481,0,1.183.336,1.183,1.68v2.28h-.636v-2.192c0-.752-.258-1.192-.777-1.192a.868.868,0,0,0-.776.632,1.417,1.417,0,0,0-.051.352v2.4h-.637v-2.32c0-.624-.251-1.064-.746-1.064a.916.916,0,0,0-.806.7,1.042,1.042,0,0,0-.052.344v2.336h-.636Z" transform="translate(-254.535 -226.76)"/><path class="d" d="M411.544,282.83v.512h-1.827v-.512Z" transform="translate(-254.535 -226.76)"/><path class="d" d="M414.857,285.11a2.359,2.359,0,0,1-1.028.224,1.78,1.78,0,0,1-1.783-1.983,1.951,1.951,0,0,1,2.825-1.857l-.147.536a1.5,1.5,0,0,0-.755-.184,1.307,1.307,0,0,0-1.264,1.472,1.286,1.286,0,0,0,1.242,1.448,1.739,1.739,0,0,0,.8-.184Z" transform="translate(-254.535 -226.76)"/><path class="d" d="M418.147,284.318a7.014,7.014,0,0,0,.052.928h-.584l-.059-.488h-.023a1.29,1.29,0,0,1-1.1.576,1.061,1.061,0,0,1-1.093-1.112c0-.936.768-1.448,2.151-1.44v-.08c0-.32-.081-.9-.812-.9a1.635,1.635,0,0,0-.941.288l-.147-.472a2.186,2.186,0,0,1,1.184-.336c1.1,0,1.367.808,1.367,1.584Zm-.636-1.047c-.709-.017-1.516.119-1.516.872a.6.6,0,0,0,.606.672.913.913,0,0,0,.881-.649.783.783,0,0,0,.029-.224Z" transform="translate(-254.535 -226.76)"/><path class="d" d="M419.19,282.422c0-.408-.007-.728-.03-1.048h.577l.037.632h.015a1.314,1.314,0,0,1,1.183-.72c.5,0,1.264.32,1.264,1.649v2.311h-.65v-2.232c0-.624-.215-1.152-.829-1.152a.954.954,0,0,0-.872.72,1.113,1.113,0,0,0-.044.328v2.336h-.651Z" transform="translate(-254.535 -226.76)"/><path class="d" d="M425.845,285.11a2.355,2.355,0,0,1-1.028.224,1.779,1.779,0,0,1-1.782-1.983,1.951,1.951,0,0,1,2.825-1.857l-.148.536a1.5,1.5,0,0,0-.754-.184,1.308,1.308,0,0,0-1.266,1.472,1.287,1.287,0,0,0,1.243,1.448,1.744,1.744,0,0,0,.8-.184Z" transform="translate(-254.535 -226.76)"/><path class="d" d="M426.934,283.43a1.187,1.187,0,0,0,1.219,1.344,2.291,2.291,0,0,0,.991-.192l.118.5a2.723,2.723,0,0,1-1.2.248,1.745,1.745,0,0,1-1.76-1.952c0-1.176.642-2.1,1.686-2.1,1.168,0,1.472,1.112,1.472,1.825a1.826,1.826,0,0,1-.024.336Zm1.9-.5c.008-.44-.17-1.144-.9-1.144-.665,0-.945.657-1,1.144Z" transform="translate(-254.535 -226.76)"/><path class="d" d="M430.268,279.566h.651v5.68h-.651Z" transform="translate(-254.535 -226.76)"/><path class="d" d="M432,285.246v-3.872h.65v3.872Zm.311-4.584a.454.454,0,0,1,.014-.9.417.417,0,0,1,.413.448.425.425,0,0,1-.421.456Z" transform="translate(-254.535 -226.76)"/><path class="d" d="M433.728,282.422c0-.408-.006-.728-.029-1.048h.576l.038.632h.015a1.313,1.313,0,0,1,1.183-.72c.5,0,1.265.32,1.265,1.649v2.311h-.652v-2.232c0-.624-.214-1.152-.827-1.152a.955.955,0,0,0-.873.72,1.113,1.113,0,0,0-.044.328v2.336h-.652Z" transform="translate(-254.535 -226.76)"/><path class="d" d="M440.244,283.59a1.239,1.239,0,0,1-.053.376.946.946,0,0,1-.9.728c-.695,0-1.057-.64-1.057-1.392,0-.9.443-1.472,1.065-1.472a.944.944,0,0,1,.909.752,1.046,1.046,0,0,1,.038.313Zm.65-1.16c0-.472.007-.783.03-1.056h-.577l-.022.576h-.015a1.185,1.185,0,0,0-1.117-.664c-.829,0-1.619.737-1.619,2.048a1.691,1.691,0,0,0,1.524,1.9,1.249,1.249,0,0,0,1.138-.649h.015v.424c0,.984-.488,1.36-1.153,1.36a1.839,1.839,0,0,1-1.051-.312l-.162.544a2.171,2.171,0,0,0,1.19.32,1.873,1.873,0,0,0,1.309-.464,2.392,2.392,0,0,0,.51-1.776Z" transform="translate(-254.535 -226.76)"/><path class="d" d="M448.129,251.763v5.667h-.739v-5.667Z" transform="translate(-254.535 -226.76)"/><path class="d" d="M449.382,254.462c0-.43-.008-.766-.033-1.1H450l.042.664h.016a1.51,1.51,0,0,1,1.346-.756c.564,0,1.438.337,1.438,1.732v2.43h-.741v-2.346c0-.655-.243-1.211-.941-1.211a1.068,1.068,0,0,0-.992.757,1.113,1.113,0,0,0-.05.345v2.455h-.74Z" transform="translate(-254.535 -226.76)"/><path class="d" d="M453.686,254.891v.538h2.077v-.538Z" transform="translate(-254.535 -226.76)"/><path class="d" d="M457.368,255.067a2.1,2.1,0,0,1,.042-.3,1.183,1.183,0,0,1,1.127-.909c.781,0,1.2.7,1.2,1.514,0,.934-.454,1.572-1.236,1.572a1.133,1.133,0,0,1-1.1-.866,1.257,1.257,0,0,1-.033-.3Zm-.74,4.028h.74v-2.211h.017a1.418,1.418,0,0,0,1.253.639,1.93,1.93,0,0,0,1.849-2.186,1.845,1.845,0,0,0-1.732-2.069,1.573,1.573,0,0,0-1.438.79H457.3l-.042-.7H456.6c.025.387.033.807.033,1.329Z" transform="translate(-254.535 -226.76)"/><path class="d" d="M461.412,251.46h.739V254h.017a1.323,1.323,0,0,1,.53-.521,1.434,1.434,0,0,1,.756-.21c.547,0,1.421.337,1.421,1.741v2.421h-.739v-2.337c0-.664-.244-1.211-.942-1.211a1.071,1.071,0,0,0-.992.74.89.89,0,0,0-.051.353v2.455h-.739Z" transform="translate(-254.535 -226.76)"/><path class="d" d="M468.221,256.06a.735.735,0,0,1-.034.235,1.027,1.027,0,0,1-1,.681.648.648,0,0,1-.688-.706c0-.79.916-.933,1.723-.917Zm.723-1.127c0-.816-.3-1.665-1.555-1.665a2.635,2.635,0,0,0-1.345.353l.168.5a1.963,1.963,0,0,1,1.067-.3.836.836,0,0,1,.925.941v.085c-1.572-.01-2.446.529-2.446,1.513A1.16,1.16,0,0,0,467,257.523a1.505,1.505,0,0,0,1.244-.606h.025l.068.513H469a6.839,6.839,0,0,1-.059-.976Z" transform="translate(-254.535 -226.76)"/><path class="d" d="M470.028,256.682a2.109,2.109,0,0,0,.984.286c.53,0,.782-.262.782-.606s-.21-.547-.748-.748c-.74-.269-1.085-.665-1.085-1.152a1.26,1.26,0,0,1,1.4-1.194,1.876,1.876,0,0,1,.992.253l-.176.529a1.665,1.665,0,0,0-.832-.235c-.438,0-.673.251-.673.554,0,.345.235.5.764.7.7.26,1.069.614,1.069,1.228,0,.724-.564,1.228-1.514,1.228a2.311,2.311,0,0,1-1.143-.287Z" transform="translate(-254.535 -226.76)"/><path class="d" d="M473.887,254.991a1.22,1.22,0,0,1,1.134-1.2,1.055,1.055,0,0,1,1.018,1.2Zm2.841.539a1.891,1.891,0,0,0,.026-.353,1.718,1.718,0,0,0-1.673-1.918,1.984,1.984,0,0,0-1.917,2.2,1.9,1.9,0,0,0,2,2.053,3.3,3.3,0,0,0,1.361-.262l-.133-.522a2.8,2.8,0,0,1-1.127.2,1.3,1.3,0,0,1-1.387-1.413Z" transform="translate(-254.535 -226.76)"/><path class="d" d="M447.932,259.689v2.255h2.411v-2.255h.65v5.391h-.65v-2.528h-2.411v2.528h-.651v-5.391Z" transform="translate(-254.535 -226.76)"/><path class="d" d="M455.082,264.024c0,.4.008.752.03,1.056h-.577l-.037-.632h-.015a1.326,1.326,0,0,1-1.182.72c-.562,0-1.236-.344-1.236-1.7v-2.264h.651v2.136c0,.736.215,1.24.8,1.24a.945.945,0,0,0,.857-.647,1.044,1.044,0,0,0,.06-.361v-2.368h.649Z" transform="translate(-254.535 -226.76)"/><path class="d" d="M456.162,262.256c0-.408-.015-.728-.029-1.048h.568l.03.624h.023a1.227,1.227,0,0,1,1.131-.712,1.066,1.066,0,0,1,1.006.777h.015a1.464,1.464,0,0,1,.406-.5,1.139,1.139,0,0,1,.784-.273c.481,0,1.183.336,1.183,1.68v2.28h-.636v-2.192c0-.752-.258-1.192-.777-1.192a.868.868,0,0,0-.776.632,1.372,1.372,0,0,0-.051.352v2.4H458.4v-2.32c0-.624-.251-1.064-.746-1.064a.916.916,0,0,0-.806.7,1.042,1.042,0,0,0-.052.344v2.336h-.636Z" transform="translate(-254.535 -226.76)"/><path class="d" d="M463.838,262.664v.512h-1.827v-.512Z" transform="translate(-254.535 -226.76)"/><path class="d" d="M467.151,264.944a2.359,2.359,0,0,1-1.028.224,1.78,1.78,0,0,1-1.783-1.983,1.951,1.951,0,0,1,2.825-1.857l-.147.536a1.5,1.5,0,0,0-.755-.184A1.307,1.307,0,0,0,465,263.152a1.286,1.286,0,0,0,1.242,1.448,1.739,1.739,0,0,0,.8-.184Z" transform="translate(-254.535 -226.76)"/><path class="d" d="M470.441,264.152a7.014,7.014,0,0,0,.052.928h-.584l-.059-.488h-.023a1.29,1.29,0,0,1-1.095.576,1.061,1.061,0,0,1-1.093-1.112c0-.936.768-1.448,2.151-1.44v-.08c0-.32-.081-.9-.813-.9a1.634,1.634,0,0,0-.94.288l-.147-.472a2.183,2.183,0,0,1,1.184-.336c1.1,0,1.367.808,1.367,1.584Zm-.636-1.047c-.709-.017-1.516.119-1.516.872a.594.594,0,0,0,.605.671.912.912,0,0,0,.882-.648.783.783,0,0,0,.029-.224Z" transform="translate(-254.535 -226.76)"/><path class="d" d="M471.484,262.256c0-.408-.007-.728-.03-1.048h.577l.037.632h.015a1.314,1.314,0,0,1,1.183-.72c.5,0,1.264.32,1.264,1.649v2.311h-.65v-2.232c0-.624-.215-1.152-.829-1.152a.954.954,0,0,0-.872.72,1.113,1.113,0,0,0-.044.328v2.336h-.651Z" transform="translate(-254.535 -226.76)"/><path class="d" d="M478.139,264.944a2.355,2.355,0,0,1-1.028.224,1.779,1.779,0,0,1-1.782-1.983,1.951,1.951,0,0,1,2.825-1.857l-.148.536a1.5,1.5,0,0,0-.754-.184,1.308,1.308,0,0,0-1.266,1.472,1.287,1.287,0,0,0,1.243,1.448,1.744,1.744,0,0,0,.8-.184Z" transform="translate(-254.535 -226.76)"/><path class="d" d="M479.227,263.264a1.189,1.189,0,0,0,1.22,1.344,2.291,2.291,0,0,0,.991-.192l.118.5a2.723,2.723,0,0,1-1.2.248,1.745,1.745,0,0,1-1.76-1.952c0-1.176.642-2.1,1.686-2.1,1.168,0,1.472,1.112,1.472,1.825a1.826,1.826,0,0,1-.024.336Zm1.9-.5c.008-.44-.17-1.144-.9-1.144-.665,0-.945.657-1,1.144Z" transform="translate(-254.535 -226.76)"/><path class="d" d="M482.561,259.4h.652v5.68h-.652Z" transform="translate(-254.535 -226.76)"/><path class="d" d="M484.293,265.08v-3.872h.65v3.872Zm.31-4.584a.454.454,0,0,1,.015-.9.417.417,0,0,1,.413.448.425.425,0,0,1-.421.456Z" transform="translate(-254.535 -226.76)"/><path class="d" d="M486.022,262.256c0-.408-.006-.728-.029-1.048h.576l.038.632h.015a1.313,1.313,0,0,1,1.183-.72c.5,0,1.265.32,1.265,1.649v2.311h-.652v-2.232c0-.624-.214-1.152-.827-1.152a.955.955,0,0,0-.873.72,1.113,1.113,0,0,0-.044.328v2.336h-.652Z" transform="translate(-254.535 -226.76)"/><path class="d" d="M492.538,263.424a1.239,1.239,0,0,1-.053.376.947.947,0,0,1-.9.728c-.7,0-1.057-.64-1.057-1.392,0-.9.443-1.472,1.065-1.472a.944.944,0,0,1,.909.752,1.046,1.046,0,0,1,.038.313Zm.649-1.16c0-.472.008-.783.031-1.056h-.577l-.022.576H492.6a1.182,1.182,0,0,0-1.116-.664c-.829,0-1.619.736-1.619,2.048a1.691,1.691,0,0,0,1.524,1.9,1.249,1.249,0,0,0,1.138-.649h.015v.424c0,.984-.488,1.36-1.153,1.36a1.839,1.839,0,0,1-1.051-.312l-.162.544a2.171,2.171,0,0,0,1.19.32,1.873,1.873,0,0,0,1.309-.464,2.392,2.392,0,0,0,.509-1.776Z" transform="translate(-254.535 -226.76)"/></svg>