<svg xmlns="http://www.w3.org/2000/svg" viewBox="0 0 130.663 148.364"><defs><style>.a,.d,.e{fill:none;}.a,.b{stroke:#231f20;}.b{fill:#fff;}.c{fill:#231f20;}.d{stroke:#fff;stroke-width:1.2px;}.e{stroke:#a7a9ac;stroke-width:1.5px;}.f{fill:#a7a9ac;}</style></defs><title>I-3200-super-switch-primer</title><line class="a" x1="88.082" y1="95.195" x2="88.082" y2="145.639"/><path class="b" d="M351.712,125.267a13.325,13.325,0,0,1,26.649-.2h.032v84.3h-.067a13.325,13.325,0,0,1-26.614-.987Z" transform="translate(-269.728 -111.44)"/><polyline class="c" points="83.059 139.46 88.013 148.364 92.967 139.46 83.059 139.46"/><line class="d" x1="81.812" y1="141.856" x2="94.304" y2="141.856"/><line class="d" x1="81.59" y1="144.716" x2="94.081" y2="144.716"/><path class="a" d="M297.741,213.344c0,15.176-9.62,25.744-23.306,25.744" transform="translate(-269.728 -111.44)"/><path class="b" d="M291.643,125.267a13.326,13.326,0,0,1,26.65-.2h.031v84.3h-.066a13.326,13.326,0,0,1-26.615-.987Z" transform="translate(-269.728 -111.44)"/><path class="b" d="M309.83,129.045a4.847,4.847,0,1,1-4.847-4.847A4.846,4.846,0,0,1,309.83,129.045Z" transform="translate(-269.728 -111.44)"/><path class="e" d="M313.776,125.519a8.949,8.949,0,1,0-17.9,0" transform="translate(-269.728 -111.44)"/><path class="e" d="M374.983,125.519a8.949,8.949,0,1,0-17.9,0" transform="translate(-269.728 -111.44)"/><path class="b" d="M309.83,144.19a4.847,4.847,0,1,1-4.847-4.847A4.847,4.847,0,0,1,309.83,144.19Z" transform="translate(-269.728 -111.44)"/><circle class="b" cx="35.256" cy="47.895" r="4.846"/><path class="b" d="M309.83,174.479a4.847,4.847,0,1,1-4.847-4.846A4.847,4.847,0,0,1,309.83,174.479Z" transform="translate(-269.728 -111.44)"/><path class="b" d="M309.83,189.624a4.847,4.847,0,1,1-4.847-4.846A4.847,4.847,0,0,1,309.83,189.624Z" transform="translate(-269.728 -111.44)"/><path class="b" d="M309.83,204.769a4.847,4.847,0,1,1-4.847-4.847A4.847,4.847,0,0,1,309.83,204.769Z" transform="translate(-269.728 -111.44)"/><path class="b" d="M369.9,129.045a4.846,4.846,0,1,1-4.846-4.847A4.846,4.846,0,0,1,369.9,129.045Z" transform="translate(-269.728 -111.44)"/><path class="b" d="M369.9,144.19a4.846,4.846,0,1,1-4.846-4.847A4.846,4.846,0,0,1,369.9,144.19Z" transform="translate(-269.728 -111.44)"/><path class="b" d="M369.9,159.335a4.846,4.846,0,1,1-4.846-4.847A4.846,4.846,0,0,1,369.9,159.335Z" transform="translate(-269.728 -111.44)"/><path class="b" d="M369.9,174.479a4.846,4.846,0,1,1-4.846-4.846A4.847,4.847,0,0,1,369.9,174.479Z" transform="translate(-269.728 -111.44)"/><path class="b" d="M369.9,189.624a4.846,4.846,0,1,1-4.846-4.846A4.847,4.847,0,0,1,369.9,189.624Z" transform="translate(-269.728 -111.44)"/><path class="b" d="M369.9,204.769a4.846,4.846,0,1,1-4.846-4.847A4.846,4.846,0,0,1,369.9,204.769Z" transform="translate(-269.728 -111.44)"/><line class="e" x1="19.965" y1="126.94" x2="26.108" y2="121.461"/><path class="f" d="M298.109,230.92a15.108,15.108,0,0,0-1.6,4.614l-.939-2.344-2.222-1.2A15.06,15.06,0,0,0,298.109,230.92Z" transform="translate(-269.728 -111.44)"/><path class="c" d="M269.926,225.463a2.775,2.775,0,0,0,1.4.4c.8,0,1.27-.422,1.27-1.035,0-.566-.325-.89-1.144-1.206-.99-.351-1.6-.864-1.6-1.72a1.746,1.746,0,0,1,1.962-1.647,2.769,2.769,0,0,1,1.342.3l-.216.64a2.406,2.406,0,0,0-1.152-.289c-.829,0-1.144.5-1.144.91,0,.567.369.846,1.207,1.17,1.026.4,1.548.891,1.548,1.783,0,.935-.693,1.746-2.125,1.746a3.135,3.135,0,0,1-1.548-.387Z" transform="translate(-269.728 -111.44)"/><path class="c" d="M275.362,220.809v1.251H276.5v.6h-1.135v2.35c0,.54.154.845.595.845a1.771,1.771,0,0,0,.459-.053l.036.594a1.939,1.939,0,0,1-.7.108,1.1,1.1,0,0,1-.855-.333,1.61,1.61,0,0,1-.307-1.134v-2.377h-.675v-.6h.675v-1.044Z" transform="translate(-269.728 -111.44)"/><path class="c" d="M279.8,226.417l-.063-.549h-.027a1.623,1.623,0,0,1-1.333.648,1.241,1.241,0,0,1-1.332-1.251c0-1.054.936-1.63,2.62-1.62v-.091a.9.9,0,0,0-.99-1.008,2.174,2.174,0,0,0-1.135.324l-.18-.522a2.7,2.7,0,0,1,1.432-.387c1.332,0,1.656.909,1.656,1.782v1.63a6.133,6.133,0,0,0,.072,1.044Zm-.117-2.224c-.865-.017-1.846.135-1.846.982a.7.7,0,0,0,.747.756,1.085,1.085,0,0,0,1.054-.73.827.827,0,0,0,.045-.252Z" transform="translate(-269.728 -111.44)"/><path class="c" d="M281.725,223.419c0-.513-.009-.954-.036-1.359h.693l.027.855h.036a1.309,1.309,0,0,1,1.207-.954.9.9,0,0,1,.225.026v.748a1.193,1.193,0,0,0-.271-.027,1.111,1.111,0,0,0-1.062,1.018,2.207,2.207,0,0,0-.036.369v2.322h-.783Z" transform="translate(-269.728 -111.44)"/><path class="c" d="M285.838,220.809v1.251h1.134v.6h-1.134v2.35c0,.54.153.845.594.845a1.786,1.786,0,0,0,.46-.053l.035.594a1.939,1.939,0,0,1-.7.108,1.1,1.1,0,0,1-.855-.333,1.615,1.615,0,0,1-.306-1.134v-2.377h-.675v-.6h.675v-1.044Z" transform="translate(-269.728 -111.44)"/><path class="c" d="M275.417,228.169a5.942,5.942,0,0,0-1.135,3.683,6.059,6.059,0,0,0,1.135,3.654H274.8a5.826,5.826,0,0,1-1.179-3.654,5.953,5.953,0,0,1,1.179-3.683Z" transform="translate(-269.728 -111.44)"/><path class="c" d="M278.566,229.628v2.115H280.6v.54h-2.036v2.134h-.576v-2.134h-2.034v-.54h2.034v-2.115Z" transform="translate(-269.728 -111.44)"/><path class="c" d="M281.14,235.506a6.094,6.094,0,0,0,1.134-3.682,5.971,5.971,0,0,0-1.134-3.655h.612a5.735,5.735,0,0,1,1.18,3.664,5.843,5.843,0,0,1-1.18,3.673Z" transform="translate(-269.728 -111.44)"/><path class="a" d="M318.3,209.96c0,14.559,10.567,35.091,30.305,35.091,23.761,0,29.9-22.96,29.764-37.332" transform="translate(-269.728 -111.44)"/><line class="e" x1="44.064" y1="87.889" x2="44.064" y2="14.063"/><path class="f" d="M313.741,203.547a21.088,21.088,0,0,0-3.323-5.974l3.323,1.2,3.323-1.2A21.137,21.137,0,0,0,313.741,203.547Z" transform="translate(-269.728 -111.44)"/><line class="e" x1="87.332" y1="14.063" x2="87.332" y2="87.889"/><path class="f" d="M357.009,203.547a21.09,21.09,0,0,0-3.324-5.974l3.324,1.2,3.323-1.2A21.137,21.137,0,0,0,357.009,203.547Z" transform="translate(-269.728 -111.44)"/><line class="e" x1="103.761" y1="98.069" x2="103.761" y2="23.243"/><path class="f" d="M373.539,130.464a21.074,21.074,0,0,0,3.323,5.974l-3.323-1.2-3.323,1.2A21.123,21.123,0,0,0,373.539,130.464Z" transform="translate(-269.728 -111.44)"/><line class="e" x1="27.484" y1="98.069" x2="27.484" y2="23.243"/><path class="f" d="M297.262,130.464a21.123,21.123,0,0,0,3.323,5.974l-3.323-1.2-3.323,1.2A21.123,21.123,0,0,0,297.262,130.464Z" transform="translate(-269.728 -111.44)"/><line class="e" x1="106.14" y1="122.121" x2="110.425" y2="115.091"/><path class="f" d="M381.752,223.976a15.036,15.036,0,0,0-.194,4.88l-1.581-1.969-2.475-.5A15.1,15.1,0,0,0,381.752,223.976Z" transform="translate(-269.728 -111.44)"/><line class="e" x1="53.825" y1="106.3" x2="56.442" y2="114.107"/><path class="f" d="M327.093,228.416a15.1,15.1,0,0,0-3.609-3.294l2.526.06,1.98-1.568A15.059,15.059,0,0,0,327.093,228.416Z" transform="translate(-269.728 -111.44)"/><path class="c" d="M320.328,207.468H323.6v.657h-2.485v2.017h2.3v.648h-2.3v2.746h-.783Z" transform="translate(-269.728 -111.44)"/><path class="c" d="M325.332,207.954a.491.491,0,0,1-.981,0,.483.483,0,0,1,.5-.5A.47.47,0,0,1,325.332,207.954Zm-.882,5.582v-4.358h.792v4.358Z" transform="translate(-269.728 -111.44)"/><path class="c" d="M326.556,210.358c0-.45-.009-.819-.036-1.18h.7l.046.721h.017a1.6,1.6,0,0,1,1.441-.819c.6,0,1.539.359,1.539,1.854v2.6h-.792v-2.512c0-.7-.261-1.287-1.008-1.287a1.126,1.126,0,0,0-1.063.809,1.149,1.149,0,0,0-.054.37v2.62h-.792Z" transform="translate(-269.728 -111.44)"/><path class="c" d="M332.434,207.954a.491.491,0,0,1-.982,0,.483.483,0,0,1,.5-.5A.472.472,0,0,1,332.434,207.954Zm-.883,5.582v-4.358h.792v4.358Z" transform="translate(-269.728 -111.44)"/><path class="c" d="M333.549,212.725a2.076,2.076,0,0,0,1.044.316c.576,0,.846-.289.846-.649,0-.378-.224-.585-.81-.8-.783-.279-1.152-.712-1.152-1.233a1.343,1.343,0,0,1,1.5-1.278,2.187,2.187,0,0,1,1.072.269l-.2.576a1.709,1.709,0,0,0-.892-.252c-.468,0-.729.271-.729.595,0,.359.261.522.829.738.755.288,1.143.666,1.143,1.314,0,.765-.595,1.305-1.63,1.305a2.5,2.5,0,0,1-1.224-.3Z" transform="translate(-269.728 -111.44)"/><path class="c" d="M337.221,207.144h.792v2.719h.018a1.461,1.461,0,0,1,.568-.559,1.623,1.623,0,0,1,.809-.224c.586,0,1.522.359,1.522,1.863v2.593h-.792v-2.5c0-.7-.261-1.3-1.008-1.3a1.137,1.137,0,0,0-1.063.792.956.956,0,0,0-.054.378v2.629h-.792Z" transform="translate(-269.728 -111.44)"/><path class="c" d="M308.34,242.937a2.775,2.775,0,0,0,1.4.4c.8,0,1.27-.423,1.27-1.036,0-.566-.325-.89-1.144-1.206-.99-.351-1.6-.864-1.6-1.719a1.747,1.747,0,0,1,1.962-1.648,2.769,2.769,0,0,1,1.342.3l-.216.64a2.4,2.4,0,0,0-1.152-.288c-.829,0-1.143.5-1.143.909,0,.567.369.846,1.206,1.17,1.026.4,1.548.891,1.548,1.783,0,.935-.693,1.746-2.125,1.746a3.135,3.135,0,0,1-1.548-.387Z" transform="translate(-269.728 -111.44)"/><path class="c" d="M313.354,241.857a1.4,1.4,0,0,0,1.494,1.512,2.873,2.873,0,0,0,1.207-.225l.134.567a3.528,3.528,0,0,1-1.449.27,2.022,2.022,0,0,1-2.142-2.2,2.114,2.114,0,0,1,2.043-2.35,1.846,1.846,0,0,1,1.8,2.053,2.8,2.8,0,0,1-.027.369Zm2.322-.567a1.128,1.128,0,0,0-1.1-1.288,1.314,1.314,0,0,0-1.216,1.288Z" transform="translate(-269.728 -111.44)"/><path class="c" d="M317.421,240.893c0-.513-.009-.954-.036-1.359h.693l.027.855h.037a1.306,1.306,0,0,1,1.206-.954.889.889,0,0,1,.224.026v.748a1.174,1.174,0,0,0-.269-.027,1.112,1.112,0,0,0-1.063,1.018,2.318,2.318,0,0,0-.036.369v2.322h-.783Z" transform="translate(-269.728 -111.44)"/><path class="c" d="M321.282,238.309a.491.491,0,0,1-.981,0,.483.483,0,0,1,.5-.5A.47.47,0,0,1,321.282,238.309Zm-.882,5.582v-4.357h.792v4.357Z" transform="translate(-269.728 -111.44)"/><path class="c" d="M322.947,241.857a1.4,1.4,0,0,0,1.494,1.512,2.866,2.866,0,0,0,1.207-.225l.135.567a3.532,3.532,0,0,1-1.449.27,2.023,2.023,0,0,1-2.143-2.2,2.115,2.115,0,0,1,2.043-2.35,1.846,1.846,0,0,1,1.8,2.053,2.8,2.8,0,0,1-.027.369Zm2.323-.567a1.128,1.128,0,0,0-1.1-1.288,1.314,1.314,0,0,0-1.216,1.288Z" transform="translate(-269.728 -111.44)"/><path class="c" d="M326.907,243.081a2.076,2.076,0,0,0,1.044.315c.576,0,.847-.288.847-.648,0-.378-.226-.585-.811-.8-.783-.28-1.152-.712-1.152-1.234a1.343,1.343,0,0,1,1.5-1.278,2.171,2.171,0,0,1,1.071.27l-.2.576a1.7,1.7,0,0,0-.892-.252c-.467,0-.729.27-.729.595,0,.359.262.521.828.738.757.288,1.144.666,1.144,1.313,0,.766-.594,1.306-1.629,1.306a2.485,2.485,0,0,1-1.225-.3Z" transform="translate(-269.728 -111.44)"/><path class="c" d="M312.785,245.5h.792v6.391h-.792Z" transform="translate(-269.728 -111.44)"/><path class="c" d="M315.791,246.309a.491.491,0,0,1-.981,0,.483.483,0,0,1,.5-.5A.47.47,0,0,1,315.791,246.309Zm-.882,5.582v-4.357h.792v4.357Z" transform="translate(-269.728 -111.44)"/><path class="c" d="M317.015,248.713c0-.45-.009-.819-.036-1.179h.7l.046.72h.017a1.6,1.6,0,0,1,1.441-.819c.6,0,1.539.359,1.539,1.855v2.6h-.792v-2.512c0-.7-.261-1.287-1.008-1.287a1.126,1.126,0,0,0-1.063.81,1.139,1.139,0,0,0-.054.369v2.62h-.792Z" transform="translate(-269.728 -111.44)"/><path class="c" d="M322.793,249.533h.018c.108-.154.261-.343.387-.495l1.279-1.5h.954l-1.684,1.792,1.918,2.565H324.7l-1.5-2.089-.4.45v1.639h-.783V245.5h.783Z" transform="translate(-269.728 -111.44)"/><path class="c" d="M379.789,215.747h3.268v.657h-2.485v2.017h2.3v.647h-2.3v2.746h-.783Z" transform="translate(-269.728 -111.44)"/><path class="c" d="M384.793,216.232a.491.491,0,0,1-.981,0,.483.483,0,0,1,.5-.5A.471.471,0,0,1,384.793,216.232Zm-.882,5.582v-4.357h.792v4.357Z" transform="translate(-269.728 -111.44)"/><path class="c" d="M386.017,218.637c0-.45-.009-.82-.037-1.18h.7l.046.721h.017a1.6,1.6,0,0,1,1.441-.82c.6,0,1.539.36,1.539,1.855v2.6h-.792V219.3c0-.7-.261-1.287-1.008-1.287a1.126,1.126,0,0,0-1.063.809,1.147,1.147,0,0,0-.054.369v2.62h-.792Z" transform="translate(-269.728 -111.44)"/><path class="c" d="M391.9,216.232a.491.491,0,0,1-.982,0,.483.483,0,0,1,.5-.5A.471.471,0,0,1,391.9,216.232Zm-.883,5.582v-4.357h.792v4.357Z" transform="translate(-269.728 -111.44)"/><path class="c" d="M393.01,221a2.076,2.076,0,0,0,1.044.315c.576,0,.846-.288.846-.648,0-.378-.224-.585-.81-.8-.783-.279-1.152-.712-1.152-1.233a1.344,1.344,0,0,1,1.5-1.279,2.175,2.175,0,0,1,1.072.27l-.2.576a1.7,1.7,0,0,0-.891-.252c-.468,0-.729.271-.729.595,0,.359.261.521.828.738.756.288,1.144.666,1.144,1.314,0,.765-.595,1.305-1.63,1.305a2.484,2.484,0,0,1-1.224-.3Z" transform="translate(-269.728 -111.44)"/><path class="c" d="M396.682,215.423h.792v2.719h.018a1.461,1.461,0,0,1,.568-.559,1.623,1.623,0,0,1,.809-.225c.586,0,1.522.36,1.522,1.864v2.592H399.6v-2.5c0-.7-.261-1.3-1.008-1.3a1.137,1.137,0,0,0-1.063.792.956.956,0,0,0-.054.378v2.628h-.792Z" transform="translate(-269.728 -111.44)"/><path class="c" d="M339.534,223.867a2.775,2.775,0,0,0,1.4.4c.8,0,1.27-.423,1.27-1.035,0-.566-.324-.891-1.144-1.206-.99-.352-1.6-.864-1.6-1.72a1.747,1.747,0,0,1,1.963-1.647,2.756,2.756,0,0,1,1.341.3l-.216.639a2.421,2.421,0,0,0-1.153-.288c-.828,0-1.143.5-1.143.909,0,.568.369.847,1.207,1.17,1.026.4,1.548.892,1.548,1.784,0,.935-.694,1.746-2.124,1.746a3.136,3.136,0,0,1-1.549-.387Z" transform="translate(-269.728 -111.44)"/><path class="c" d="M344.97,219.212v1.251H346.1v.6H344.97v2.35c0,.54.153.845.594.845a1.713,1.713,0,0,0,.459-.054l.037.595a1.949,1.949,0,0,1-.7.108,1.1,1.1,0,0,1-.855-.333,1.615,1.615,0,0,1-.306-1.134v-2.377h-.675v-.6h.675v-1.044Z" transform="translate(-269.728 -111.44)"/><path class="c" d="M349.407,224.821l-.062-.549h-.028a1.622,1.622,0,0,1-1.332.647,1.242,1.242,0,0,1-1.333-1.251c0-1.053.937-1.629,2.62-1.62v-.09a.9.9,0,0,0-.99-1.008,2.177,2.177,0,0,0-1.135.324l-.179-.523a2.7,2.7,0,0,1,1.431-.386c1.332,0,1.657.909,1.657,1.782v1.63a6.133,6.133,0,0,0,.072,1.044Zm-.117-2.224c-.864-.017-1.845.135-1.845.982a.7.7,0,0,0,.747.755,1.083,1.083,0,0,0,1.053-.729.827.827,0,0,0,.045-.252Z" transform="translate(-269.728 -111.44)"/><path class="c" d="M351.333,221.823c0-.513-.01-.954-.036-1.36h.693l.027.856h.036a1.308,1.308,0,0,1,1.207-.954.9.9,0,0,1,.224.026v.748a1.19,1.19,0,0,0-.27-.027,1.111,1.111,0,0,0-1.062,1.017,2.231,2.231,0,0,0-.036.37v2.322h-.783Z" transform="translate(-269.728 -111.44)"/><path class="c" d="M355.446,219.212v1.251h1.134v.6h-1.134v2.35c0,.54.154.845.594.845a1.734,1.734,0,0,0,.46-.054l.035.595a1.931,1.931,0,0,1-.7.108,1.1,1.1,0,0,1-.854-.333,1.61,1.61,0,0,1-.307-1.134v-2.377H354v-.6h.675v-1.044Z" transform="translate(-269.728 -111.44)"/><path class="c" d="M346.325,226.573a5.938,5.938,0,0,0-1.135,3.682,6.066,6.066,0,0,0,1.135,3.655H345.7a5.827,5.827,0,0,1-1.179-3.655,5.952,5.952,0,0,1,1.179-3.682Z" transform="translate(-269.728 -111.44)"/><path class="c" d="M349,230.093v.585h-2.224v-.585Z" transform="translate(-269.728 -111.44)"/><path class="c" d="M349.447,233.91a6.094,6.094,0,0,0,1.134-3.682,5.969,5.969,0,0,0-1.134-3.655h.613a5.733,5.733,0,0,1,1.178,3.664,5.846,5.846,0,0,1-1.178,3.673Z" transform="translate(-269.728 -111.44)"/><path class="c" d="M329.929,239.825A3.171,3.171,0,1,1,333.1,243,3.171,3.171,0,0,1,329.929,239.825Z" transform="translate(-269.728 -111.44)"/></svg>