<svg xmlns="http://www.w3.org/2000/svg" viewBox="0 0 226.9 87.035"><defs><style>.a{fill:none;stroke-width:8px;}.a,.b{stroke:#d1d3d4;stroke-linecap:round;}.a,.b,.d{stroke-linejoin:round;}.b{fill:#d1d3d4;}.b,.d{stroke-width:5px;}.c,.d,.e,.h{fill:#fff;}.d{stroke:#fff;}.e,.f,.h{stroke:#231f20;}.f,.g{fill:#231f20;}.h{stroke-width:0.5px;}</style></defs><title>I-3200-super-switch-terminal-map-position-5</title><rect class="a" x="43.779" y="37.518" width="138.582" height="25.115"/><rect class="b" x="30.96" y="61.558" width="163.811" height="22.978"/><path class="c" d="M224.479,604.8a4.235,4.235,0,1,1-4.234-4.236A4.234,4.234,0,0,1,224.479,604.8Z" transform="translate(-184.51 -531.1)"/><path class="c" d="M379.053,604.8a4.235,4.235,0,1,1-4.235-4.236A4.235,4.235,0,0,1,379.053,604.8Z" transform="translate(-184.51 -531.1)"/><rect class="d" x="51.024" y="72.402" width="125.819" height="2.604"/><path class="e" d="M350.435,586.515" transform="translate(-184.51 -531.1)"/><path class="e" d="M241.315,586.515" transform="translate(-184.51 -531.1)"/><rect class="f" x="39.966" y="22.679" width="8.06" height="13.817"/><rect class="f" x="51.864" y="22.679" width="8.06" height="13.817"/><rect class="e" x="63.762" y="22.679" width="8.061" height="13.817"/><rect class="e" x="75.66" y="22.679" width="8.061" height="13.817"/><rect class="e" x="87.559" y="22.679" width="8.06" height="13.817"/><rect class="e" x="99.457" y="22.679" width="8.06" height="13.817"/><rect class="f" x="118.355" y="22.679" width="8.061" height="13.817"/><rect class="e" x="130.255" y="22.679" width="8.059" height="13.817"/><rect class="e" x="142.152" y="22.679" width="8.059" height="13.817"/><rect class="e" x="154.05" y="22.679" width="8.06" height="13.817"/><rect class="f" x="39.966" y="47.518" width="8.06" height="13.817"/><rect class="f" x="51.864" y="47.518" width="8.06" height="13.817"/><rect class="e" x="63.762" y="47.518" width="8.061" height="13.817"/><rect class="e" x="75.66" y="47.518" width="8.061" height="13.817"/><rect class="e" x="87.559" y="47.518" width="8.06" height="13.817"/><rect class="e" x="99.457" y="47.518" width="8.06" height="13.817"/><rect class="f" x="118.355" y="47.518" width="8.061" height="13.817"/><rect class="e" x="130.255" y="47.518" width="8.059" height="13.817"/><rect class="e" x="142.152" y="47.518" width="8.059" height="13.817"/><rect class="e" x="154.05" y="47.518" width="8.06" height="13.817"/><rect class="e" x="165.976" y="22.679" width="8.06" height="13.817"/><rect class="e" x="165.976" y="47.518" width="8.06" height="13.817"/><rect class="f" x="177.901" y="22.679" width="8.059" height="13.817"/><rect class="f" x="177.901" y="47.518" width="8.059" height="13.817"/><path class="g" d="M228.184,549.773c-.81,0-1.33-1.019-1.31-2.709,0-1.63.52-2.651,1.32-2.651.92,0,1.32,1.05,1.32,2.651,0,1.659-.43,2.709-1.32,2.709Zm-.02.68c1.42,0,2.25-1.22,2.25-3.43,0-2.07-.79-3.29-2.15-3.29-1.32,0-2.27,1.191-2.27,3.38.02,2.151.89,3.34,2.16,3.34Z" transform="translate(-184.51 -531.1)"/><path class="g" d="M241.914,544.584h-2.48l-.25,1.649a3.46,3.46,0,0,1,.529-.04,2.719,2.719,0,0,1,1.4.35,1.851,1.851,0,0,1,.93,1.69,2.254,2.254,0,0,1-2.42,2.22,3.207,3.207,0,0,1-1.62-.4l.221-.67a2.917,2.917,0,0,0,1.4.36,1.427,1.427,0,0,0,1.53-1.42c0-.86-.57-1.45-1.86-1.45a5.435,5.435,0,0,0-.91.07l.421-3.1h3.11Z" transform="translate(-184.51 -531.1)"/><path class="g" d="M250.573,547.893v-.02l1.59-2.21c.18-.309.34-.59.54-.97h.03q-.03.51-.03,1.02v2.18Zm2.96,2.451v-1.771h.91v-.68h-.91v-4.049h-.95l-2.9,4.16v.569h3.02v1.771Z" transform="translate(-184.51 -531.1)"/><path class="g" d="M262.143,549.344a3.041,3.041,0,0,0,1.44.4c1.12,0,1.48-.71,1.47-1.26-.01-.91-.83-1.3-1.68-1.3h-.49v-.661h.49c.64,0,1.45-.33,1.45-1.1,0-.521-.33-.981-1.14-.981a2.4,2.4,0,0,0-1.3.43l-.24-.64a3.154,3.154,0,0,1,1.71-.5c1.28,0,1.86.76,1.86,1.55a1.629,1.629,0,0,1-1.2,1.54v.021a1.675,1.675,0,0,1,1.45,1.66c0,1.039-.82,1.949-2.37,1.949a3.315,3.315,0,0,1-1.69-.439Z" transform="translate(-184.51 -531.1)"/><path class="g" d="M273.883,550.344V549.8l.69-.67c1.66-1.58,2.42-2.42,2.42-3.4a1.152,1.152,0,0,0-1.28-1.27,2.214,2.214,0,0,0-1.38.551l-.28-.621a2.886,2.886,0,0,1,1.84-.66,1.826,1.826,0,0,1,1.98,1.89c0,1.2-.87,2.17-2.24,3.49l-.51.481v.019h2.91v.731Z" transform="translate(-184.51 -531.1)"/><path class="g" d="M287.743,544.663h-.02l-1.13.61-.171-.669,1.421-.76h.75v6.5h-.85Z" transform="translate(-184.51 -531.1)"/><path class="g" d="M308.662,544.584h-2.48l-.25,1.649a3.475,3.475,0,0,1,.53-.04,2.719,2.719,0,0,1,1.4.35,1.852,1.852,0,0,1,.931,1.69,2.255,2.255,0,0,1-2.421,2.22,3.2,3.2,0,0,1-1.62-.4l.22-.67a2.922,2.922,0,0,0,1.4.36,1.428,1.428,0,0,0,1.53-1.42c0-.86-.57-1.45-1.86-1.45a5.426,5.426,0,0,0-.91.07l.42-3.1h3.11Z" transform="translate(-184.51 -531.1)"/><path class="g" d="M317.322,547.893v-.02l1.59-2.21c.18-.309.34-.59.54-.97h.03q-.03.51-.03,1.02v2.18Zm2.96,2.451v-1.771h.91v-.68h-.91v-4.049h-.95l-2.9,4.16v.569h3.02v1.771Z" transform="translate(-184.51 -531.1)"/><path class="g" d="M328.892,549.344a3.041,3.041,0,0,0,1.44.4c1.12,0,1.479-.71,1.47-1.26-.01-.91-.83-1.3-1.68-1.3h-.49v-.661h.49c.64,0,1.45-.33,1.45-1.1,0-.521-.33-.981-1.14-.981a2.4,2.4,0,0,0-1.3.43l-.24-.64a3.152,3.152,0,0,1,1.71-.5c1.28,0,1.86.76,1.86,1.55a1.629,1.629,0,0,1-1.2,1.54v.021a1.675,1.675,0,0,1,1.45,1.66c0,1.039-.82,1.949-2.37,1.949a3.319,3.319,0,0,1-1.691-.439Z" transform="translate(-184.51 -531.1)"/><path class="g" d="M340.632,550.344V549.8l.689-.67c1.66-1.58,2.42-2.42,2.42-3.4a1.151,1.151,0,0,0-1.279-1.27,2.212,2.212,0,0,0-1.38.551l-.28-.621a2.884,2.884,0,0,1,1.84-.66,1.826,1.826,0,0,1,1.979,1.89c0,1.2-.869,2.17-2.239,3.49l-.511.481v.019h2.91v.731Z" transform="translate(-184.51 -531.1)"/><path class="g" d="M354.491,544.663h-.019l-1.13.61-.171-.669,1.421-.76h.75v6.5h-.851Z" transform="translate(-184.51 -531.1)"/><path class="g" d="M366.631,549.773c-.81,0-1.33-1.019-1.31-2.709,0-1.63.52-2.651,1.32-2.651.92,0,1.32,1.05,1.32,2.651,0,1.659-.43,2.709-1.32,2.709Zm-.02.68c1.42,0,2.25-1.22,2.25-3.43,0-2.07-.79-3.29-2.15-3.29-1.32,0-2.27,1.191-2.27,3.38.02,2.151.89,3.34,2.161,3.34Z" transform="translate(-184.51 -531.1)"/><path class="g" d="M185.38,557.221a4.273,4.273,0,0,1,.82-.071c.96,0,1.59.43,1.59,1.331s-.63,1.429-1.69,1.429a2.922,2.922,0,0,1-.72-.07Zm-.87,6.029h.87v-2.7a3,3,0,0,0,.7.059,2.8,2.8,0,0,0,2.06-.739,1.949,1.949,0,0,0,.53-1.44,1.819,1.819,0,0,0-.6-1.41,2.769,2.769,0,0,0-1.89-.56,8.964,8.964,0,0,0-1.67.14Z" transform="translate(-184.51 -531.1)"/><path class="g" d="M191.541,562.7c-.85,0-1.45-.8-1.45-1.86,0-.92.45-1.88,1.48-1.88s1.45,1.03,1.45,1.851c0,1.1-.63,1.889-1.47,1.889Zm-.01.659a2.371,2.371,0,0,0,2.4-2.58,2.289,2.289,0,0,0-2.33-2.479,2.369,2.369,0,0,0-2.4,2.57,2.306,2.306,0,0,0,2.32,2.489Z" transform="translate(-184.51 -531.1)"/><path class="g" d="M195.041,556.15h.88v7.1h-.88Z" transform="translate(-184.51 -531.1)"/><path class="g" d="M197.891,560.35a1.451,1.451,0,0,1,1.35-1.43,1.256,1.256,0,0,1,1.21,1.43Zm3.38.64a2.257,2.257,0,0,0,.03-.42,2.043,2.043,0,0,0-1.99-2.28,2.36,2.36,0,0,0-2.28,2.62,2.258,2.258,0,0,0,2.38,2.44,3.943,3.943,0,0,0,1.62-.31l-.16-.62a3.337,3.337,0,0,1-1.34.24,1.543,1.543,0,0,1-1.65-1.679Z" transform="translate(-184.51 -531.1)"/><path class="g" d="M205.661,560.7l.19-1.45h1.04l-.19,1.45Zm-.34,2.55.25-1.96h1.04l-.26,1.96h.6l.259-1.96h.951v-.59h-.86l.179-1.45h.911v-.59h-.82l.25-1.91h-.591l-.25,1.91h-1.049l.259-1.91H205.6l-.26,1.91h-.95v.59h.87l-.19,1.45h-.92v.59h.829l-.259,1.96Z" transform="translate(-184.51 -531.1)"/><path class="g" d="M211.11,557.57h-.019l-1.131.61-.17-.67,1.42-.76h.75v6.5h-.85Z" transform="translate(-184.51 -531.1)"/><path class="g" d="M185.38,582.221a4.273,4.273,0,0,1,.82-.071c.96,0,1.59.43,1.59,1.331s-.63,1.429-1.69,1.429a2.922,2.922,0,0,1-.72-.07Zm-.87,6.029h.87v-2.7a3,3,0,0,0,.7.059,2.8,2.8,0,0,0,2.06-.739,1.949,1.949,0,0,0,.53-1.44,1.819,1.819,0,0,0-.6-1.41,2.769,2.769,0,0,0-1.89-.56,8.964,8.964,0,0,0-1.67.14Z" transform="translate(-184.51 -531.1)"/><path class="g" d="M191.541,587.7c-.85,0-1.45-.8-1.45-1.86,0-.92.45-1.88,1.48-1.88s1.45,1.03,1.45,1.851c0,1.1-.63,1.889-1.47,1.889Zm-.01.659a2.371,2.371,0,0,0,2.4-2.58,2.289,2.289,0,0,0-2.33-2.479,2.369,2.369,0,0,0-2.4,2.57,2.306,2.306,0,0,0,2.32,2.489Z" transform="translate(-184.51 -531.1)"/><path class="g" d="M195.041,581.15h.88v7.1h-.88Z" transform="translate(-184.51 -531.1)"/><path class="g" d="M197.891,585.35a1.451,1.451,0,0,1,1.35-1.43,1.256,1.256,0,0,1,1.21,1.43Zm3.38.64a2.257,2.257,0,0,0,.03-.42,2.043,2.043,0,0,0-1.99-2.28,2.36,2.36,0,0,0-2.28,2.62,2.258,2.258,0,0,0,2.38,2.44,3.943,3.943,0,0,0,1.62-.31l-.16-.62a3.337,3.337,0,0,1-1.34.24,1.543,1.543,0,0,1-1.65-1.679Z" transform="translate(-184.51 -531.1)"/><path class="g" d="M205.661,585.7l.19-1.45h1.04l-.19,1.45Zm-.34,2.55.25-1.96h1.04l-.26,1.96h.6l.259-1.96h.951v-.59h-.86l.179-1.45h.911v-.59h-.82l.25-1.91h-.591l-.25,1.91h-1.049l.259-1.91H205.6l-.26,1.91h-.95v.59h.87l-.19,1.45h-.92v.59h.829l-.259,1.96Z" transform="translate(-184.51 -531.1)"/><path class="g" d="M209.411,587.25a3.024,3.024,0,0,0,1.44.4c1.12,0,1.48-.71,1.47-1.259-.011-.91-.83-1.3-1.68-1.3h-.491v-.66h.491c.64,0,1.45-.33,1.45-1.1,0-.519-.33-.98-1.14-.98a2.4,2.4,0,0,0-1.3.429l-.239-.638a3.152,3.152,0,0,1,1.71-.5c1.279,0,1.859.759,1.859,1.549a1.63,1.63,0,0,1-1.2,1.541v.019a1.674,1.674,0,0,1,1.449,1.66c0,1.04-.819,1.949-2.37,1.949a3.308,3.308,0,0,1-1.69-.439Z" transform="translate(-184.51 -531.1)"/><path class="g" d="M383.13,557.221a4.273,4.273,0,0,1,.82-.071c.96,0,1.59.43,1.59,1.331s-.63,1.429-1.69,1.429a2.922,2.922,0,0,1-.72-.07Zm-.87,6.029h.87v-2.7a3,3,0,0,0,.7.059,2.8,2.8,0,0,0,2.06-.739,1.949,1.949,0,0,0,.53-1.44,1.819,1.819,0,0,0-.6-1.41,2.769,2.769,0,0,0-1.89-.56,8.964,8.964,0,0,0-1.67.14Z" transform="translate(-184.51 -531.1)"/><path class="g" d="M389.291,562.7c-.85,0-1.45-.8-1.45-1.86,0-.92.45-1.88,1.48-1.88s1.449,1.03,1.449,1.851c0,1.1-.629,1.889-1.469,1.889Zm-.01.659a2.371,2.371,0,0,0,2.4-2.58,2.289,2.289,0,0,0-2.33-2.479,2.368,2.368,0,0,0-2.4,2.57,2.305,2.305,0,0,0,2.319,2.489Z" transform="translate(-184.51 -531.1)"/><path class="g" d="M392.791,556.15h.88v7.1h-.88Z" transform="translate(-184.51 -531.1)"/><path class="g" d="M395.641,560.35a1.451,1.451,0,0,1,1.35-1.43,1.256,1.256,0,0,1,1.21,1.43Zm3.379.64a2.159,2.159,0,0,0,.031-.42,2.043,2.043,0,0,0-1.991-2.28,2.36,2.36,0,0,0-2.279,2.62,2.258,2.258,0,0,0,2.38,2.44,3.943,3.943,0,0,0,1.62-.31l-.16-.62a3.337,3.337,0,0,1-1.34.24,1.542,1.542,0,0,1-1.65-1.679Z" transform="translate(-184.51 -531.1)"/><path class="g" d="M403.411,560.7l.19-1.45h1.04l-.191,1.45Zm-.341,2.55.25-1.96h1.04l-.259,1.96h.6l.261-1.96h.95v-.59h-.86l.179-1.45h.911v-.59h-.821l.25-1.91h-.59l-.25,1.91h-1.049l.259-1.91h-.589l-.26,1.91h-.95v.59h.87l-.191,1.45h-.92v.59h.83l-.259,1.96Z" transform="translate(-184.51 -531.1)"/><path class="g" d="M406.95,563.25v-.54l.691-.67c1.66-1.58,2.419-2.42,2.419-3.4a1.152,1.152,0,0,0-1.28-1.271,2.214,2.214,0,0,0-1.38.55l-.279-.62a2.884,2.884,0,0,1,1.84-.659,1.824,1.824,0,0,1,1.979,1.888c0,1.2-.87,2.171-2.24,3.491l-.51.48v.02H411.1v.73Z" transform="translate(-184.51 -531.1)"/><path class="g" d="M383.13,582.221a4.273,4.273,0,0,1,.82-.071c.96,0,1.59.43,1.59,1.331s-.63,1.429-1.69,1.429a2.922,2.922,0,0,1-.72-.07Zm-.87,6.029h.87v-2.7a3,3,0,0,0,.7.059,2.8,2.8,0,0,0,2.06-.739,1.949,1.949,0,0,0,.53-1.44,1.819,1.819,0,0,0-.6-1.41,2.769,2.769,0,0,0-1.89-.56,8.964,8.964,0,0,0-1.67.14Z" transform="translate(-184.51 -531.1)"/><path class="g" d="M389.291,587.7c-.85,0-1.45-.8-1.45-1.86,0-.92.45-1.88,1.48-1.88s1.449,1.03,1.449,1.851c0,1.1-.629,1.889-1.469,1.889Zm-.01.659a2.371,2.371,0,0,0,2.4-2.58,2.289,2.289,0,0,0-2.33-2.479,2.368,2.368,0,0,0-2.4,2.57,2.305,2.305,0,0,0,2.319,2.489Z" transform="translate(-184.51 -531.1)"/><path class="g" d="M392.791,581.15h.88v7.1h-.88Z" transform="translate(-184.51 -531.1)"/><path class="g" d="M395.641,585.35a1.451,1.451,0,0,1,1.35-1.43,1.256,1.256,0,0,1,1.21,1.43Zm3.379.64a2.159,2.159,0,0,0,.031-.42,2.043,2.043,0,0,0-1.991-2.28,2.36,2.36,0,0,0-2.279,2.62,2.258,2.258,0,0,0,2.38,2.44,3.943,3.943,0,0,0,1.62-.31l-.16-.62a3.337,3.337,0,0,1-1.34.24,1.542,1.542,0,0,1-1.65-1.679Z" transform="translate(-184.51 -531.1)"/><path class="g" d="M403.411,585.7l.19-1.45h1.04l-.191,1.45Zm-.341,2.55.25-1.96h1.04l-.259,1.96h.6l.261-1.96h.95v-.59h-.86l.179-1.45h.911v-.59h-.821l.25-1.91h-.59l-.25,1.91h-1.049l.259-1.91h-.589l-.26,1.91h-.95v.59h.87l-.191,1.45h-.92v.59h.83l-.259,1.96Z" transform="translate(-184.51 -531.1)"/><path class="g" d="M407.541,585.8v-.021l1.59-2.209c.179-.31.34-.589.54-.97h.029c-.019.34-.029.679-.029,1.02v2.18Zm2.96,2.45v-1.769h.909V585.8H410.5v-4.05h-.95l-2.9,4.16v.571h3.021v1.769Z" transform="translate(-184.51 -531.1)"/><path class="g" d="M273.17,532.67a2.762,2.762,0,0,1,.63-.05c.77,0,1.19.37,1.19.99,0,.68-.5,1.09-1.31,1.09a2.33,2.33,0,0,1-.51-.04Zm-1.51,5.58h1.51v-2.42a2.616,2.616,0,0,0,.52.04,3.2,3.2,0,0,0,2.2-.71,2.115,2.115,0,0,0,.61-1.6,1.928,1.928,0,0,0-.71-1.55,3.2,3.2,0,0,0-2.07-.55,12.476,12.476,0,0,0-2.06.14Z" transform="translate(-184.51 -531.1)"/><path class="g" d="M279.441,537.27c-.64,0-.99-.63-.99-1.46,0-.73.28-1.47,1-1.47.69,0,.97.74.97,1.46,0,.88-.37,1.47-.97,1.47Zm-.01,1.09a2.448,2.448,0,0,0,2.57-2.6,2.378,2.378,0,0,0-2.49-2.51,2.444,2.444,0,0,0-2.62,2.59,2.4,2.4,0,0,0,2.53,2.52Z" transform="translate(-184.51 -531.1)"/><path class="g" d="M282.931,536.93a2.971,2.971,0,0,0,1.31.36c.46,0,.65-.15.65-.4s-.15-.38-.71-.57c-1.02-.33-1.41-.89-1.4-1.46,0-.92.78-1.61,1.99-1.61a3.214,3.214,0,0,1,1.37.29l-.26,1.04a2.6,2.6,0,0,0-1.06-.27c-.37,0-.58.15-.58.39s.19.36.79.57c.93.31,1.31.79,1.32,1.5,0,.92-.71,1.59-2.11,1.59a3.454,3.454,0,0,1-1.58-.35Z" transform="translate(-184.51 -531.1)"/><path class="g" d="M288.041,532.72a.846.846,0,1,0-.01,0Zm.76,5.53v-4.89h-1.52v4.89Z" transform="translate(-184.51 -531.1)"/><path class="g" d="M291.721,532.03v1.33h1.089v1.121h-1.089v1.779c0,.59.15.86.6.86a1.855,1.855,0,0,0,.449-.04l.011,1.151a3.237,3.237,0,0,1-.98.129,1.625,1.625,0,0,1-1.151-.42,2.031,2.031,0,0,1-.42-1.45v-2.009h-.649V533.36h.649v-.92Z" transform="translate(-184.51 -531.1)"/><path class="g" d="M293.69,538.25v-4.89h1.52v4.89Zm.75-5.53a.866.866,0,1,1,.011,0Z" transform="translate(-184.51 -531.1)"/><path class="g" d="M298.7,537.27c-.64,0-.99-.63-.99-1.46,0-.73.28-1.47,1-1.47.69,0,.97.74.97,1.46,0,.88-.37,1.47-.97,1.47Zm-.01,1.09a2.448,2.448,0,0,0,2.57-2.6,2.378,2.378,0,0,0-2.49-2.51,2.444,2.444,0,0,0-2.62,2.59,2.4,2.4,0,0,0,2.53,2.52Z" transform="translate(-184.51 -531.1)"/><path class="g" d="M302.2,534.92c0-.61-.02-1.12-.04-1.56h1.32l.07.68h.031a1.753,1.753,0,0,1,1.509-.79c1,0,1.75.67,1.75,2.11v2.89h-1.52v-2.71c0-.63-.219-1.059-.77-1.059a.834.834,0,0,0-.78.569,1.1,1.1,0,0,0-.05.38v2.82H302.2Z" transform="translate(-184.51 -531.1)"/><path class="g" d="M314.23,533h-2.52l-.14.99c.14-.009.26-.02.42-.02a2.951,2.951,0,0,1,1.71.47,1.856,1.856,0,0,1,.79,1.64c0,1.21-1.04,2.28-2.79,2.28a4.122,4.122,0,0,1-1.809-.37l.279-1.14a3.637,3.637,0,0,0,1.46.32c.631,0,1.3-.3,1.3-.99s-.531-1.09-1.83-1.09a5.394,5.394,0,0,0-.871.06l.42-3.4h3.58Z" transform="translate(-184.51 -531.1)"/><path class="h" d="M227.5,564.75V571a1,1,0,0,0,1,1h12a1,1,0,0,0,1-1v-6.216a1,1,0,0,0-2,0V570h-10v-5.25a1,1,0,0,0-2,0Z" transform="translate(-184.51 -531.1)"/><path class="h" d="M227.5,589.5v6.25a1,1,0,0,0,1,1h12a1,1,0,0,0,1-1v-6.216a1,1,0,0,0-2,0v5.216h-10V589.5a1,1,0,0,0-2,0Z" transform="translate(-184.51 -531.1)"/><path class="h" d="M306.25,589.5v6.25a1,1,0,0,0,1,1h59a1,1,0,0,0,1-1v-6.216a1,1,0,0,0-2,0v5.216h-57V589.5a1,1,0,0,0-2,0Z" transform="translate(-184.51 -531.1)"/><path class="h" d="M306.25,564.75V571a1,1,0,0,0,1,1h59a1,1,0,0,0,1-1v-6.216a1,1,0,0,0-2,0V570h-57v-5.25a1,1,0,0,0-2,0Z" transform="translate(-184.51 -531.1)"/></svg>