<svg xmlns="http://www.w3.org/2000/svg" viewBox="0 0 107.317 91.354"><defs><style>.a{fill:#bcbec0;}.a,.b,.c,.d{stroke:#231f20;}.b,.g{fill:#fff;}.c,.e{fill:#231f20;}.d,.f{fill:none;}.f{stroke:#fff;stroke-width:1.2px;}</style></defs><title>I-3200-super-switch-variation-1</title><rect class="a" x="27.477" y="51.394" width="36.625" height="22.5"/><ellipse class="b" cx="45.353" cy="41.394" rx="23.75" ry="25"/><circle class="c" cx="31.782" cy="73.949" r="4.278"/><circle class="c" cx="45.603" cy="73.949" r="4.278"/><circle class="c" cx="59.423" cy="73.949" r="4.278"/><circle class="c" cx="59.923" cy="46.199" r="4.278"/><polyline class="d" points="62.728 46.144 74.853 56.144 74.853 73.894 61.978 73.894"/><polyline class="d" points="28.478 73.519 10.603 73.519 10.603 65.269"/><polyline class="d" points="46.978 77.269 52.978 86.394 63.978 86.394"/><polyline class="e" points="87.652 51.444 92.606 60.349 97.561 51.444 87.652 51.444"/><line class="f" x1="86.406" y1="53.841" x2="98.897" y2="53.841"/><line class="f" x1="86.184" y1="56.7" x2="98.675" y2="56.7"/><polyline class="e" points="5.652 60.694 10.606 69.599 15.561 60.694 5.652 60.694"/><polyline class="e" points="63.154 91.351 72.059 86.396 63.154 81.442 63.154 91.351"/><polyline class="d" points="60.353 45.644 92.478 45.644 92.478 51.769"/><path class="e" d="M234.2,329.673l-6.437-20.09h4.977l2.444,8.495c.685,2.414,1.311,4.679,1.788,7.183h.089c.507-2.414,1.133-4.8,1.818-7.094l2.563-8.584h4.828l-6.765,20.09Z" transform="translate(-191.522 -277.606)"/><path class="e" d="M193.8,328.9v6.066h-.792V328.9Z" transform="translate(-191.522 -277.606)"/><path class="e" d="M195.142,331.787c0-.459-.01-.819-.037-1.179h.7l.044.711h.019a1.61,1.61,0,0,1,1.439-.81c.6,0,1.54.36,1.54,1.854v2.6h-.792v-2.511c0-.7-.262-1.3-1.009-1.3a1.144,1.144,0,0,0-1.062.81,1.209,1.209,0,0,0-.053.369v2.628h-.792Z" transform="translate(-191.522 -277.606)"/><path class="e" d="M200.928,332.435a2.158,2.158,0,0,1,.046-.324,1.264,1.264,0,0,1,1.205-.972c.838,0,1.287.747,1.287,1.62,0,1-.486,1.683-1.322,1.683a1.213,1.213,0,0,1-1.18-.927,1.278,1.278,0,0,1-.036-.324Zm-.792,4.311h.792v-2.367h.018a1.519,1.519,0,0,0,1.342.684,2.067,2.067,0,0,0,1.98-2.34,1.974,1.974,0,0,0-1.854-2.214,1.681,1.681,0,0,0-1.54.846h-.018l-.045-.747h-.71c.026.414.035.864.035,1.422Z" transform="translate(-191.522 -277.606)"/><path class="e" d="M208.9,333.776c0,.45.009.846.036,1.188h-.7l-.045-.711h-.018a1.627,1.627,0,0,1-1.44.81c-.684,0-1.5-.387-1.5-1.908v-2.547h.792v2.4c0,.828.261,1.395.972,1.395a1.139,1.139,0,0,0,1.044-.729,1.086,1.086,0,0,0,.072-.405v-2.664h.792Z" transform="translate(-191.522 -277.606)"/><path class="e" d="M211.17,329.564v1.044H212.3v.6H211.17v2.349c0,.54.153.846.594.846a1.479,1.479,0,0,0,.459-.054l.036.6a2.159,2.159,0,0,1-.7.108,1.13,1.13,0,0,1-.855-.333,1.7,1.7,0,0,1-.306-1.143v-2.376h-.675v-.6h.675v-.8Z" transform="translate(-191.522 -277.606)"/><path class="e" d="M276.078,345.9a5.489,5.489,0,0,1-1.872.333,2.848,2.848,0,0,1-3.114-3.06,3.037,3.037,0,0,1,3.284-3.132,3.8,3.8,0,0,1,1.521.279l-.2.639a3.018,3.018,0,0,0-1.342-.261,2.269,2.269,0,0,0-2.439,2.439,2.219,2.219,0,0,0,2.341,2.448,2.561,2.561,0,0,0,1.044-.162v-1.809H274.08v-.63h2Z" transform="translate(-191.522 -277.606)"/><path class="e" d="M277.265,343.172c0-.513-.009-.954-.036-1.359h.693l.036.855h.027a1.317,1.317,0,0,1,1.215-.954.835.835,0,0,1,.216.027v.738a2.566,2.566,0,0,0-.279-.018,1.11,1.11,0,0,0-1.062,1.008,2.489,2.489,0,0,0-.027.378v2.322h-.792Z" transform="translate(-191.522 -277.606)"/><path class="e" d="M281.937,345.674c-.765,0-1.305-.72-1.305-1.674,0-.828.4-1.692,1.332-1.692s1.305.927,1.305,1.665c0,.99-.567,1.7-1.323,1.7Zm-.009.594a2.135,2.135,0,0,0,2.16-2.322,2.06,2.06,0,0,0-2.1-2.232,2.132,2.132,0,0,0-2.16,2.313,2.076,2.076,0,0,0,2.088,2.241Z" transform="translate(-191.522 -277.606)"/><path class="e" d="M288.732,344.981c0,.45.009.846.037,1.188h-.7l-.045-.711H288a1.627,1.627,0,0,1-1.44.81c-.684,0-1.5-.387-1.5-1.908v-2.547h.792v2.4c0,.828.261,1.395.972,1.395a1.139,1.139,0,0,0,1.044-.729,1.086,1.086,0,0,0,.072-.405v-2.664h.792Z" transform="translate(-191.522 -277.606)"/><path class="e" d="M290.046,342.992c0-.459-.009-.819-.036-1.179h.7l.045.711h.018a1.613,1.613,0,0,1,1.44-.81c.6,0,1.539.36,1.539,1.854v2.6h-.792v-2.511c0-.7-.261-1.3-1.008-1.3a1.143,1.143,0,0,0-1.062.81,1.178,1.178,0,0,0-.054.369v2.628h-.792Z" transform="translate(-191.522 -277.606)"/><path class="e" d="M298.011,344.342a1.376,1.376,0,0,1-.036.342,1.2,1.2,0,0,1-1.161.945c-.846,0-1.287-.729-1.287-1.62,0-.954.486-1.674,1.305-1.674a1.166,1.166,0,0,1,1.143.909,1.473,1.473,0,0,1,.036.342Zm0-4.563v2.592h-.018a1.448,1.448,0,0,0-1.314-.657,2.084,2.084,0,0,0-1.953,2.34,1.992,1.992,0,0,0,1.872,2.214,1.6,1.6,0,0,0,1.476-.855h.018l.036.756h.711c-.027-.3-.036-.738-.036-1.125v-5.265Z" transform="translate(-191.522 -277.606)"/><path class="e" d="M268.944,366.638c-1.233,0-1.935-1.179-1.935-2.457,0-1.314.648-2.529,1.953-2.529s1.935,1.26,1.935,2.466c0,1.377-.7,2.52-1.944,2.52Zm-.018.639c1.539,0,2.808-1.116,2.808-3.195A2.764,2.764,0,0,0,269,361.013a2.875,2.875,0,0,0-2.808,3.186,2.775,2.775,0,0,0,2.726,3.078Z" transform="translate(-191.522 -277.606)"/><path class="e" d="M276.369,365.99c0,.45.009.846.036,1.188h-.7l-.045-.711h-.018a1.627,1.627,0,0,1-1.44.81c-.684,0-1.5-.387-1.5-1.908v-2.547h.792v2.4c0,.828.26,1.395.972,1.395a1.139,1.139,0,0,0,1.044-.729,1.086,1.086,0,0,0,.072-.405v-2.664h.792Z" transform="translate(-191.522 -277.606)"/><path class="e" d="M278.637,361.778v1.044h1.133v.6h-1.133v2.349c0,.54.153.846.593.846a1.47,1.47,0,0,0,.459-.054l.037.6a2.161,2.161,0,0,1-.7.108,1.131,1.131,0,0,1-.855-.333,1.707,1.707,0,0,1-.305-1.143v-2.376h-.676v-.6h.676v-.8Z" transform="translate(-191.522 -277.606)"/><path class="e" d="M281.454,364.649a2.145,2.145,0,0,1,.044-.324,1.266,1.266,0,0,1,1.207-.972c.836,0,1.287.747,1.287,1.62,0,1-.487,1.683-1.324,1.683a1.21,1.21,0,0,1-1.178-.927,1.234,1.234,0,0,1-.036-.324Zm-.792,4.311h.792v-2.367h.018a1.514,1.514,0,0,0,1.34.684,2.066,2.066,0,0,0,1.98-2.34,1.974,1.974,0,0,0-1.854-2.214,1.682,1.682,0,0,0-1.539.846h-.018l-.045-.747h-.711c.027.414.037.864.037,1.422Z" transform="translate(-191.522 -277.606)"/><path class="e" d="M289.427,365.99c0,.45.009.846.036,1.188h-.7l-.045-.711H288.7a1.627,1.627,0,0,1-1.44.81c-.684,0-1.5-.387-1.5-1.908v-2.547h.792v2.4c0,.828.262,1.395.972,1.395a1.139,1.139,0,0,0,1.044-.729,1.086,1.086,0,0,0,.072-.405v-2.664h.792Z" transform="translate(-191.522 -277.606)"/><path class="e" d="M291.7,361.778v1.044h1.135v.6H291.7v2.349c0,.54.154.846.6.846a1.476,1.476,0,0,0,.458-.054l.036.6a2.159,2.159,0,0,1-.7.108,1.13,1.13,0,0,1-.855-.333,1.7,1.7,0,0,1-.306-1.143v-2.376h-.674v-.6h.674v-.8Z" transform="translate(-191.522 -277.606)"/><path class="e" d="M193.466,284.041l-1.944-6.066h1.5l.738,2.565c.207.729.4,1.413.54,2.169h.028c.152-.729.341-1.45.548-2.143l.774-2.591h1.458l-2.043,6.066Z" transform="translate(-191.522 -277.606)"/><path class="e" d="M199.245,283.159c-.576,0-.891-.568-.891-1.314,0-.657.252-1.323.9-1.323.621,0,.873.666.873,1.313,0,.792-.333,1.324-.873,1.324Zm-.009.981a2.2,2.2,0,0,0,2.313-2.341,2.139,2.139,0,0,0-2.241-2.258,2.2,2.2,0,0,0-2.358,2.331,2.156,2.156,0,0,0,2.277,2.268Z" transform="translate(-191.522 -277.606)"/><path class="e" d="M202.4,277.65h1.368v6.391H202.4Z" transform="translate(-191.522 -277.606)"/><path class="e" d="M209.01,282.627c0,.577.018,1.044.036,1.414h-1.188l-.063-.622h-.027a1.568,1.568,0,0,1-1.377.721c-.9,0-1.548-.558-1.548-1.917V279.64h1.368v2.366c0,.64.207,1.027.693,1.027a.759.759,0,0,0,.738-.775V279.64h1.368Z" transform="translate(-191.522 -277.606)"/><path class="e" d="M210.108,281.044c0-.549-.018-1.008-.036-1.4h1.161l.054.6h.027a1.523,1.523,0,0,1,1.332-.7,1.245,1.245,0,0,1,1.206.755h.018a1.927,1.927,0,0,1,.576-.54,1.686,1.686,0,0,1,.837-.215c.846,0,1.485.593,1.485,1.908v2.592h-1.332v-2.386c0-.638-.207-1.007-.648-1.007a.68.68,0,0,0-.639.477,1.416,1.416,0,0,0-.045.341v2.575h-1.332v-2.466c0-.55-.2-.927-.639-.927a.7.7,0,0,0-.639.485.932.932,0,0,0-.054.351v2.557h-1.332Z" transform="translate(-191.522 -277.606)"/><path class="e" d="M218.892,281.332a.906.906,0,0,1,.855-.892.8.8,0,0,1,.765.892Zm2.844.944a3.47,3.47,0,0,0,.045-.548,1.953,1.953,0,0,0-1.962-2.2,2.21,2.21,0,0,0-2.223,2.349,2.114,2.114,0,0,0,2.349,2.25,4.161,4.161,0,0,0,1.593-.278l-.18-.928a3.625,3.625,0,0,1-1.215.189c-.639,0-1.2-.269-1.242-.845Z" transform="translate(-191.522 -277.606)"/><path class="e" d="M225.786,281.547a1.05,1.05,0,0,1,.027-.242.859.859,0,0,1,.819-.694c.612,0,.927.532.927,1.234,0,.746-.351,1.241-.945,1.241a.827.827,0,0,1-.8-.647,1.434,1.434,0,0,1-.027-.289Zm-1.368,4.276h1.368v-2.187h.018a1.37,1.37,0,0,0,1.143.5,2.1,2.1,0,0,0,2-2.358,1.993,1.993,0,0,0-1.827-2.241,1.711,1.711,0,0,0-1.467.711h-.018l-.063-.612h-1.188c.018.414.036.9.036,1.476Z" transform="translate(-191.522 -277.606)"/><path class="e" d="M231.869,283.159c-.576,0-.891-.568-.891-1.314,0-.657.252-1.323.9-1.323.621,0,.873.666.873,1.313,0,.792-.333,1.324-.873,1.324Zm-.009.981a2.2,2.2,0,0,0,2.313-2.341,2.139,2.139,0,0,0-2.241-2.258,2.2,2.2,0,0,0-2.358,2.331,2.156,2.156,0,0,0,2.277,2.268Z" transform="translate(-191.522 -277.606)"/><path class="e" d="M236.549,278.442v1.2h.981v1.008h-.981v1.6c0,.53.135.773.54.773a1.633,1.633,0,0,0,.405-.036l.009,1.036a2.911,2.911,0,0,1-.882.117,1.466,1.466,0,0,1-1.035-.378,1.823,1.823,0,0,1-.378-1.305v-1.809h-.585V279.64h.585v-.828Z" transform="translate(-191.522 -277.606)"/><path class="e" d="M242.111,277.821a7.728,7.728,0,0,0,0,7.273h-.954a6.352,6.352,0,0,1-1.026-3.628,6.442,6.442,0,0,1,1.026-3.645Z" transform="translate(-191.522 -277.606)"/><path class="e" d="M243.983,279.64l.594,2.043c.108.368.18.719.252,1.07h.027c.072-.359.144-.692.243-1.07l.567-2.043h1.44l-1.638,4.4H244.1l-1.6-4.4Z" transform="translate(-191.522 -277.606)"/><path class="e" d="M249.924,282.439a.967.967,0,0,1-.027.233.755.755,0,0,1-.711.5.492.492,0,0,1-.54-.523c0-.522.559-.693,1.278-.693Zm1.324-1a1.7,1.7,0,0,0-1.927-1.9,3.614,3.614,0,0,0-1.71.4l.252.873a2.575,2.575,0,0,1,1.216-.325c.674,0,.8.333.8.568v.053c-1.557,0-2.583.541-2.583,1.684a1.349,1.349,0,0,0,1.422,1.35,1.586,1.586,0,0,0,1.26-.54h.027l.081.441h1.233a5.812,5.812,0,0,1-.071-1.062Z" transform="translate(-191.522 -277.606)"/><path class="e" d="M252.345,281.088c0-.648-.009-1.07-.035-1.448h1.169l.054.819h.036a1.282,1.282,0,0,1,1.188-.918,1.367,1.367,0,0,1,.288.026v1.288a2.14,2.14,0,0,0-.378-.037.873.873,0,0,0-.936.694,1.549,1.549,0,0,0-.026.305v2.224h-1.369Z" transform="translate(-191.522 -277.606)"/><path class="e" d="M256.423,279.064a.761.761,0,1,0-.009,0Zm.684,4.977v-4.4h-1.368v4.4Z" transform="translate(-191.522 -277.606)"/><path class="e" d="M260.544,282.439a.967.967,0,0,1-.026.233.756.756,0,0,1-.711.5.492.492,0,0,1-.54-.523c0-.522.558-.693,1.277-.693Zm1.324-1a1.7,1.7,0,0,0-1.927-1.9,3.621,3.621,0,0,0-1.71.4l.252.873a2.575,2.575,0,0,1,1.216-.325c.674,0,.8.333.8.568v.053c-1.557,0-2.583.541-2.583,1.684a1.35,1.35,0,0,0,1.422,1.35,1.589,1.589,0,0,0,1.261-.54h.026l.081.441h1.233a5.812,5.812,0,0,1-.071-1.062Z" transform="translate(-191.522 -277.606)"/><path class="e" d="M264.416,278.442v1.2h.981v1.008h-.981v1.6c0,.53.135.773.54.773a1.633,1.633,0,0,0,.4-.036l.009,1.036a2.911,2.911,0,0,1-.882.117,1.466,1.466,0,0,1-1.035-.378,1.823,1.823,0,0,1-.378-1.305v-1.809h-.585V279.64h.585v-.828Z" transform="translate(-191.522 -277.606)"/><path class="e" d="M266.189,284.041v-4.4h1.368v4.4Zm.675-4.977a.78.78,0,1,1,.009,0Z" transform="translate(-191.522 -277.606)"/><path class="e" d="M270.7,283.159c-.576,0-.891-.568-.891-1.314,0-.657.252-1.323.9-1.323.621,0,.873.666.873,1.313,0,.792-.333,1.324-.873,1.324Zm-.009.981A2.2,2.2,0,0,0,273,281.8a2.139,2.139,0,0,0-2.241-2.258,2.2,2.2,0,0,0-2.358,2.331,2.156,2.156,0,0,0,2.277,2.268Z" transform="translate(-191.522 -277.606)"/><path class="e" d="M273.848,281.044c0-.549-.018-1.008-.036-1.4H275l.063.612h.027a1.578,1.578,0,0,1,1.359-.711c.9,0,1.575.6,1.575,1.9v2.6h-1.368V281.6c0-.567-.2-.954-.693-.954a.751.751,0,0,0-.7.513.983.983,0,0,0-.045.341v2.539h-1.368Z" transform="translate(-191.522 -277.606)"/><path class="e" d="M282.515,279.4H282.5l-1.116.532-.225-1.026,1.557-.721h1.125v5.851h-1.323Z" transform="translate(-191.522 -277.606)"/><path class="e" d="M285.7,285.094a7.728,7.728,0,0,0,0-7.273h.954a6.321,6.321,0,0,1,1.026,3.637,6.459,6.459,0,0,1-1.026,3.636Z" transform="translate(-191.522 -277.606)"/><path class="g" d="M221.621,352.909a3.1,3.1,0,0,0,1.358.36c.711,0,1.071-.342,1.071-.774,0-.585-.575-.846-1.17-.846h-.557v-.981h.53c.459,0,1.035-.18,1.035-.675,0-.351-.279-.612-.864-.612a2.6,2.6,0,0,0-1.214.351l-.279-.99a3.638,3.638,0,0,1,1.808-.441c1.242,0,1.935.657,1.935,1.458a1.394,1.394,0,0,1-1.071,1.359v.018a1.456,1.456,0,0,1,1.269,1.431c0,1.026-.909,1.782-2.393,1.782a3.565,3.565,0,0,1-1.737-.4Z" transform="translate(-191.522 -277.606)"/><path class="g" d="M235.109,354.25v-.828l.746-.675c1.288-1.152,1.908-1.809,1.917-2.493,0-.477-.279-.855-.954-.855a2.168,2.168,0,0,0-1.25.477l-.387-.972a3.208,3.208,0,0,1,1.907-.6,1.814,1.814,0,0,1,2.052,1.836,3.6,3.6,0,0,1-1.557,2.52l-.54.45v.018h2.214v1.125Z" transform="translate(-191.522 -277.606)"/><path class="g" d="M250.567,349.615h-.018l-1.115.531-.226-1.026,1.557-.72h1.125v5.85h-1.323Z" transform="translate(-191.522 -277.606)"/></svg>