<svg xmlns="http://www.w3.org/2000/svg" width="24" height="24"><g fill="none" fill-rule="evenodd"><path fill="#E5E5E5" d="M24 12.26C24 18.746 18.628 24 12 24S0 18.745 0 12.26C0 5.779 5.372.522 12 .522s12 5.257 12 11.74"/><path fill="#004990" d="M12.033.886c-1.748 0-3.405.379-4.892 1.052v2.2l4.986-3.25-.094-.002zm7.065 11.217l-.586-.604-.586.604.119-.825-.848-.072.732-.424-.47-.692.792.295.26-.792.262.792.793-.295-.47.692.733.424-.85.072.119.825zM6.59 20.506l-1.198-1.233-1.198 1.233.238-1.685-1.731-.147 1.494-.868-.962-1.417 1.627.603.532-1.619.533 1.619 1.626-.603-.963 1.417 1.495.868-1.73.147.237 1.685zm7.545-19.43v1.131L10.04 4.88h4.096v3.42h-4.112l4.112 2.682v1.31h-2.021L7.14 9.05v3.242H3.644V9.05L.432 11.143c-.04.378-.06.761-.06 1.148 0 6.3 5.222 11.406 11.66 11.406S23.69 18.591 23.69 12.291c0-5.595-4.12-10.246-9.554-11.215z"/><path fill="#FFF" d="M8.947 5.591h5.189v-.713H10.04zM6.412 8.574v3.717h.729V9.049zM10.024 8.3h4.112v-.713H8.931zM7.14 4.139v-2.2c-.246.112-.49.23-.728.358v2.318l.729-.476zm-2.767-.442c-.202.172-.4.348-.59.534l.59.383v-.917zm-2.961 3.89c-.062.133-.122.268-.179.405l.62-.405h-.441zM3.644 9.049v3.242h.729V8.574z"/><path fill="#FFF" d="M8.932 7.587h-2.52v.987l.729.475 4.974 3.243h2.021v-.033L8.052 8.3h1.384l4.7 3.058v-.377L10.024 8.3zM4.373 4.614l-.59-.383c-.43.42-.824.876-1.183 1.36h1.773v-.977zm2.04 0v.977h2.534l1.093-.713 4.095-2.67V1.075l-.225-.04-5.907 3.843h-.862v-.34l5.581-3.63a11.912 11.912 0 0 0-.595-.02L7.14 4.139l-.729.476zm-2.04 3.96v-.987h-2.52l-.62.405c-.22.527-.399 1.071-.537 1.634L2.735 8.3h.909v.31l-3.15 2.049c-.024.16-.046.322-.063.484L3.644 9.05l.729-.475z"/><path fill="#EF3E42" d="M4.373 7.587v4.705h2.04V7.587h7.723V5.591H6.412V2.297c-.732.395-1.414.866-2.04 1.4V5.591H2.6c-.463.62-.86 1.29-1.188 1.996h2.961z"/><path fill="#EF3E42" d="M8.052 8.3l6.084 3.959v-.901L9.436 8.3zM7.14 4.879h.863l5.907-3.843a11.75 11.75 0 0 0-1.188-.128l-5.581 3.63v.34zm-3.496 3.42h-.91L.697 9.627c-.083.34-.15.683-.202 1.033l3.15-2.05V8.3z"/><path fill="#FFF" d="M6.589 17.806l.962-1.417-1.625.602-.533-1.618-.532 1.618-1.627-.602.962 1.417-1.494.868 1.731.147-.238 1.684 1.198-1.231 1.198 1.231-.237-1.684 1.73-.147zM19.097 10.782l.469-.692-.793.295-.261-.792-.261.792-.792-.295.47.692-.733.424.849.072-.119.825.586-.604.586.604-.118-.825.849-.072z"/></g></svg>
