<?xml version="1.0" encoding="utf-8"?>
<!-- Generator: Adobe Illustrator 20.1.0, SVG Export Plug-In . SVG Version: 6.00 Build 0)  -->
<svg version="1.1" id="Lager_1" xmlns="http://www.w3.org/2000/svg" xmlns:xlink="http://www.w3.org/1999/xlink" x="0px" y="0px"
	 viewBox="0 0 22 22" style="enable-background:new 0 0 22 22;" xml:space="preserve">
<style type="text/css">
	.st0{fill:#565656;}
</style>
<path class="st0" d="M11.9182,11l8.8915-8.8915c0.2537-0.2537,0.2537-0.6646,0-0.9182c-0.2537-0.2537-0.6646-0.2537-0.9182,0
	L11,10.0818L2.1085,1.1902c-0.2537-0.2537-0.6646-0.2537-0.9182,0c-0.2537,0.2536-0.2537,0.6646,0,0.9182L10.0818,11l-8.8915,8.8915
	c-0.2537,0.2537-0.2537,0.6646,0,0.9182C1.3171,20.9366,1.4832,21,1.6494,21s0.3323-0.0634,0.4591-0.1902L11,11.9182l8.8915,8.8915
	C20.0184,20.9366,20.1843,21,20.3506,21s0.3323-0.0634,0.4591-0.1902c0.2537-0.2537,0.2537-0.6646,0-0.9182L11.9182,11z"/>
</svg>
