<svg id="Lager_1" xmlns="http://www.w3.org/2000/svg" viewBox="0 0 34 34"><style>.st0{fill:#ef2b2d}.st1{fill:#fff}</style><path class="st0" d="M32.496 13C30.72 6.098 24.456 1 17 1v12h15.497zM1.502 21A16.033 16.033 0 0 0 9 30.853v-9.855H1.502zM9 3.146A16.03 16.03 0 0 0 1.503 13H9V3.146zM32.496 21H17v12c7.457 0 13.72-5.098 15.497-12z"/><path class="st1" d="M11 2.167c-.692.281-1.361.607-2 .979V13H1.502A16.21 16.21 0 0 0 1.128 15H11V2.167zM1.128 19c.085.68.209 1.348.374 2H9v9.854c.639.371 1.308.698 2 .978V19H1.128zM32.496 21c.167-.652.29-1.32.375-2H15v13.872c.654.082 1.322.129 2 .129V20.999h15.497zM32.871 14.999A16.046 16.046 0 0 0 32.496 13H16.999V1c-.678 0-1.346.046-2 .129v13.87h17.872z"/><path d="M32.871 19A16.2 16.2 0 0 0 33 17c0-.678-.047-1.345-.129-2.001H15V1.129A15.906 15.906 0 0 0 11 2.167V15H1.128A16.09 16.09 0 0 0 1 17c0 .677.046 1.343.128 2H11v12.832c1.261.51 2.603.865 4 1.04V19H32.87z" fill="#002868"/></svg>
