<svg id="Lager_1" xmlns="http://www.w3.org/2000/svg" viewBox="0 0 34 34"><style>.st0{fill:#01247d}.st1{fill:#fff}.st2{fill:#cf142b}</style><path class="st0" d="M2.225 10.854c-.184.438-.348.888-.492 1.345h2.512l-2.02-1.345zM31.766 23.168a15.9 15.9 0 0 0 .5-1.368h-2.554l2.054 1.368zM5.645 28.27a15.996 15.996 0 0 0 6.554 3.996v-8.365l-6.554 4.37zM12.2 1.734a15.98 15.98 0 0 0-6.57 4.012l6.57 4.38V1.735zM32.266 12.199a15.904 15.904 0 0 0-.492-1.345l-2.02 1.345h2.512zM21.8 32.266a15.986 15.986 0 0 0 6.554-3.996L21.8 23.9v8.366zM1.733 21.8c.146.466.313.922.5 1.368L4.287 21.8H1.733zM28.37 5.746a15.991 15.991 0 0 0-6.57-4.012v8.393l6.57-4.38z"/><path class="st1" d="M32.75 19.8H19.8v12.95c.68-.121 1.35-.28 2-.484v-8.365l6.554 4.37a15.94 15.94 0 0 0 1.992-2.45L24.299 21.8h3.8l3.295 2.192c.13-.271.255-.546.372-.824L29.712 21.8h2.554c.204-.65.364-1.318.483-2zM12.2 1.734v8.393l-6.57-4.38a15.936 15.936 0 0 0-1.944 2.38L9.808 12.2h-3.8L2.633 9.955c-.145.295-.28.594-.408.899l2.02 1.345H1.733c-.204.65-.363 1.318-.484 2.001H14.2V1.25c-.683.12-1.35.28-2 .485zM1.25 19.8c.12.682.279 1.35.483 2h2.554l-2.054 1.368c.391.935.87 1.822 1.421 2.658L9.705 21.8H12.2v.868L4.933 27.5c.23.265.466.522.712.77L12.2 23.9v8.366c.65.204 1.318.363 2.001.484V19.8H1.25zM32.266 12.199h-2.511l2.02-1.345a15.966 15.966 0 0 0-1.47-2.74L24.164 12.2H21.8v-.954l7.219-4.801c-.21-.238-.425-.472-.648-.698l-6.571 4.38V1.735a15.966 15.966 0 0 0-2-.485V14.2h12.95c-.12-.683-.28-1.35-.484-2.001z"/><path class="st2" d="M32.75 14.2H19.8V1.25C18.89 1.089 17.954 1 17 1c-.956 0-1.891.088-2.8.249V14.2H1.25A16.01 16.01 0 0 0 1 17c0 .955.088 1.89.25 2.8H14.2v12.95c.909.162 1.844.25 2.8.25.954 0 1.89-.088 2.8-.25V19.8h12.95c.162-.91.25-1.845.25-2.8 0-.954-.088-1.89-.25-2.8z"/><path class="st2" d="M24.3 21.8l6.045 4.022c.388-.585.74-1.196 1.05-1.83L28.098 21.8h-3.8zM21.8 12.199h2.364l6.141-4.084a16.179 16.179 0 0 0-1.286-1.671l-7.22 4.8v.955zM12.2 21.8H9.704l-6.05 4.026c.389.586.816 1.146 1.278 1.675l7.266-4.833V21.8zM9.808 12.199L3.686 8.128a15.95 15.95 0 0 0-1.053 1.827L6.008 12.2h3.8z"/></svg>
