<svg id="Lager_1" xmlns="http://www.w3.org/2000/svg" viewBox="0 0 34 34"><style>.st0{fill:#fff}.st1{fill:#bf0a30}</style><path class="st0" d="M1.433 20.692h31.134c.189-.8.317-1.621.381-2.461H1.052c.065.84.192 1.662.381 2.46zM3.52 25.616H30.48c.499-.779.933-1.6 1.294-2.463H2.228c.36.862.795 1.684 1.293 2.463zM8.478 30.537h17.045a16.006 16.006 0 0 0 3.015-2.46H5.462a16.01 16.01 0 0 0 3.016 2.46zM25.525 3.463H8.475a15.942 15.942 0 0 0-3.014 2.461h23.078a15.937 15.937 0 0 0-3.014-2.46z"/><path class="st1" d="M2.228 23.153h29.545c.329-.79.593-1.612.794-2.461H1.432c.202.849.466 1.67.795 2.461zM5.462 28.076h23.077a16.03 16.03 0 0 0 1.94-2.46H3.521a16.134 16.134 0 0 0 1.94 2.46zM17 33c3.134 0 6.055-.905 8.523-2.463H8.478A15.917 15.917 0 0 0 17 33zM1.433 13.308h31.134c-.2-.849-.465-1.67-.794-2.461H2.227c-.329.79-.593 1.612-.794 2.461zM1 17c0 .414.02.823.052 1.23h31.896c.031-.407.052-.816.052-1.23 0-.415-.02-.825-.052-1.23H1.052A16.05 16.05 0 0 0 1 17zM5.46 5.924a15.986 15.986 0 0 0-1.94 2.461h26.96a15.93 15.93 0 0 0-1.94-2.46H5.46zM17 1c-3.134 0-6.056.905-8.524 2.463h17.049A15.92 15.92 0 0 0 17 1z"/><path class="st0" d="M1.052 15.77h31.896a15.993 15.993 0 0 0-.38-2.462H1.432c-.189.8-.317 1.62-.381 2.462zM2.227 10.847h29.546a15.99 15.99 0 0 0-1.293-2.462H3.52a15.98 15.98 0 0 0-1.293 2.462z"/><g><path d="M16.99 1C8.157 1.005 1 8.166 1 17c0 .421.02.837.054 1.25h15.935V1z" fill="#002868"/><path class="st0" d="M1.975 11.484c-.02.059-.039.12-.06.179h.002l.058-.179zM1.8 12c-.054.171-.108.343-.159.516l.165-.511L1.8 12zM2.574 17.326l-.474-.344-.474.344.18-.557-.472-.343h.583l.183-.555.18.555h.585l-.473.343zM4.716 14.925l-.474-.345-.473.345.181-.557-.475-.344h.586l.181-.553.18.553h.586l-.474.344zM4.578 9.49l.18.556-.472-.346-.474.346.18-.556-.472-.344h.586l.18-.554.18.554h.585zM6.946 17.326l-.471-.344-.476.344.182-.557-.473-.343h.584l.183-.555.18.555h.585l-.475.343zM6.978 11.85l-.213.155.181.557-.471-.345-.476.345.182-.557-.212-.154-.261-.188h.584l.183-.558.18.558h.585zM6.765 7.013l.181.554-.471-.341-.476.341.182-.554-.473-.345h.584l.183-.554.18.554h.585zM9.09 15.1l-.473-.345-.473.345.18-.559-.471-.34h.583l.181-.56.18.56h.586l-.474.34zM8.954 9.665l.18.554-.473-.344-.473.344.181-.554-.473-.344h.583l.182-.556.18.556h.585zM8.998 4.729l.18.554-.472-.342-.474.342.18-.554-.471-.344h.582l.183-.556.178.556h.585zM11.32 17.326l-.47-.344-.475.344.18-.557-.472-.343h.585l.181-.555.179.555h.585l-.472.343zM11.352 11.85l-.211.155.18.557-.472-.345-.474.345.18-.557-.21-.154-.262-.188h.585l.181-.558.179.558h.585zM11.14 7.013l.18.554-.47-.341-.475.341.18-.554-.472-.345h.585l.181-.554.179.554h.585zM13.466 15.1l-.475-.345-.471.345.18-.559-.474-.34h.586l.18-.56.181.56h.585l-.474.34zM13.328 9.665l.18.554-.472-.344-.474.344.18-.554-.472-.344h.586l.18-.556.18.556h.584zM13.373 4.729l.18.554-.472-.342-.475.342.18-.554-.47-.344h.581l.184-.556.178.556h.585zM15.698 17.326l-.473-.344-.475.344.181-.557-.473-.343h.583l.184-.555.178.555h.585l-.472.343zM15.728 11.85l-.212.155.182.557-.473-.345-.475.345.181-.557-.21-.154-.263-.188h.583l.184-.558.178.558h.585zM15.516 7.013l.182.554-.473-.341-.475.341.181-.554-.473-.345h.583l.184-.554.178.554h.585zM15.516 2.132l.182.556-.473-.343-.475.343.181-.556-.473-.344h.583l.184-.555.178.555h.585zM10.85 2.345l.47.344-.18-.556.066-.047c-.248.096-.493.198-.736.307l-.095.296.474-.344z"/><path class="st0" d="M10.85 6.114l-.182.554h-.585l.473.345-.18.554.473-.341.471.341-.18-.554.473-.345h-.585zM10.85 11.105l-.182.558h-.585l.261.188.212.154-.18.557.473-.345.471.345-.18-.557.212-.154.26-.188h-.584zM11.028 16.426l-.179-.555-.181.555h-.585l.473.343-.18.557.473-.344.471.344-.18-.557.473-.343zM6.475 6.114l-.183.554h-.584l.473.345-.182.554.476-.341.471.341-.18-.554.474-.345h-.585zM6.475 11.105l-.183.558h-.584l.261.188.212.154-.182.557.476-.345.471.345-.18-.557.212-.154.262-.188h-.585zM6.655 16.426l-.18-.555-.183.555h-.584l.473.343-.182.557.476-.344.471.344-.18-.557.474-.343zM1.626 12.562l.003-.002a.711.711 0 0 0 .012-.044l-.015.046zM2.1 11.105l-.125.38c.043-.117.092-.231.137-.344l-.012-.036z"/><path class="st0" d="M2.574 12.562l-.182-.557.211-.154.262-.188h-.586l-.167-.522c-.045.113-.094.227-.137.343l-.058.179h-.002c-.04.113-.077.224-.115.337l.006.005-.165.511a.711.711 0 0 1-.012.044l.471-.343.474.345zM2.28 16.426l-.18-.555-.183.555h-.583l.473.343-.18.557.473-.344.474.344-.182-.557.473-.343zM13.036 8.765l-.18.556h-.585l.472.344-.18.554.473-.344.473.344-.18-.554.47-.344h-.583zM13.173 14.2l-.182-.559-.18.56h-.585l.474.34-.18.56.471-.346.475.345-.182-.559.473-.34zM8.66 8.765l-.18.556h-.585l.474.344-.181.554.473-.344.473.344-.18-.554.472-.344H8.84zM8.797 14.2l-.18-.559-.181.56h-.583l.472.34-.18.56.472-.346.473.345-.181-.559.474-.34zM4.286 8.592l-.18.554H3.52l.473.344-.18.556.473-.346.473.346-.181-.556.473-.344h-.585zM4.423 14.024l-.18-.553-.182.553h-.586l.475.344-.18.557.472-.345.474.345-.182-.557.474-.344zM15.225 6.114l-.184.554h-.583l.473.345-.181.554.475-.341.473.341-.182-.554.472-.345h-.585zM8.706 3.829l-.183.556H7.94l.47.344-.18.554.475-.342.472.342-.18-.554.471-.344h-.585zM13.081 3.829l-.184.556h-.582l.472.344-.18.554.474-.342.471.342-.18-.554.472-.344h-.585zM15.225 1.233l-.184.555h-.583l.473.344-.181.556.475-.343.473.343-.182-.556.472-.344h-.585zM15.225 11.105l-.184.558h-.583l.262.188.211.154-.181.557.475-.345.473.345-.182-.557.212-.154.26-.188h-.585zM15.403 16.426l-.178-.555-.184.555h-.583l.473.343-.181.557.475-.344.473.344-.182-.557.472-.343z"/></g></svg>
