<svg id="Lager_1" xmlns="http://www.w3.org/2000/svg" viewBox="0 0 34 34"><style>.st1{fill:#fc0}</style><circle cx="17" cy="17" r="16" fill="#039"/><path class="st1" d="M17 6.333l.312.969h1.015l-.821.598.313.968L17 8.27l-.82.598.312-.968-.82-.598h1.015zM12.27 7.6l.316.97 1.011-.002-.818.598.312.971-.82-.6-.819.601.313-.97-.822-.598h1.015zM8.813 11.075l.313.966h1.014l-.822.601.318.969-.82-.598-.822.599.313-.969-.821-.598 1.013-.002zM21.719 7.617l.315.966 1.012-.001-.817.6.313.97-.818-.597-.822.599.313-.97-.823-.598 1.016-.001zM26.362 11.97l-.818.6.313.968-.822-.598-.818.598.312-.968-.82-.598h1.014l.312-.971.314.97zM27.667 16.74l-.823.595.309.972-.816-.604-.824.595.318-.967-.819-.602 1.014.004.318-.968.308.97zM25.936 22.885l-.82-.599-.82.6.313-.969-.824-.598 1.015-.001.312-.97.315.97 1.015-.003-.821.6zM16.266 27.666l.31-.969-.821-.599 1.012-.002.312-.97.315.97 1.011-.003-.818.6.318.968-.821-.594zM11.53 26.406l.311-.967-.82-.6h1.015l.31-.97.314.968 1.013-.001-.819.6.315.967-.82-.596zM22.475 26.383l-.817-.602-.823.597.32-.969-.819-.603 1.013.004.317-.966.31.969 1.013.004-.822.596zM6.334 16.76l1.013-.003.31-.971.317.968 1.011-.003-.816.602.314.968-.82-.598-.82.602.312-.969zM8.066 22.88l.314-.968-.82-.598 1.014-.002.311-.97.316.969h1.012l-.82.6.316.969-.822-.599z"/></svg>
