<svg id="Layer_1" data-name="Layer 1" xmlns="http://www.w3.org/2000/svg" viewBox="0 0 504.87 76.45"><defs><style>.cls-1{fill:#83a729}</style></defs><path class="cls-1" d="M0 52.89a6.57 6.57 0 0 1 2-4.82 6.6 6.6 0 0 1 4.83-2 6.58 6.58 0 0 1 4.82 2 6.88 6.88 0 0 1 0 9.66 6.53 6.53 0 0 1-4.82 2 6.55 6.55 0 0 1-4.83-2 6.63 6.63 0 0 1-2-4.84zM30.27 55.24l3.36-7.53a15 15 0 0 0 9.57 3.37q5.52 0 5.52-3.93a4.84 4.84 0 0 0-1.66-3.78 25.1 25.1 0 0 0-6.47-3.48q-10.47-4.35-10.47-12.18a9.53 9.53 0 0 1 4-8.18 16.85 16.85 0 0 1 10.25-2.93 25.73 25.73 0 0 1 11.87 2.83l-2.72 7.34q-3.1-2.65-8.62-2.65-4.9 0-4.9 3.93a3.53 3.53 0 0 0 1.62 2.8 34 34 0 0 0 7 3.35q5.32 2.1 7.68 5.08a11.35 11.35 0 0 1 2.34 7.22 10.59 10.59 0 0 1-4.18 8.87Q50.2 58.6 43 58.6a25.59 25.59 0 0 1-6.48-.66 31.52 31.52 0 0 1-6.25-2.7zM73.35 25h-4.68v-7.6h4.68V9.11l9.46-3.48v11.72h11.11V25H82.81v17.69q0 4.34 1.36 6.14c.9 1.2 2.49 1.79 4.76 1.79a11.66 11.66 0 0 0 6.35-1.85v8.7a30.29 30.29 0 0 1-9.37 1.13q-6.06 0-9.3-3.42t-3.26-9.74zM131.83 26.16a9.91 9.91 0 0 0-5.56-1.66 7.55 7.55 0 0 0-5.84 3 10.84 10.84 0 0 0-2.55 7.29v23.06h-9.46v-40.5h9.46v3.71a13.4 13.4 0 0 1 10.55-4.46 15.18 15.18 0 0 1 7.41 1.47zM167.43 53.8a9.2 9.2 0 0 1-4.43 3.46 17.17 17.17 0 0 1-6.68 1.34q-6.54 0-10.28-3.27t-3.74-9.28a13 13 0 0 1 5.27-11q5.28-4 15-4a16.89 16.89 0 0 1 3.93.56q0-7.14-9-7.14a19.91 19.91 0 0 0-8.92 1.78l-2.05-7.34a26.63 26.63 0 0 1 11.61-2.34q9.27 0 13.57 4.21t4.31 16v8.65q0 8.1 3.26 10.17a5.15 5.15 0 0 1-2.61 2.52 10.71 10.71 0 0 1-3.29.47 5.24 5.24 0 0 1-3.67-1.51 7.8 7.8 0 0 1-2.28-3.28zm-.91-15a19.77 19.77 0 0 0-3.63-.49q-11.19 0-11.19 7.33 0 5.44 6.31 5.45 8.51 0 8.51-8.51zM218 57.85V34.44q0-5.17-2-7.56t-6.48-2.38a10 10 0 0 0-4.44 1.17 10.17 10.17 0 0 0-3.69 2.91v29.27H192v-40.5h6.8l1.74 3.78q3.85-4.53 11.38-4.53 7.23 0 11.4 4.33T227.45 33v24.85zM269.52 57.85v-2.46a9.84 9.84 0 0 1-4 2.25 17.76 17.76 0 0 1-5.79 1q-8.47 0-13.33-5.37t-4.85-15q0-9.6 5.57-15.63a18.24 18.24 0 0 1 14-6 18.55 18.55 0 0 1 8.4 1.89V2.27L279 0v57.85zm0-30.82a10 10 0 0 0-6.32-2.42q-5.67 0-8.73 3.46T251.4 38q0 12.63 12.18 12.62a9.25 9.25 0 0 0 3.35-.81 6.2 6.2 0 0 0 2.59-1.64zM300.92 55.61l-2.12 3h-5.33V2.27L302.92 0v18.9a15.6 15.6 0 0 1 8.24-2.3q8.89 0 14.33 5.61t5.45 14.39q0 10.17-5.48 16.08T310.6 58.6a15.79 15.79 0 0 1-9.68-2.99zm2-28.62v21.14a7 7 0 0 0 5.64 2.46q6.84 0 9.69-3.26t2.86-10.39q0-12.33-11.8-12.33a8.28 8.28 0 0 0-6.39 2.39zM381.21 40.49h-28.93a10.3 10.3 0 0 0 3.33 7.51 12.05 12.05 0 0 0 8.24 2.68q6.47 0 9.83-3.37l3.67 7.23q-5 4-14.9 4-9.26 0-14.65-5.42T342.42 38q0-9.55 5.91-15.5a19.37 19.37 0 0 1 14.2-5.93q8.81 0 14.14 5.25A18 18 0 0 1 382 35.24a26.19 26.19 0 0 1-.79 5.25zm-28.59-7.11h19.89q-1-8.88-9.83-8.88-8.08 0-10.06 8.88zM418.77 26.16a9.91 9.91 0 0 0-5.56-1.66 7.55 7.55 0 0 0-5.84 3 10.84 10.84 0 0 0-2.55 7.29v23.06h-9.45v-40.5h9.45v3.71a13.41 13.41 0 0 1 10.55-4.46q4.85 0 7.41 1.47zM431.23 68.24l6-7.37a16 16 0 0 0 11 4.54A16.37 16.37 0 0 0 455 64.2q2.64-1.22 2.64-3.33 0-3.59-5.86-3.59a41.22 41.22 0 0 0-4.72.38 43.42 43.42 0 0 1-4.73.37q-9.75 0-9.75-7a6.07 6.07 0 0 1 1.62-3.93 10.1 10.1 0 0 1 3.8-2.83 14.34 14.34 0 0 1-7-12.74 13.78 13.78 0 0 1 4.77-10.75 16.93 16.93 0 0 1 11.72-4.26 18.54 18.54 0 0 1 9.11 2l3.71-4.31 6.54 5.94-4.5 3.29a14.92 14.92 0 0 1 2.34 8.39q0 6.91-4.21 11.06a14.59 14.59 0 0 1-10.65 4.14 24.82 24.82 0 0 1-2.72-.19l-1.55-.23a10.57 10.57 0 0 0-2 .82c-1.17.54-1.76 1.1-1.76 1.68 0 1 .87 1.51 2.61 1.51a23.23 23.23 0 0 0 3.93-.56 23.89 23.89 0 0 1 4.73-.57q13.8 0 13.8 11.07a10.85 10.85 0 0 1-5.52 9.63 24.38 24.38 0 0 1-13.31 3.49 27.88 27.88 0 0 1-16.81-5.44zm9.46-36.67a8.21 8.21 0 0 0 2 5.76 6.89 6.89 0 0 0 5.31 2.18 6.46 6.46 0 0 0 5.18-2.12 8.65 8.65 0 0 0 1.82-5.82 7.4 7.4 0 0 0-1.94-5.18 6.55 6.55 0 0 0-5.06-2.12 7 7 0 0 0-7.33 7.3zM499.2 16.18l-5.07.42 5.18 2.95 3.25 4.19-7.3 5.45-3.17-4.61-2-4.84-1.85 4.31-4.24 5.14-6.51-5.82L482 19l4.16-2.16-5.1-.45-5.9-2.35 3.71-7.75 6 2.54 2.68 2.87-2-5.86V.72h8.93v5l-1.74 6.12 3.78-3.36 5.37-2.35 3.06 7.6z"/></svg>