<svg data-name="Layer 1" xmlns="http://www.w3.org/2000/svg" viewBox="0 0 78 78"><path d="M39 0a39 39 0 1 0 39 39A39 39 0 0 0 39 0zm1.22 70.93a1.81 1.81 0 0 1-1.22.49 1.84 1.84 0 0 1-1.23-.49 42.26 42.26 0 0 1-11.83-18.24 53.57 53.57 0 0 1 26.15-.09 42.3 42.3 0 0 1-11.87 18.33zM24.47 46.87a44.65 44.65 0 0 1-.72-7.87 43.72 43.72 0 0 1 .72-7.87A59.7 59.7 0 0 0 39.2 33a60 60 0 0 0 14.35-1.75 44.55 44.55 0 0 1 .7 7.77 44.75 44.75 0 0 1-.7 7.78 59.63 59.63 0 0 0-29.08.07zm13.31-39.8A1.81 1.81 0 0 1 39 6.58a1.84 1.84 0 0 1 1.23.49A42.37 42.37 0 0 1 52.09 25.4a53.57 53.57 0 0 1-26.15-.09A42.28 42.28 0 0 1 37.78 7.07zm21.54 22.4A59.15 59.15 0 0 0 68.89 25a32.93 32.93 0 0 1 0 27.94 58.76 58.76 0 0 0-9.57-4.44 49.29 49.29 0 0 0 0-19.06zm6.53-9.62a52.91 52.91 0 0 1-8 3.79A48.47 48.47 0 0 0 49 7.54a33.08 33.08 0 0 1 16.85 12.31zM29 7.54a48.75 48.75 0 0 0-8.82 16 53.72 53.72 0 0 1-8-3.81A33.15 33.15 0 0 1 29 7.54zM9.19 24.85a59.37 59.37 0 0 0 9.52 4.49 49.08 49.08 0 0 0 0 19.32 59.37 59.37 0 0 0-9.52 4.49 33 33 0 0 1 0-28.3zm3.07 33.46a53.36 53.36 0 0 1 8-3.81 48.54 48.54 0 0 0 8.81 16 33.15 33.15 0 0 1-16.81-12.19zM49 70.46a48.57 48.57 0 0 0 8.86-16.1 52.85 52.85 0 0 1 8 3.78A33 33 0 0 1 49 70.46z" fill="#81ab41"/></svg>
